<svg width="346" height="258" viewBox="0 0 346 258" fill="none" xmlns="http://www.w3.org/2000/svg">
<path opacity="0.19" d="M344.328 32.8284C345.891 31.2663 345.891 28.7337 344.328 27.1716L318.873 1.71573C317.31 0.153631 314.778 0.153631 313.216 1.71573C311.654 3.27783 311.654 5.81049 313.216 7.37258L335.843 30L313.216 52.6274C311.654 54.1895 311.654 56.7222 313.216 58.2843C314.778 59.8464 317.31 59.8464 318.873 58.2843L344.328 32.8284ZM0 214H94V206H0V214ZM116 192V48H108V192H116ZM130 34H341.5V26H130V34ZM116 48C116 40.268 122.268 34 130 34V26C117.85 26 108 35.8497 108 48H116ZM94 214C106.15 214 116 204.15 116 192H108C108 199.732 101.732 206 94 206V214Z" fill="url(#paint0_linear_4525_17775)"/>
<path opacity="0.19" d="M344.328 225.172C345.891 226.734 345.891 229.266 344.328 230.828L318.873 256.284C317.31 257.846 314.778 257.846 313.216 256.284C311.654 254.722 311.654 252.19 313.216 250.627L335.843 228L313.216 205.373C311.654 203.81 311.654 201.278 313.216 199.716C314.778 198.154 317.31 198.154 318.873 199.716L344.328 225.172ZM64.5 140V210H56.5V140H64.5ZM78.5 224H341.5V232H78.5V224ZM64.5 210C64.5 217.732 70.768 224 78.5 224V232C66.3497 232 56.5 222.15 56.5 210H64.5Z" fill="url(#paint1_linear_4525_17775)"/>
<path d="M344.328 137.328C345.891 135.766 345.891 133.234 344.328 131.672L318.873 106.216C317.31 104.654 314.778 104.654 313.216 106.216C311.654 107.778 311.654 110.31 313.216 111.873L335.843 134.5L313.216 157.127C311.654 158.69 311.654 161.222 313.216 162.784C314.778 164.346 317.31 164.346 318.873 162.784L344.328 137.328ZM30 85H139V77H30L30 85ZM153 99V116.5H161V99H153ZM175 138.5H341.5V130.5H175V138.5ZM153 116.5C153 128.65 162.85 138.5 175 138.5V130.5C167.268 130.5 161 124.232 161 116.5H153ZM139 85C146.732 85 153 91.268 153 99H161C161 86.8497 151.15 77 139 77V85Z" fill="url(#paint2_linear_4525_17775)"/>
<defs>
<linearGradient id="paint0_linear_4525_17775" x1="263.5" y1="40.5" x2="49" y2="40.5" gradientUnits="userSpaceOnUse">
<stop stop-color="white"/>
<stop offset="1" stop-color="white" stop-opacity="0"/>
</linearGradient>
<linearGradient id="paint1_linear_4525_17775" x1="263.5" y1="217.5" x2="48.9999" y2="217.5" gradientUnits="userSpaceOnUse">
<stop stop-color="white"/>
<stop offset="1" stop-color="white" stop-opacity="0"/>
</linearGradient>
<linearGradient id="paint2_linear_4525_17775" x1="268" y1="81" x2="29.5" y2="81" gradientUnits="userSpaceOnUse">
<stop stop-color="#5C10FF"/>
<stop offset="1" stop-color="#5C10FF" stop-opacity="0"/>
</linearGradient>
</defs>
</svg>
