<svg width="170" height="58" viewBox="0 0 170 58" fill="none" xmlns="http://www.w3.org/2000/svg">
<path d="M88.7651 34.38C89.4566 32.596 90.1175 30.9974 90.6927 29.3686C91.0684 28.3049 91.9053 28.7887 92.5428 28.7635C93.2674 28.7349 92.9546 29.3966 92.9596 29.7482C92.9904 31.878 92.9612 34.0086 92.9843 36.1386C92.9903 36.6915 92.9169 36.975 92.2411 36.9718C91.5458 36.9685 91.5105 36.6402 91.5173 36.1101C91.5586 34.4631 91.5025 32.815 91.3493 31.1746C90.6927 32.8197 90.0433 34.4677 89.3733 36.1073C89.2453 36.4204 89.2744 36.8962 88.7863 36.9334C88.2092 36.9775 88.2327 36.4383 88.0957 36.106C87.415 34.4558 86.7634 32.7936 85.9038 31.1635C85.9038 32.8314 85.879 34.4999 85.9169 36.167C85.9306 36.77 85.7697 36.968 85.1399 36.9701C84.4942 36.9722 84.4638 36.6721 84.4677 36.1782C84.4849 34.0148 84.4598 31.851 84.4918 29.6879C84.4965 29.3685 84.1861 28.7229 84.8539 28.7694C85.4896 28.8136 86.3492 28.2559 86.7392 29.3152C87.2904 30.8125 87.8919 32.2914 88.475 33.777C88.5329 33.9246 88.6121 34.064 88.7651 34.38Z" fill="#363240"/>
<path d="M99.442 34.2094C100.065 32.6068 100.739 31.0466 101.273 29.4402C101.651 28.3034 102.512 28.7775 103.176 28.7659C103.886 28.7536 103.567 29.4157 103.573 29.7695C103.604 31.8996 103.582 34.0304 103.593 36.161C103.596 36.6363 103.597 36.9822 102.932 36.9676C102.34 36.9545 102.114 36.8176 102.13 36.1855C102.184 34.5095 102.129 32.8317 101.966 31.1629C101.309 32.8095 100.659 34.4597 99.9863 36.1C99.8492 36.434 99.8878 36.9715 99.3072 36.933C98.8166 36.9004 98.8397 36.4245 98.7117 36.113C98.0331 34.4613 97.3778 32.8 96.5209 31.1665C96.5209 32.8018 96.5041 34.4373 96.5299 36.0722C96.539 36.6476 96.4897 36.9736 95.7502 36.9752C94.9772 36.9769 95.0837 36.5405 95.084 36.0786C95.0853 33.948 95.0694 31.8172 95.1009 29.6871C95.1057 29.3663 94.7998 28.7223 95.4681 28.7689C96.1049 28.8133 96.9645 28.2591 97.354 29.3168C97.9055 30.8144 98.5067 32.2939 99.0866 33.7811C99.1453 33.9315 99.1552 34.1135 99.442 34.2094Z" fill="#363140"/>
<path d="M105.702 32.7516C105.702 31.6517 105.729 30.551 105.691 29.4524C105.671 28.8781 105.871 28.7084 106.435 28.7225C107.838 28.7574 109.242 28.7512 110.644 28.7251C111.156 28.7156 111.352 28.867 111.348 29.403C111.344 29.9184 111.11 30.0172 110.673 30.0091C109.805 29.9929 108.931 30.067 108.069 29.9879C107.181 29.9062 107.104 30.3503 107.129 31.0479C107.151 31.6784 107.059 32.2459 108.026 32.1411C108.851 32.0517 109.695 32.1475 110.529 32.1138C111.042 32.0931 111.234 32.2515 111.229 32.7864C111.224 33.2982 111.002 33.3953 110.561 33.3836C109.726 33.3616 108.886 33.4307 108.057 33.3624C107.272 33.2976 107.032 33.6064 107.137 34.3305C107.167 34.5624 107.167 34.7971 107.139 35.0292C107.079 35.5737 107.343 35.7164 107.844 35.7018C108.779 35.6746 109.715 35.702 110.65 35.6911C111.058 35.6863 111.35 35.7138 111.348 36.263C111.345 36.779 111.193 36.9671 110.662 36.9564C109.226 36.9276 107.788 36.9238 106.353 36.958C105.796 36.9712 105.683 36.7411 105.694 36.2509C105.719 35.0849 105.702 33.918 105.702 32.7516Z" fill="#363241"/>
<path d="M129.363 32.7341C129.363 31.6347 129.379 30.535 129.355 29.4362C129.345 28.9541 129.443 28.7091 130.008 28.7227C131.443 28.7574 132.88 28.7536 134.315 28.7243C134.849 28.7134 134.997 28.9063 135 29.4191C135.002 29.9527 134.731 30.0136 134.312 30.0084C133.377 29.9967 132.44 30.0385 131.507 29.9966C130.487 29.9508 130.853 30.6853 130.811 31.1683C130.769 31.6558 130.67 32.1894 131.505 32.1363C132.436 32.0771 133.375 32.1471 134.309 32.1147C134.853 32.0958 134.877 32.3923 134.886 32.8015C134.895 33.2274 134.745 33.3976 134.308 33.3835C133.574 33.3596 132.839 33.3775 132.104 33.3778C130.799 33.3782 130.845 33.3803 130.786 34.6396C130.749 35.4384 130.944 35.7906 131.815 35.7107C132.643 35.6349 133.484 35.7065 134.318 35.6899C134.744 35.6814 134.997 35.7481 135.001 36.2779C135.004 36.8147 134.811 36.9649 134.3 36.9555C132.898 36.9299 131.495 36.9236 130.093 36.9582C129.532 36.9721 129.331 36.8084 129.351 36.2316C129.39 35.0669 129.363 33.9 129.363 32.7341Z" fill="#363241"/>
<path d="M70.885 37.113C70.1393 37.1132 69.4094 36.8977 68.7834 36.4923C68.1575 36.087 67.6622 35.5091 67.3573 34.8285C66.9697 34.0826 66.8074 33.24 66.8902 32.4035C66.973 31.5669 67.2972 30.7725 67.8235 30.1169C68.859 28.7864 70.2954 28.388 71.9395 28.7013C72.6352 28.8292 73.2636 29.1982 73.7143 29.7434C73.9031 29.9681 74.4393 30.2342 73.9016 30.6056C73.5486 30.8495 73.2194 31.1657 72.7011 30.6634C72.4745 30.418 72.199 30.2227 71.8923 30.0903C71.5856 29.9579 71.2546 29.8912 70.9205 29.8946C70.5865 29.8979 70.2569 29.9713 69.953 30.1099C69.649 30.2485 69.3775 30.4493 69.1559 30.6993C68.6394 31.294 68.3551 32.0552 68.3551 32.8429C68.3552 33.6306 68.6397 34.3918 69.1563 34.9864C69.3758 35.2387 69.646 35.4418 69.9494 35.5824C70.2528 35.723 70.5825 35.798 70.9169 35.8023C71.2512 35.8067 71.5827 35.7403 71.8897 35.6076C72.1966 35.475 72.4721 35.279 72.698 35.0324C73.2621 34.4848 73.6528 34.8433 73.972 35.1392C74.377 35.5145 73.852 35.7738 73.6455 36.0058C73.2937 36.3801 72.8643 36.6731 72.3876 36.8643C71.9108 37.0555 71.398 37.1404 70.885 37.113Z" fill="#363241"/>
<path d="M120.711 32.7831C120.675 31.9266 120.911 31.0808 121.386 30.3671C121.861 29.6534 122.55 29.1086 123.353 28.811C124.07 28.5189 124.859 28.4553 125.613 28.629C126.367 28.8026 127.049 29.205 127.565 29.781C127.735 29.9887 128.215 30.2568 127.694 30.5611C127.372 30.7493 127.091 31.1765 126.574 30.7116C125.454 29.7041 124.345 29.6168 123.327 30.3294C122.812 30.7332 122.434 31.2873 122.247 31.915C122.06 32.5427 122.073 33.213 122.284 33.8331C122.903 35.7683 124.991 36.388 126.477 35.0063C127.043 34.4805 127.427 34.8 127.755 35.0972C128.157 35.4606 127.655 35.7232 127.447 35.9491C126.912 36.5079 126.215 36.8855 125.455 37.0295C124.694 37.1734 123.908 37.0764 123.205 36.752C121.621 36.1085 120.701 34.6455 120.711 32.7831Z" fill="#363241"/>
<path d="M65.5752 30.6273C65.7518 32.408 65.7519 32.408 64.0929 32.4081C63.6923 32.4081 63.2895 32.4352 62.8917 32.4018C62.2694 32.3496 62.0079 32.5302 62.0131 33.2266C62.0185 33.9347 62.3714 33.9725 62.8893 33.9341C63.0888 33.9146 63.2899 33.9155 63.4893 33.9369C63.7528 33.9719 64.1459 33.7777 64.1997 34.2504C64.2502 34.4266 64.2422 34.6144 64.1768 34.7856C64.1114 34.9568 63.9921 35.1021 63.837 35.1996C63.3246 35.4865 62.7335 35.6009 62.151 35.526C61.5686 35.4512 61.0257 35.1909 60.6025 34.7837C60.1624 34.277 59.9085 33.6351 59.883 32.9644C59.8575 32.2937 60.0618 31.6343 60.4621 31.0956C61.1921 30.171 62.5816 29.784 63.5059 30.4515C64.2185 30.9662 64.8089 31.2259 65.5752 30.6273Z" fill="#363241"/>
<path d="M49.1866 35.4011C48.7698 35.3181 47.9067 35.8049 47.953 34.5343C47.9835 33.6956 48.2092 33.4142 49.0217 33.5223C49.4457 33.5787 49.8838 33.5184 50.3134 33.5456C50.4388 33.5365 50.5647 33.5537 50.683 33.5963C50.8013 33.6388 50.9094 33.7057 51.0003 33.7927C51.0911 33.8796 51.1628 33.9846 51.2105 34.1009C51.2583 34.2172 51.2811 34.3423 51.2775 34.468C51.2917 35.0759 50.924 35.366 50.3431 35.3979C50.0127 35.416 49.6805 35.4011 49.1866 35.4011Z" fill="#373342"/>
<path d="M49.3335 30.2711C50.0605 30.3651 51.0733 30.0099 51.0906 31.1135C51.1091 32.2951 50.0575 31.9724 49.3506 31.9997C48.6778 32.0256 47.8861 32.2913 47.9532 31.0228C48.0211 29.7416 48.9171 30.5285 49.3335 30.2711Z" fill="#363241"/>
<path d="M65.6483 36.0631C62.5694 37.5038 60.3862 37.2971 58.9704 35.4828C58.3865 34.7041 58.0787 33.7531 58.0957 32.7799C58.1128 31.8068 58.4536 30.8671 59.0645 30.1094C59.4603 29.6549 59.9467 29.2882 60.4924 29.0325C61.0381 28.7768 61.6312 28.6378 62.2337 28.6245C63.5292 28.5325 64.5981 29.0573 65.649 30.0218C65.649 26.1231 65.655 22.4327 65.6387 18.7424C65.6372 18.4108 65.8602 17.9459 65.4205 17.7636C65.0733 17.6196 64.8222 17.9876 64.5635 18.1768C60.0417 21.4836 55.5238 24.7958 51.0098 28.1134C50.8054 28.2636 50.5199 28.3478 50.457 28.6905C50.5862 28.7126 50.7078 28.7384 50.8308 28.7536C51.719 28.8628 52.4616 29.2271 52.7619 30.1127C52.938 30.5158 52.9692 30.9674 52.8501 31.3908C52.7311 31.8143 52.4692 32.1835 52.1089 32.4359C51.6092 32.8025 52.0639 32.9018 52.2528 33.0582C52.6269 33.3468 52.8935 33.7525 53.0101 34.2105C53.1267 34.6684 53.0865 35.1522 52.8959 35.5846C52.5527 36.5508 51.7505 36.9241 50.7657 36.9326C49.5639 36.943 48.3593 36.888 47.161 36.9536C46.3936 36.9956 46.1885 36.7397 46.2188 35.999C46.2761 34.5965 46.2354 33.19 46.2354 31.6069C43.4099 33.6763 40.7781 35.6037 38.1464 37.5313C37.2047 38.221 36.2636 38.9114 35.323 39.6025C35.1676 39.7172 34.94 39.8258 35.0146 40.0626C35.0877 40.2945 35.3294 40.2611 35.5251 40.2652C35.7588 40.27 35.9925 40.2673 36.2262 40.2673C44.5394 40.2673 52.8525 40.2674 61.1657 40.2673C62.401 40.2673 63.6363 40.2636 64.8715 40.2691C65.2998 40.271 65.6691 40.2671 65.6559 39.6615C65.63 38.4762 65.6483 37.29 65.6483 36.0631ZM56.4608 32.8303C56.4607 33.9956 56.4291 35.1621 56.4725 36.3258C56.4988 37.0308 56.0616 36.9481 55.6284 36.9356C55.2186 36.9239 54.7429 37.0774 54.7508 36.3528C54.7759 34.0225 54.7757 31.6919 54.75 29.3611C54.7406 28.5694 55.2713 28.7841 55.7015 28.7393C56.2312 28.6842 56.4957 28.8263 56.4731 29.4346C56.431 30.5651 56.461 31.6983 56.4608 32.8303Z" fill="#353140"/>
<path d="M118.291 33.5278C119.476 32.8929 119.875 31.886 119.57 30.5872C119.311 29.4858 118.344 28.7684 117.027 28.7391C116.06 28.7175 115.089 28.7723 114.124 28.7203C113.486 28.6859 113.337 28.921 113.346 29.5193C113.378 31.7171 113.369 33.9157 113.351 36.1137C113.347 36.6385 113.365 36.9757 114.07 36.9721C114.755 36.9687 114.842 36.6656 114.803 36.1222C114.762 35.7242 114.765 35.323 114.81 34.9256C114.861 34.5786 114.519 34.0242 115.124 33.9247C115.651 33.838 116.258 33.7201 116.57 34.4396C116.781 34.9248 117.161 35.3392 117.353 35.8291C117.752 36.8468 118.445 37.1678 119.5 36.8678C119.52 36.7788 119.545 36.7365 119.532 36.7161C119.053 35.9182 118.588 35.1101 118.079 34.3314C117.824 33.9405 117.833 33.7731 118.291 33.5278ZM117.174 32.5309C116.546 32.5922 115.914 32.6149 115.283 32.5989C114.962 32.6067 114.787 32.463 114.796 32.1245C114.802 31.859 114.794 31.5932 114.794 31.3276C114.794 29.9966 114.794 29.9966 116.139 29.9688C116.503 29.9893 116.865 30.0323 117.223 30.0976C117.507 30.1474 117.76 30.3024 117.934 30.5317C118.108 30.7609 118.188 31.0473 118.159 31.3334C118.18 31.6212 118.089 31.9059 117.906 32.1288C117.722 32.3516 117.46 32.4956 117.174 32.5309Z" fill="#363240"/>
<path d="M78.9769 28.5926C76.7179 28.5467 74.9806 30.3623 74.9515 32.7993C74.9221 35.2668 76.6303 37.0974 78.9772 37.1135C79.5215 37.1194 80.0614 37.0152 80.5645 36.8072C81.0676 36.5993 81.5234 36.2918 81.9047 35.9033C82.286 35.5147 82.5848 35.0532 82.7833 34.5463C82.9817 34.0394 83.0757 33.4976 83.0595 32.9535C83.073 31.8403 82.6557 30.765 81.8948 29.9523C81.134 29.1397 80.0885 28.6525 78.9769 28.5926ZM78.9963 35.7901C77.4583 35.787 76.412 34.6038 76.4061 32.8611C76.4001 31.1174 77.436 29.9198 78.9675 29.8997C80.5236 29.8793 81.6598 31.1483 81.6375 32.882C81.6156 34.5863 80.5195 35.7932 78.9963 35.7901Z" fill="#363241"/>
</svg>
