<svg width="170" height="58" viewBox="0 0 170 58" fill="none" xmlns="http://www.w3.org/2000/svg">
<path d="M70.0124 25.1041C70.5459 24.3453 71.2881 24.0497 72.137 24.0244C72.6563 24.0006 73.1767 24.037 73.6877 24.1331C75.1181 24.4292 76.0377 25.5162 76.1546 26.9722C76.1709 27.1749 76.1802 27.3786 76.1804 27.5819C76.1824 29.3318 76.1864 31.0817 76.1762 32.8316C76.1779 33.0911 76.1365 33.3492 76.0537 33.5952C75.9555 33.8699 75.7731 34.1066 75.5325 34.2714C75.2918 34.4363 75.0052 34.521 74.7136 34.5134C74.4291 34.533 74.1466 34.4546 73.9129 34.2912C73.6792 34.1278 73.5085 33.8893 73.4292 33.6155C73.2788 33.1697 73.1977 32.7035 73.1886 32.2332C73.185 31.2496 73.263 30.2659 73.2946 29.2818C73.334 28.7035 73.2616 28.123 73.0814 27.572C72.7736 26.7259 72.074 26.3504 71.2016 26.56C70.9868 26.6119 70.7877 26.7147 70.621 26.8597C70.4542 27.0047 70.3248 27.1876 70.2435 27.3931C70.0358 27.8735 69.9385 28.3943 69.9586 28.9172C69.9746 29.9341 70.023 30.9505 70.0496 31.9673C70.0894 32.5542 69.9979 33.1427 69.7815 33.6898C69.7106 33.8618 69.6049 34.0173 69.4711 34.1466C69.3373 34.2758 69.1783 34.3761 69.004 34.4411C68.8296 34.5061 68.6437 34.5344 68.458 34.5242C68.2722 34.5141 68.0905 34.4657 67.9243 34.3821C67.6741 34.2678 67.4614 34.0851 67.3107 33.855C67.1601 33.6249 67.0777 33.3568 67.0731 33.0819C67.0536 32.7901 67.067 32.4961 67.067 32.2031C67.0668 30.0625 67.0662 27.9219 67.0654 25.7813C67.0508 25.4375 67.1459 25.0978 67.3371 24.8116C67.4836 24.6134 67.6754 24.4531 67.8965 24.344C68.1176 24.2349 68.3615 24.1801 68.608 24.1844C68.8544 24.1886 69.0964 24.2516 69.3135 24.3682C69.5307 24.4848 69.7169 24.6516 69.8567 24.8547C69.9048 24.9281 69.9497 25.0035 70.0124 25.1041Z" fill="#12133D"/>
<path d="M82.0701 24.0037C82.855 23.9881 83.6337 24.1459 84.3507 24.4659C85.1743 24.8538 85.5342 25.4773 85.394 26.2508C85.375 26.4217 85.3198 26.5865 85.2321 26.7343C85.1444 26.8822 85.0262 27.0096 84.8853 27.1082C84.7445 27.2067 84.5842 27.2741 84.4153 27.3059C84.2463 27.3377 84.0726 27.3331 83.9055 27.2924C83.6904 27.2524 83.4807 27.182 83.2699 27.1208C83.0591 27.0596 82.8527 26.9811 82.6397 26.9297C81.384 26.6266 80.3043 27.2907 80.0151 28.5491C79.8464 29.218 79.8942 29.9232 80.1516 30.5632C80.5812 31.6069 81.414 32.0347 82.5097 31.7671C82.9439 31.661 83.3662 31.5056 83.8009 31.4023C84.4689 31.2436 84.9108 31.4343 85.2345 31.9856C85.3834 32.2364 85.4467 32.5288 85.4148 32.8187C85.3828 33.1086 85.2574 33.3802 85.0574 33.5925C84.6391 34.0209 84.1078 34.3219 83.5253 34.4604C80.128 35.4554 77.6057 33.338 77.0911 30.5552C76.8162 29.0683 76.9762 27.6283 77.7827 26.3154C78.7499 24.741 80.1697 23.9671 82.0701 24.0037Z" fill="#12133D"/>
<path d="M106.048 24.2806C106.048 23.8793 106.029 23.4889 106.054 23.1013C106.066 22.6797 106.117 22.2601 106.206 21.8478C106.261 21.5467 106.425 21.2762 106.666 21.0876C106.907 20.899 107.209 20.8054 107.515 20.8244C107.816 20.8038 108.114 20.8936 108.354 21.0769C108.594 21.2602 108.759 21.5246 108.819 21.8207C108.914 22.2231 108.969 22.634 108.984 23.0473C109.011 23.4516 108.99 23.8589 108.99 24.2917C109.094 24.2976 109.181 24.3019 109.267 24.3074C109.624 24.3303 109.984 24.3313 110.337 24.3818C110.592 24.403 110.831 24.5157 111.01 24.6992C111.189 24.8827 111.296 25.1246 111.31 25.3804C111.334 25.574 111.333 25.7699 111.305 25.9631C111.287 26.2186 111.178 26.459 110.996 26.6401C110.815 26.8213 110.575 26.9309 110.319 26.9489C109.99 26.9941 109.655 26.9983 109.322 27.0203C109.218 27.0271 109.115 27.0318 108.99 27.0386V27.3507C108.99 29.1738 108.993 30.997 108.987 32.8201C108.992 33.0392 108.966 33.2579 108.91 33.4699C108.817 33.803 108.607 34.0911 108.318 34.281C108.029 34.4709 107.681 34.5497 107.338 34.5028C106.991 34.4587 106.672 34.2923 106.437 34.0335C106.202 33.7748 106.067 33.4406 106.056 33.0913C106.038 32.3755 106.049 31.659 106.048 30.9428C106.048 29.7382 106.048 28.5336 106.048 27.3291V27.0501C105.767 27.0202 105.5 27.0061 105.238 26.9612C105.014 26.9242 104.804 26.8314 104.626 26.6913C104.448 26.5512 104.308 26.3684 104.22 26.1599C104.131 25.9513 104.097 25.7239 104.12 25.4986C104.143 25.2733 104.223 25.0574 104.352 24.8711C104.45 24.7302 104.578 24.6124 104.726 24.5258C104.875 24.4392 105.04 24.3859 105.211 24.3696C105.475 24.328 105.743 24.312 106.048 24.2806Z" fill="#12133D"/>
<path d="M100.095 25.0829C100.362 24.8513 100.603 24.619 100.868 24.4198C101.216 24.1579 101.637 24.0118 102.072 24.0023C102.312 23.9933 102.552 24.0416 102.771 24.1433C102.989 24.2449 103.18 24.3969 103.329 24.5868C103.477 24.7767 103.578 24.9991 103.624 25.2357C103.67 25.4723 103.659 25.7164 103.592 25.9479C103.53 26.1559 103.416 26.3449 103.262 26.4976C103.107 26.6503 102.917 26.7617 102.708 26.8217C102.28 26.9757 101.852 27.1358 101.415 27.2626C100.598 27.4994 100.244 28.0903 100.147 28.8777C100.116 29.1854 100.104 29.4946 100.11 29.8037C100.106 30.8292 100.106 31.8548 100.11 32.8804C100.125 33.2158 100.04 33.548 99.8668 33.8355C99.7 34.1045 99.4497 34.3114 99.1541 34.4245C98.8585 34.5375 98.5339 34.5505 98.2302 34.4615C97.932 34.371 97.6696 34.1895 97.4796 33.9425C97.2897 33.6954 97.1817 33.3951 97.171 33.0837C97.1553 32.661 97.1652 32.2373 97.1652 31.814C97.1649 29.8036 97.1644 27.7931 97.1638 25.7826C97.1493 25.4387 97.2439 25.099 97.4342 24.8122C97.5807 24.614 97.7725 24.4536 97.9935 24.3444C98.2145 24.2352 98.4583 24.1803 98.7048 24.1842C98.9513 24.1882 99.1932 24.2509 99.4106 24.3671C99.628 24.4833 99.8145 24.6498 99.9546 24.8525C100.003 24.9265 100.047 25.0038 100.095 25.0829Z" fill="#12133D"/>
<path d="M128.461 30.2018C128.961 29.6145 129.449 29.017 129.963 28.4426C130.468 27.8786 131.01 27.3479 131.513 26.7828C131.751 26.5158 131.96 26.2237 132.136 25.9118C132.453 25.3456 132.302 24.9117 131.719 24.6289C131.087 24.3402 130.401 24.1869 129.706 24.179C127.941 24.1153 126.175 24.0998 124.409 24.0605C122.485 24.0176 120.57 23.8789 118.7 23.3853C117.437 23.0518 116.248 22.5594 115.262 21.666C114.564 21.0342 114.1 20.2379 113.613 19.3689C113.983 19.695 114.29 19.9828 114.614 20.2491C115.804 21.2254 117.199 21.7345 118.691 22.0175C120.506 22.3268 122.343 22.487 124.184 22.4966C125.99 22.5402 127.798 22.5339 129.606 22.5594C130.908 22.5778 132.214 22.5876 133.495 22.8565C133.861 22.9325 134.216 23.0541 134.551 23.2185C134.994 23.4384 135.102 23.8116 134.904 24.2699C134.642 24.816 134.264 25.2978 133.795 25.6813C132.484 26.8527 131.152 28.0013 129.828 29.1584C129.455 29.4852 129.08 29.811 128.704 30.136C128.649 30.1841 128.589 30.2272 128.531 30.2726L128.461 30.2018Z" fill="#12133D"/>
<path d="M124.658 33.1265C124.66 32.9249 124.701 32.7255 124.78 32.5399C124.858 32.3542 124.973 32.1858 125.116 32.0444C125.26 31.9029 125.43 31.7912 125.617 31.7155C125.804 31.6398 126.004 31.6017 126.205 31.6033C126.609 31.6091 126.993 31.7724 127.277 32.0584C127.562 32.3443 127.722 32.7301 127.726 33.1332C127.723 33.5404 127.56 33.9302 127.272 34.2178C126.984 34.5053 126.594 34.6673 126.186 34.6685C125.985 34.6677 125.785 34.6272 125.599 34.5493C125.413 34.4714 125.245 34.3575 125.103 34.2143C124.961 34.0711 124.848 33.9013 124.772 33.7146C124.696 33.528 124.657 33.3281 124.658 33.1265Z" fill="#12133D"/>
<path d="M120.729 33.1259C120.731 33.3275 120.693 33.5275 120.617 33.7144C120.542 33.9012 120.43 34.0713 120.288 34.2147C120.146 34.3581 119.978 34.472 119.792 34.55C119.606 34.6279 119.406 34.6682 119.205 34.6687C118.802 34.6691 118.415 34.5108 118.128 34.228C117.841 33.9453 117.677 33.5608 117.672 33.158C117.669 32.9564 117.706 32.7563 117.78 32.5689C117.854 32.3816 117.965 32.2108 118.106 32.0663C118.246 31.9219 118.414 31.8066 118.599 31.7272C118.785 31.6477 118.984 31.6057 119.185 31.6034C119.387 31.6011 119.587 31.6388 119.774 31.7142C119.961 31.7897 120.131 31.9014 120.274 32.043C120.418 32.1845 120.532 32.3531 120.61 32.539C120.688 32.7249 120.729 32.9243 120.729 33.1259Z" fill="#12133D"/>
<path d="M54.665 26.136C53.9522 25.0136 53.0014 24.2197 51.6387 24.0428C50.455 23.889 49.3832 24.1122 48.552 25.0536C48.5386 25.0688 48.51 25.0705 48.4797 25.0817C48.3139 24.7126 48.0107 24.4227 47.6345 24.2737C46.637 23.9217 45.6571 24.6355 45.6548 25.7419C45.6472 29.5192 45.6464 33.2966 45.6524 37.0739C45.6398 37.3443 45.7005 37.613 45.828 37.8517C45.9555 38.0903 46.1451 38.2902 46.3768 38.43C46.5265 38.5091 46.6821 38.5762 46.8423 38.6308H47.3798C47.6116 38.5811 47.8271 38.4735 48.0062 38.318C48.1852 38.1625 48.3219 37.9642 48.4035 37.7416C48.4898 37.5136 48.5552 37.2782 48.5991 37.0384C48.7508 36.2048 48.6607 35.3667 48.6256 34.5298C48.6174 34.3327 48.6244 34.135 48.6244 33.9173C48.6757 33.9501 48.7094 33.9701 48.7415 33.9924C49.4961 34.518 50.4081 34.7687 51.3253 34.7026C52.2425 34.6366 53.1092 34.2578 53.7806 33.6295C55.7672 31.7724 56.1572 28.4854 54.665 26.136ZM52.2637 30.8387C52.2276 30.9044 52.1884 30.9692 52.1461 31.0332C51.418 32.1307 49.7774 32.154 49.0805 31.0393C48.7494 30.5492 48.5696 29.9726 48.5635 29.3812C48.5573 28.7898 48.7251 28.2096 49.0459 27.7127C49.2098 27.4437 49.4403 27.2215 49.7151 27.0676C49.9899 26.9136 50.2997 26.833 50.6147 26.8335C50.9297 26.8341 51.2392 26.9158 51.5135 27.0707C51.7877 27.2257 52.0174 27.4487 52.1804 27.7182C52.2577 27.8398 52.325 27.9675 52.3816 28.1C52.5438 28.4942 52.6228 28.9176 52.6136 29.3438C52.6274 29.8638 52.5068 30.3787 52.2637 30.8387Z" fill="#12133D"/>
<path d="M96.1313 25.6966C96.1323 25.3643 96.0239 25.0408 95.823 24.776C95.6221 24.5112 95.3397 24.3198 95.0193 24.2313C94.6975 24.1445 94.3555 24.1724 94.052 24.3102C93.7486 24.448 93.5025 24.687 93.356 24.9864C93.3455 25.0056 93.3339 25.0242 93.3213 25.0421C92.957 24.7591 92.5714 24.5048 92.1678 24.2814C90.802 23.6499 88.9773 24.0538 87.8452 25.1937C85.8438 27.2087 85.6571 30.7496 87.4279 33.02C88.402 34.269 89.6674 34.8382 91.2491 34.6742C91.6419 34.6366 92.0235 34.5217 92.3718 34.3362C92.7202 34.1507 93.0284 33.8982 93.2789 33.5932C93.3254 33.6713 93.3619 33.7324 93.3982 33.7936C93.5309 34.0397 93.7352 34.2396 93.9842 34.3668C94.2331 34.494 94.5148 34.5425 94.7919 34.5059C95.0713 34.4914 95.3396 34.3914 95.5602 34.2194C95.7809 34.0473 95.9434 33.8116 96.0256 33.5441C96.0991 33.3204 96.1343 33.0859 96.1297 32.8505C96.1379 31.1007 96.1343 29.3509 96.1342 27.6011C96.1341 26.9663 96.1409 26.3313 96.1313 25.6966ZM92.7036 31.0553C92.5314 31.3031 92.3017 31.5055 92.0343 31.6452C91.7669 31.7849 91.4696 31.8578 91.1678 31.8576C90.8661 31.8575 90.5689 31.7842 90.3016 31.6442C90.0343 31.5042 89.8049 31.3016 89.633 31.0536C89.0072 30.1291 89.0065 28.5985 89.6314 27.6726C89.8005 27.417 90.0303 27.2073 90.3003 27.0624C90.5703 26.9174 90.872 26.8417 91.1785 26.842C91.4849 26.8423 91.7865 26.9186 92.0562 27.0641C92.326 27.2095 92.5554 27.4197 92.7239 27.6756C93.0424 28.172 93.2019 28.7538 93.1813 29.3432C93.2007 29.9493 93.034 30.5468 92.7036 31.0553Z" fill="#12133D"/>
<path d="M64.7071 30.3243C64.9753 30.3251 65.2428 30.2989 65.5057 30.246C65.7032 30.2203 65.8851 30.1251 66.0188 29.9776C66.1526 29.83 66.2294 29.6396 66.2357 29.4406C66.2764 28.9638 66.2577 28.4839 66.18 28.0118C65.8082 26.2019 64.8051 24.8417 63.0279 24.2528C61.2512 23.664 59.5746 23.9946 58.1596 25.2742C56.6752 26.6166 56.1607 28.3256 56.4399 30.2726C56.7085 32.145 57.6738 33.5446 59.4344 34.3155C60.4963 34.7805 61.6201 34.7837 62.7464 34.6056C63.6042 34.493 64.4317 34.2137 65.1822 33.7834C65.5261 33.5918 65.8066 33.304 65.9892 32.9552C66.4172 32.0874 65.8543 31.0402 64.951 31.0524C64.7164 31.0711 64.4868 31.1298 64.2721 31.2259C63.7862 31.4116 63.3188 31.6503 62.8255 31.8109C62.3874 31.9707 61.9182 32.0267 61.4548 31.9741C60.9914 31.9216 60.5466 31.7622 60.1554 31.5083C59.9569 31.3841 59.795 31.2092 59.6864 31.0018C59.5778 30.7943 59.5264 30.5617 59.5375 30.3278H59.8474C61.4674 30.3278 63.0873 30.3312 64.7071 30.3243ZM61.3738 26.5127C62.3256 26.4899 63.3189 27.3753 63.3107 28.2626H59.5585C59.5042 27.4439 60.4562 26.5348 61.3738 26.5127Z" fill="#12133D"/>
<path d="M44.6315 27.4853C43.9992 25.5783 42.7376 24.3229 40.6875 24.0539C38.6629 23.7883 37.0125 24.4684 35.8696 26.2045C35.0452 27.4569 34.8834 28.8546 35.0696 30.3091C35.3321 32.3595 36.9393 34.5846 39.6641 34.6988C41.2183 34.764 42.547 34.2864 43.5848 33.0945C44.5232 32.0167 44.912 30.7449 44.908 29.3349L44.976 29.3231C44.8655 28.7091 44.8259 28.0715 44.6315 27.4853ZM41.4924 31.0262C40.7991 32.156 39.143 32.1357 38.4119 31.0273C38.3291 30.9019 38.257 30.7697 38.1963 30.6322C38.0226 30.2229 37.9379 29.7813 37.9476 29.3368C37.9384 28.8984 38.0233 28.463 38.1967 28.0603C38.2574 27.9249 38.3296 27.7949 38.4124 27.6719C38.5801 27.4125 38.8105 27.1998 39.0824 27.0533C39.3543 26.9068 39.6587 26.8314 39.9675 26.8341C40.2763 26.8367 40.5795 26.9173 40.8488 27.0684C41.1181 27.2194 41.3449 27.4361 41.5081 27.6982C41.8311 28.1938 42.0017 28.7731 41.9989 29.3646C41.9961 29.9561 41.82 30.5338 41.4924 31.0262Z" fill="#12133D"/>
</svg>
