<svg width="278" height="278" viewBox="0 0 278 278" fill="none" xmlns="http://www.w3.org/2000/svg">
<rect x="0.5" y="0.5" width="277" height="277" rx="32.5" stroke="black"/>
<g clip-path="url(#clip0_4525_21025)">
<rect width="210" height="210" transform="translate(34 34)" fill="white"/>
<path d="M244 34H34V244H244V34Z" fill="white"/>
<mask id="mask0_4525_21025" style="mask-type:luminance" maskUnits="userSpaceOnUse" x="41" y="41" width="196" height="196">
<path d="M48.2812 108.76V102.04H44.9213C44.0301 102.04 43.1755 102.394 42.5454 103.024C41.9152 103.654 41.5613 104.509 41.5613 105.4C41.5613 106.291 41.9152 107.146 42.5454 107.776C43.1755 108.406 44.0301 108.76 44.9213 108.76" fill="white"/>
<path d="M41.5605 142.359H48.2805V135.639H44.9205C44.0294 135.639 43.1748 135.993 42.5447 136.623C41.9145 137.254 41.5605 138.108 41.5605 138.999" fill="white"/>
<path d="M48.2812 149.079V142.359H41.5613V145.719C41.5613 146.61 41.9152 147.465 42.5454 148.095C43.1755 148.725 44.0301 149.079 44.9213 149.079" fill="white"/>
<path d="M44.9205 169.24C46.7762 169.24 48.2805 167.735 48.2805 165.88C48.2805 164.024 46.7762 162.52 44.9205 162.52C43.0649 162.52 41.5605 164.024 41.5605 165.88C41.5605 167.735 43.0649 169.24 44.9205 169.24Z" fill="white"/>
<path d="M48.2812 182.68V175.96H44.9213C44.0301 175.96 43.1755 176.314 42.5454 176.944C41.9152 177.574 41.5613 178.429 41.5613 179.32C41.5613 180.211 41.9152 181.065 42.5454 181.696C43.1755 182.326 44.0301 182.68 44.9213 182.68" fill="white"/>
<path d="M48.2812 102.04H55.0012V95.32H51.6412C50.7501 95.32 49.8955 95.674 49.2654 96.3042C48.6352 96.9343 48.2812 97.7889 48.2812 98.68" fill="white"/>
<path d="M55.0012 102.04H48.2812V108.76H55.0012V102.04Z" fill="white"/>
<path d="M55.0012 108.76H48.2812V115.48H55.0012V108.76Z" fill="white"/>
<path d="M55.0012 115.479H48.2812V122.199H55.0012V115.479Z" fill="white"/>
<path d="M55.0012 122.199H48.2812V128.919H55.0012V122.199Z" fill="white"/>
<path d="M55.0012 128.92H48.2812V135.64H55.0012V128.92Z" fill="white"/>
<path d="M55.0012 135.64H48.2812V142.36H55.0012V135.64Z" fill="white"/>
<path d="M55.0012 142.359H48.2812V149.079H55.0012V142.359Z" fill="white"/>
<path d="M55.0012 149.079H48.2812V155.799H55.0012V149.079Z" fill="white"/>
<path d="M55 155.8H48.28V159.16C48.28 160.051 48.634 160.906 49.2641 161.536C49.8942 162.166 50.7489 162.52 51.64 162.52C52.5311 162.52 53.3858 162.166 54.0159 161.536C54.646 160.906 55 160.051 55 159.16" fill="white"/>
<path d="M48.2812 175.96H55.0012V172.6C55.0012 171.709 54.6473 170.854 54.0171 170.224C53.387 169.594 52.5324 169.24 51.6412 169.24C50.7501 169.24 49.8955 169.594 49.2654 170.224C48.6352 170.854 48.2812 171.709 48.2812 172.6" fill="white"/>
<path d="M55.0012 175.96H48.2812V182.68H55.0012V175.96Z" fill="white"/>
<path d="M55 95.3193V102.039H61.72V98.6793C61.72 97.7882 61.366 96.9336 60.7359 96.3035C60.1058 95.6733 59.2511 95.3193 58.36 95.3193" fill="white"/>
<path d="M61.72 102.04H55V108.76H61.72V102.04Z" fill="white"/>
<path d="M55 115.479V122.199H58.36C59.2511 122.199 60.1058 121.845 60.7359 121.215C61.366 120.585 61.72 119.731 61.72 118.839C61.72 117.948 61.366 117.094 60.7359 116.464C60.1058 115.833 59.2511 115.479 58.36 115.479" fill="white"/>
<path d="M61.72 128.92H55V135.64H61.72V128.92Z" fill="white"/>
<path d="M61.72 135.64H55V142.36H61.72V135.64Z" fill="white"/>
<path d="M61.72 142.359H55V149.079H61.72V142.359Z" fill="white"/>
<path d="M61.72 175.96H55V182.68H61.72V175.96Z" fill="white"/>
<path d="M68.4407 102.04H61.7207V108.76H68.4407V102.04Z" fill="white"/>
<path d="M68.4414 115.479V108.759H61.7214V112.119C61.7214 113.011 62.0754 113.865 62.7055 114.495C63.3357 115.125 64.1903 115.479 65.0814 115.479" fill="white"/>
<path d="M61.7207 128.92H68.4407V125.56C68.4407 124.669 68.0867 123.814 67.4566 123.184C66.8265 122.554 65.9718 122.2 65.0807 122.2C64.1896 122.2 63.3349 122.554 62.7048 123.184C62.0747 123.814 61.7207 124.669 61.7207 125.56" fill="white"/>
<path d="M68.4407 128.92H61.7207V135.64H68.4407V128.92Z" fill="white"/>
<path d="M68.4407 135.64H61.7207V142.36H68.4407V135.64Z" fill="white"/>
<path d="M68.4407 142.359H61.7207V149.079H68.4407V142.359Z" fill="white"/>
<path d="M68.4407 149.079H61.7207V155.799H68.4407V149.079Z" fill="white"/>
<path d="M68.4407 155.8H61.7207V162.52H68.4407V155.8Z" fill="white"/>
<path d="M68.4407 162.52H61.7207V169.24H68.4407V162.52Z" fill="white"/>
<path d="M68.4407 169.239H61.7207V175.959H68.4407V169.239Z" fill="white"/>
<path d="M68.4414 175.96H61.7214V182.68H65.0814C65.9725 182.68 66.8272 182.326 67.4573 181.696C68.0874 181.066 68.4414 180.211 68.4414 179.32" fill="white"/>
<path d="M75.1614 102.04H68.4414V108.76H75.1614V102.04Z" fill="white"/>
<path d="M75.1614 108.76H68.4414V115.48H75.1614V108.76Z" fill="white"/>
<path d="M75.1602 122.199V115.479H68.4402V118.839C68.4402 119.73 68.7942 120.585 69.4243 121.215C70.0544 121.845 70.909 122.199 71.8002 122.199" fill="white"/>
<path d="M75.1614 128.92H68.4414V135.64H75.1614V128.92Z" fill="white"/>
<path d="M68.4414 142.359V149.079H75.1614V145.719C75.1614 144.828 74.8074 143.974 74.1773 143.343C73.5472 142.713 72.6925 142.359 71.8014 142.359" fill="white"/>
<path d="M75.1614 149.079H68.4414V155.799H75.1614V149.079Z" fill="white"/>
<path d="M75.1602 155.8H68.4402V162.52H71.8002C72.6913 162.52 73.5459 162.166 74.176 161.536C74.8062 160.906 75.1602 160.051 75.1602 159.16" fill="white"/>
<path d="M75.1614 169.239H68.4414V175.959H75.1614V169.239Z" fill="white"/>
<path d="M75.1602 102.04V108.76H81.8802V105.4C81.8802 104.509 81.5262 103.654 80.896 103.024C80.2659 102.394 79.4113 102.04 78.5202 102.04" fill="white"/>
<path d="M81.8802 108.76H75.1602V115.48H81.8802V108.76Z" fill="white"/>
<path d="M81.8809 115.479H75.1609V122.199H78.5209C79.412 122.199 80.2666 121.845 80.8967 121.215C81.5269 120.585 81.8809 119.731 81.8809 118.839" fill="white"/>
<path d="M75.1602 128.92V135.64H78.5202C79.4113 135.64 80.2659 135.286 80.896 134.656C81.5262 134.026 81.8802 133.171 81.8802 132.28C81.8802 131.389 81.5262 130.534 80.896 129.904C80.2659 129.274 79.4113 128.92 78.5202 128.92" fill="white"/>
<path d="M75.1602 169.239V175.959H78.5202C79.4113 175.959 80.2659 175.605 80.896 174.975C81.5262 174.345 81.8802 173.49 81.8802 172.599C81.8802 171.708 81.5262 170.853 80.896 170.223C80.2659 169.593 79.4113 169.239 78.5202 169.239" fill="white"/>
<path d="M85.2409 102.039C87.0965 102.039 88.6009 100.535 88.6009 98.6793C88.6009 96.8237 87.0965 95.3193 85.2409 95.3193C83.3852 95.3193 81.8809 96.8237 81.8809 98.6793C81.8809 100.535 83.3852 102.039 85.2409 102.039Z" fill="white"/>
<path d="M88.6009 108.76H81.8809V115.48H88.6009V108.76Z" fill="white"/>
<path d="M85.2409 128.919C87.0965 128.919 88.6009 127.415 88.6009 125.559C88.6009 123.704 87.0965 122.199 85.2409 122.199C83.3852 122.199 81.8809 123.704 81.8809 125.559C81.8809 127.415 83.3852 128.919 85.2409 128.919Z" fill="white"/>
<path d="M88.5996 142.359V135.639H85.2396C84.3485 135.639 83.4939 135.993 82.8637 136.623C82.2336 137.254 81.8796 138.108 81.8796 138.999C81.8796 139.891 82.2336 140.745 82.8637 141.375C83.4939 142.005 84.3485 142.359 85.2396 142.359" fill="white"/>
<path d="M88.5996 155.8V149.08H85.2396C84.3485 149.08 83.4939 149.434 82.8637 150.064C82.2336 150.694 81.8796 151.549 81.8796 152.44C81.8796 153.331 82.2336 154.186 82.8637 154.816C83.4939 155.446 84.3485 155.8 85.2396 155.8" fill="white"/>
<path d="M88.5996 169.239V162.519H85.2396C84.3485 162.519 83.4939 162.873 82.8637 163.503C82.2336 164.133 81.8796 164.988 81.8796 165.879C81.8796 166.77 82.2336 167.625 82.8637 168.255C83.4939 168.885 84.3485 169.239 85.2396 169.239" fill="white"/>
<path d="M88.5996 182.68V175.96H85.2396C84.3485 175.96 83.4939 176.314 82.8637 176.944C82.2336 177.574 81.8796 178.429 81.8796 179.32C81.8796 180.211 82.2336 181.065 82.8637 181.696C83.4939 182.326 84.3485 182.68 85.2396 182.68" fill="white"/>
<path d="M88.5996 108.76H95.3196V102.04H91.9596C91.0685 102.04 90.2139 102.394 89.5837 103.024C88.9536 103.654 88.5996 104.509 88.5996 105.4" fill="white"/>
<path d="M95.3196 108.76H88.5996V115.48H95.3196V108.76Z" fill="white"/>
<path d="M95.3203 122.199V115.479H88.6003V118.839C88.6003 119.73 88.9543 120.585 89.5844 121.215C90.2146 121.845 91.0692 122.199 91.9603 122.199" fill="white"/>
<path d="M88.5996 135.64V142.36H95.3196V139C95.3196 138.109 94.9656 137.254 94.3355 136.624C93.7054 135.994 92.8507 135.64 91.9596 135.64" fill="white"/>
<path d="M95.3196 142.359H88.5996V149.079H95.3196V142.359Z" fill="white"/>
<path d="M95.3196 149.079H88.5996V155.799H95.3196V149.079Z" fill="white"/>
<path d="M95.3196 155.8H88.5996V162.52H95.3196V155.8Z" fill="white"/>
<path d="M95.3203 162.52H88.6003V169.24H91.9603C92.8514 169.24 93.7061 168.886 94.3362 168.255C94.9663 167.625 95.3203 166.771 95.3203 165.88" fill="white"/>
<path d="M88.5996 175.96V182.68H91.9596C92.8507 182.68 93.7054 182.326 94.3355 181.696C94.9656 181.066 95.3196 180.211 95.3196 179.32C95.3196 178.429 94.9656 177.574 94.3355 176.944C93.7054 176.314 92.8507 175.96 91.9596 175.96" fill="white"/>
<path d="M95.3203 55H102.04V48.28H98.6803C97.7892 48.28 96.9346 48.634 96.3044 49.2641C95.6743 49.8942 95.3203 50.7489 95.3203 51.64" fill="white"/>
<path d="M102.04 55H95.3203V61.72H102.04V55Z" fill="white"/>
<path d="M102.041 61.7197H95.321V65.0797C95.321 65.9709 95.675 66.8255 96.3051 67.4556C96.9353 68.0857 97.7899 68.4397 98.681 68.4397C99.5721 68.4397 100.427 68.0857 101.057 67.4556C101.687 66.8255 102.041 65.9709 102.041 65.0797" fill="white"/>
<path d="M95.3203 81.8799H102.04V75.1599H98.6803C97.7892 75.1599 96.9346 75.5139 96.3044 76.144C95.6743 76.7741 95.3203 77.6288 95.3203 78.5199" fill="white"/>
<path d="M102.041 81.8799H95.321V85.2399C95.321 86.131 95.675 86.9856 96.3051 87.6158C96.9353 88.2459 97.7899 88.5999 98.681 88.5999C99.5721 88.5999 100.427 88.2459 101.057 87.6158C101.687 86.9856 102.041 86.131 102.041 85.2399" fill="white"/>
<path d="M102.04 102.04H95.3203V108.76H102.04V102.04Z" fill="white"/>
<path d="M95.3203 115.479V122.199H98.6803C99.5714 122.199 100.426 121.845 101.056 121.215C101.686 120.585 102.04 119.731 102.04 118.839C102.04 117.948 101.686 117.094 101.056 116.464C100.426 115.833 99.5714 115.479 98.6803 115.479" fill="white"/>
<path d="M98.6803 175.959C100.536 175.959 102.04 174.455 102.04 172.599C102.04 170.744 100.536 169.239 98.6803 169.239C96.8246 169.239 95.3203 170.744 95.3203 172.599C95.3203 174.455 96.8246 175.959 98.6803 175.959Z" fill="white"/>
<path d="M95.3203 223H102.04V219.64C102.04 218.749 101.686 217.894 101.056 217.264C100.426 216.634 99.5714 216.28 98.6803 216.28C97.7892 216.28 96.9346 216.634 96.3044 217.264C95.6743 217.894 95.3203 218.749 95.3203 219.64" fill="white"/>
<path d="M102.041 223H95.321V226.36C95.321 227.251 95.675 228.106 96.3051 228.736C96.9353 229.366 97.7899 229.72 98.681 229.72C99.5721 229.72 100.427 229.366 101.057 228.736C101.687 228.106 102.041 227.251 102.041 226.36" fill="white"/>
<path d="M102.041 48.2793H108.761V41.5593H105.401C104.51 41.5593 103.655 41.9133 103.025 42.5434C102.395 43.1735 102.041 44.0282 102.041 44.9193" fill="white"/>
<path d="M108.76 48.2793H102.04V54.9993H105.4C106.291 54.9993 107.146 54.6453 107.776 54.0152C108.406 53.3851 108.76 52.5304 108.76 51.6393" fill="white"/>
<path d="M108.761 75.1592H102.041V81.8792H108.761V75.1592Z" fill="white"/>
<path d="M102.041 95.3193H108.761V88.5993H105.401C104.51 88.5993 103.655 88.9533 103.025 89.5835C102.395 90.2136 102.041 91.0682 102.041 91.9593" fill="white"/>
<path d="M108.761 95.3193H102.041V102.039H108.761V95.3193Z" fill="white"/>
<path d="M108.761 102.04H102.041V108.76H108.761V102.04Z" fill="white"/>
<path d="M108.76 115.479V108.759H102.04V112.119C102.04 113.011 102.394 113.865 103.024 114.495C103.654 115.125 104.509 115.479 105.4 115.479" fill="white"/>
<path d="M102.041 128.92H108.761V125.56C108.761 124.669 108.407 123.814 107.777 123.184C107.147 122.554 106.292 122.2 105.401 122.2C104.51 122.2 103.655 122.554 103.025 123.184C102.395 123.814 102.041 124.669 102.041 125.56" fill="white"/>
<path d="M108.76 135.64V128.92H102.04V132.28C102.04 133.171 102.394 134.025 103.024 134.656C103.654 135.286 104.509 135.64 105.4 135.64" fill="white"/>
<path d="M102.041 155.8H108.761V152.44C108.761 151.549 108.407 150.694 107.777 150.064C107.147 149.434 106.292 149.08 105.401 149.08C104.51 149.08 103.655 149.434 103.025 150.064C102.395 150.694 102.041 151.549 102.041 152.44" fill="white"/>
<path d="M108.76 155.8H102.04V159.16C102.04 160.051 102.394 160.906 103.024 161.536C103.654 162.166 104.509 162.52 105.4 162.52C106.291 162.52 107.146 162.166 107.776 161.536C108.406 160.906 108.76 160.051 108.76 159.16" fill="white"/>
<path d="M102.041 189.399H108.761V186.039C108.761 185.148 108.407 184.294 107.777 183.664C107.147 183.033 106.292 182.679 105.401 182.679C104.51 182.679 103.655 183.033 103.025 183.664C102.395 184.294 102.041 185.148 102.041 186.039" fill="white"/>
<path d="M108.761 189.399H102.041V196.119H108.761V189.399Z" fill="white"/>
<path d="M108.761 196.119H102.041V202.839H108.761V196.119Z" fill="white"/>
<path d="M108.76 202.84H102.04V206.2C102.04 207.091 102.394 207.946 103.024 208.576C103.654 209.206 104.509 209.56 105.4 209.56C106.291 209.56 107.146 209.206 107.776 208.576C108.406 207.946 108.76 207.091 108.76 206.2" fill="white"/>
<path d="M105.401 236.44C107.257 236.44 108.761 234.935 108.761 233.08C108.761 231.224 107.257 229.72 105.401 229.72C103.545 229.72 102.041 231.224 102.041 233.08C102.041 234.935 103.545 236.44 105.401 236.44Z" fill="white"/>
<path d="M115.48 41.5596H108.76V48.2796H115.48V41.5596Z" fill="white"/>
<path d="M108.76 61.7197H115.48V58.3597C115.48 57.4686 115.126 56.614 114.496 55.9838C113.866 55.3537 113.011 54.9997 112.12 54.9997C111.229 54.9997 110.374 55.3537 109.744 55.9838C109.114 56.614 108.76 57.4686 108.76 58.3597" fill="white"/>
<path d="M115.48 61.7197H108.76V68.4397H115.48V61.7197Z" fill="white"/>
<path d="M115.48 68.4395H108.76V75.1595H115.48V68.4395Z" fill="white"/>
<path d="M115.48 75.1592H108.76V81.8792H115.48V75.1592Z" fill="white"/>
<path d="M115.48 81.8799H108.76V88.5999H115.48V81.8799Z" fill="white"/>
<path d="M115.48 88.5996H108.76V95.3196H115.48V88.5996Z" fill="white"/>
<path d="M115.48 95.3193H108.76V102.039H112.12C113.012 102.039 113.866 101.685 114.496 101.055C115.126 100.425 115.48 99.5705 115.48 98.6793" fill="white"/>
<path d="M115.48 108.76H108.76V115.48H115.48V108.76Z" fill="white"/>
<path d="M115.48 115.479H108.76V118.839C108.76 119.731 109.114 120.585 109.745 121.215C110.375 121.845 111.229 122.199 112.12 122.199C113.012 122.199 113.866 121.845 114.496 121.215C115.126 120.585 115.48 119.731 115.48 118.839" fill="white"/>
<path d="M115.48 128.92H108.76V135.64H115.48V128.92Z" fill="white"/>
<path d="M115.48 149.079V142.359H112.12C111.229 142.359 110.375 142.713 109.745 143.343C109.114 143.973 108.76 144.828 108.76 145.719C108.76 146.61 109.114 147.465 109.745 148.095C110.375 148.725 111.229 149.079 112.12 149.079" fill="white"/>
<path d="M112.12 169.24C113.975 169.24 115.48 167.735 115.48 165.88C115.48 164.024 113.975 162.52 112.12 162.52C110.264 162.52 108.76 164.024 108.76 165.88C108.76 167.735 110.264 169.24 112.12 169.24Z" fill="white"/>
<path d="M112.12 182.68C113.975 182.68 115.48 181.176 115.48 179.32C115.48 177.464 113.975 175.96 112.12 175.96C110.264 175.96 108.76 177.464 108.76 179.32C108.76 181.176 110.264 182.68 112.12 182.68Z" fill="white"/>
<path d="M108.76 189.399V196.119H112.12C113.011 196.119 113.866 195.765 114.496 195.135C115.126 194.505 115.48 193.651 115.48 192.759C115.48 191.868 115.126 191.014 114.496 190.384C113.866 189.753 113.011 189.399 112.12 189.399" fill="white"/>
<path d="M108.76 216.279H115.48V212.919C115.48 212.028 115.126 211.174 114.496 210.543C113.866 209.913 113.011 209.559 112.12 209.559C111.229 209.559 110.374 209.913 109.744 210.543C109.114 211.174 108.76 212.028 108.76 212.919" fill="white"/>
<path d="M115.48 216.279H108.76V222.999H115.48V216.279Z" fill="white"/>
<path d="M115.48 223H108.76V226.36C108.76 227.251 109.114 228.106 109.745 228.736C110.375 229.366 111.229 229.72 112.12 229.72C113.012 229.72 113.866 229.366 114.496 228.736C115.126 228.106 115.48 227.251 115.48 226.36" fill="white"/>
<path d="M122.2 41.5596H115.48V48.2796H122.2V41.5596Z" fill="white"/>
<path d="M122.201 55V48.28H115.481V51.64C115.481 52.5311 115.835 53.3858 116.465 54.0159C117.095 54.646 117.95 55 118.841 55" fill="white"/>
<path d="M122.2 68.4395H115.48V75.1595H122.2V68.4395Z" fill="white"/>
<path d="M122.2 108.76H115.48V115.48H122.2V108.76Z" fill="white"/>
<path d="M122.2 128.92H115.48V135.64H122.2V128.92Z" fill="white"/>
<path d="M122.2 135.64H115.48V142.36H122.2V135.64Z" fill="white"/>
<path d="M122.2 142.359H115.48V149.079H122.2V142.359Z" fill="white"/>
<path d="M118.84 175.959C120.696 175.959 122.2 174.455 122.2 172.599C122.2 170.744 120.696 169.239 118.84 169.239C116.985 169.239 115.48 170.744 115.48 172.599C115.48 174.455 116.985 175.959 118.84 175.959Z" fill="white"/>
<path d="M118.84 209.56C120.696 209.56 122.2 208.056 122.2 206.2C122.2 204.344 120.696 202.84 118.84 202.84C116.985 202.84 115.48 204.344 115.48 206.2C115.48 208.056 116.985 209.56 118.84 209.56Z" fill="white"/>
<path d="M122.201 236.439V229.719H118.841C117.95 229.719 117.095 230.073 116.465 230.704C115.835 231.334 115.481 232.188 115.481 233.079C115.481 233.971 115.835 234.825 116.465 235.455C117.095 236.085 117.95 236.439 118.841 236.439" fill="white"/>
<path d="M122.201 41.5596V48.2796H128.921V44.9196C128.921 44.0284 128.567 43.1738 127.937 42.5437C127.307 41.9136 126.452 41.5596 125.561 41.5596" fill="white"/>
<path d="M128.921 48.2793H122.201V54.9993H128.921V48.2793Z" fill="white"/>
<path d="M128.921 55H122.201V61.72H128.921V55Z" fill="white"/>
<path d="M128.921 61.7197H122.201V68.4397H128.921V61.7197Z" fill="white"/>
<path d="M128.921 68.4395H122.201V75.1595H128.921V68.4395Z" fill="white"/>
<path d="M128.921 75.1592H122.201V81.8792H128.921V75.1592Z" fill="white"/>
<path d="M128.92 81.8799H122.2V85.2399C122.2 86.131 122.554 86.9856 123.184 87.6158C123.814 88.2459 124.669 88.5999 125.56 88.5999C126.451 88.5999 127.306 88.2459 127.936 87.6158C128.566 86.9856 128.92 86.131 128.92 85.2399" fill="white"/>
<path d="M122.201 108.76V115.48H125.561C126.452 115.48 127.307 115.126 127.937 114.496C128.567 113.866 128.921 113.011 128.921 112.12C128.921 111.229 128.567 110.374 127.937 109.744C127.307 109.114 126.452 108.76 125.561 108.76" fill="white"/>
<path d="M122.201 128.92H128.921V125.56C128.921 124.669 128.567 123.814 127.937 123.184C127.307 122.554 126.452 122.2 125.561 122.2C124.67 122.2 123.815 122.554 123.185 123.184C122.555 123.814 122.201 124.669 122.201 125.56" fill="white"/>
<path d="M128.921 128.92H122.201V135.64H128.921V128.92Z" fill="white"/>
<path d="M128.921 135.64H122.201V142.36H128.921V135.64Z" fill="white"/>
<path d="M128.921 142.359H122.201V149.079H128.921V142.359Z" fill="white"/>
<path d="M128.921 149.079H122.201V155.799H128.921V149.079Z" fill="white"/>
<path d="M128.92 155.8H122.2V159.16C122.2 160.051 122.554 160.906 123.184 161.536C123.814 162.166 124.669 162.52 125.56 162.52C126.451 162.52 127.306 162.166 127.936 161.536C128.566 160.906 128.92 160.051 128.92 159.16" fill="white"/>
<path d="M122.201 182.68H128.921V179.32C128.921 178.429 128.567 177.574 127.937 176.944C127.307 176.314 126.452 175.96 125.561 175.96C124.67 175.96 123.815 176.314 123.185 176.944C122.555 177.574 122.201 178.429 122.201 179.32" fill="white"/>
<path d="M128.92 182.68H122.2V186.04C122.2 186.931 122.554 187.785 123.184 188.416C123.814 189.046 124.669 189.4 125.56 189.4C126.451 189.4 127.306 189.046 127.936 188.416C128.566 187.785 128.92 186.931 128.92 186.04" fill="white"/>
<path d="M128.92 202.84V196.12H125.56C124.669 196.12 123.814 196.474 123.184 197.104C122.554 197.734 122.2 198.589 122.2 199.48C122.2 200.371 122.554 201.226 123.184 201.856C123.814 202.486 124.669 202.84 125.56 202.84" fill="white"/>
<path d="M122.201 223H128.921V216.28H125.561C124.67 216.28 123.815 216.634 123.185 217.264C122.555 217.894 122.201 218.749 122.201 219.64" fill="white"/>
<path d="M128.921 223H122.201V229.72H128.921V223Z" fill="white"/>
<path d="M128.921 229.72H122.201V236.44H128.921V229.72Z" fill="white"/>
<path d="M135.64 61.7197H128.92V68.4397H135.64V61.7197Z" fill="white"/>
<path d="M135.64 75.1592H128.92V81.8792H135.64V75.1592Z" fill="white"/>
<path d="M135.641 95.3193V88.5993H132.281C131.389 88.5993 130.535 88.9533 129.905 89.5835C129.275 90.2136 128.921 91.0682 128.921 91.9593C128.921 92.8505 129.275 93.7051 129.905 94.3352C130.535 94.9653 131.389 95.3193 132.281 95.3193" fill="white"/>
<path d="M132.28 108.76C134.136 108.76 135.64 107.256 135.64 105.4C135.64 103.544 134.136 102.04 132.28 102.04C130.424 102.04 128.92 103.544 128.92 105.4C128.92 107.256 130.424 108.76 132.28 108.76Z" fill="white"/>
<path d="M128.92 128.92V135.64H132.28C133.171 135.64 134.026 135.286 134.656 134.656C135.286 134.026 135.64 133.171 135.64 132.28C135.64 131.389 135.286 130.534 134.656 129.904C134.026 129.274 133.171 128.92 132.28 128.92" fill="white"/>
<path d="M128.92 142.359V149.079H135.64V145.719C135.64 144.828 135.286 143.974 134.656 143.343C134.026 142.713 133.171 142.359 132.28 142.359" fill="white"/>
<path d="M135.64 149.079H128.92V155.799H135.64V149.079Z" fill="white"/>
<path d="M135.641 175.96V169.24H132.281C131.389 169.24 130.535 169.594 129.905 170.224C129.275 170.854 128.921 171.709 128.921 172.6C128.921 173.491 129.275 174.346 129.905 174.976C130.535 175.606 131.389 175.96 132.281 175.96" fill="white"/>
<path d="M128.92 196.119H135.64V189.399H132.28C131.389 189.399 130.534 189.753 129.904 190.383C129.274 191.013 128.92 191.868 128.92 192.759" fill="white"/>
<path d="M135.64 196.119H128.92V202.839H135.64V196.119Z" fill="white"/>
<path d="M128.92 216.279H135.64V209.559H132.28C131.389 209.559 130.534 209.913 129.904 210.543C129.274 211.174 128.92 212.028 128.92 212.919" fill="white"/>
<path d="M135.641 216.279H128.921V222.999H132.281C133.172 222.999 134.026 222.645 134.657 222.015C135.287 221.385 135.641 220.53 135.641 219.639" fill="white"/>
<path d="M135.64 229.72H128.92V236.44H135.64V229.72Z" fill="white"/>
<path d="M135.641 61.7197H142.361V54.9997H139.001C138.109 54.9997 137.255 55.3537 136.625 55.9838C135.995 56.614 135.641 57.4686 135.641 58.3597" fill="white"/>
<path d="M142.361 61.7197H135.641V68.4397H142.361V61.7197Z" fill="white"/>
<path d="M135.641 75.1592V81.8792H142.361V78.5192C142.361 77.6281 142.007 76.7734 141.377 76.1433C140.746 75.5132 139.892 75.1592 139.001 75.1592" fill="white"/>
<path d="M142.361 81.8799H135.641V88.5999H142.361V81.8799Z" fill="white"/>
<path d="M142.361 88.5996H135.641V95.3196H139.001C139.892 95.3196 140.747 94.9656 141.377 94.3355C142.007 93.7054 142.361 92.8507 142.361 91.9596" fill="white"/>
<path d="M142.361 115.479V108.759H139.001C138.11 108.759 137.256 109.113 136.625 109.744C135.995 110.374 135.641 111.228 135.641 112.119C135.641 113.011 135.995 113.865 136.625 114.495C137.256 115.125 138.11 115.479 139.001 115.479" fill="white"/>
<path d="M139.001 128.919C140.856 128.919 142.361 127.415 142.361 125.559C142.361 123.704 140.856 122.199 139.001 122.199C137.145 122.199 135.641 123.704 135.641 125.559C135.641 127.415 137.145 128.919 139.001 128.919Z" fill="white"/>
<path d="M142.361 149.079H135.641V155.799H142.361V149.079Z" fill="white"/>
<path d="M142.361 155.8H135.641V162.52H142.361V155.8Z" fill="white"/>
<path d="M142.361 162.52H135.641V169.24H142.361V162.52Z" fill="white"/>
<path d="M142.361 169.239H135.641V175.959H142.361V169.239Z" fill="white"/>
<path d="M142.361 175.96H135.641V182.68H142.361V175.96Z" fill="white"/>
<path d="M142.361 182.68H135.641V189.4H142.361V182.68Z" fill="white"/>
<path d="M142.361 189.399H135.641V196.119H142.361V189.399Z" fill="white"/>
<path d="M142.361 196.119H135.641V202.839H142.361V196.119Z" fill="white"/>
<path d="M142.361 202.84H135.641V209.56H142.361V202.84Z" fill="white"/>
<path d="M142.361 209.56H135.641V216.28H142.361V209.56Z" fill="white"/>
<path d="M135.641 229.72H142.361V223H139.001C138.109 223 137.255 223.354 136.625 223.984C135.995 224.614 135.641 225.469 135.641 226.36" fill="white"/>
<path d="M142.361 229.72H135.641V236.44H142.361V229.72Z" fill="white"/>
<path d="M142.361 55H149.081V51.64C149.081 50.7489 148.727 49.8942 148.097 49.2641C147.467 48.634 146.612 48.28 145.721 48.28C144.83 48.28 143.976 48.634 143.345 49.2641C142.715 49.8942 142.361 50.7489 142.361 51.64" fill="white"/>
<path d="M149.081 55H142.361V61.72H149.081V55Z" fill="white"/>
<path d="M149.08 61.7197H142.36V68.4397H145.72C146.611 68.4397 147.466 68.0857 148.096 67.4556C148.726 66.8255 149.08 65.9709 149.08 65.0797" fill="white"/>
<path d="M145.721 102.039C147.577 102.039 149.081 100.535 149.081 98.6793C149.081 96.8237 147.577 95.3193 145.721 95.3193C143.866 95.3193 142.361 96.8237 142.361 98.6793C142.361 100.535 143.866 102.039 145.721 102.039Z" fill="white"/>
<path d="M149.081 108.76H142.361V115.48H149.081V108.76Z" fill="white"/>
<path d="M142.361 142.359H149.081V138.999C149.081 138.108 148.727 137.254 148.097 136.623C147.467 135.993 146.612 135.639 145.721 135.639C144.83 135.639 143.976 135.993 143.345 136.623C142.715 137.254 142.361 138.108 142.361 138.999" fill="white"/>
<path d="M149.081 142.359H142.361V149.079H149.081V142.359Z" fill="white"/>
<path d="M149.081 149.079H142.361V155.799H149.081V149.079Z" fill="white"/>
<path d="M149.081 155.8H142.361V162.52H149.081V155.8Z" fill="white"/>
<path d="M149.081 162.52H142.361V169.24H149.081V162.52Z" fill="white"/>
<path d="M142.361 189.399V196.119H145.721C146.612 196.119 147.467 195.765 148.097 195.135C148.727 194.505 149.081 193.651 149.081 192.759C149.081 191.868 148.727 191.014 148.097 190.384C147.467 189.753 146.612 189.399 145.721 189.399" fill="white"/>
<path d="M149.081 202.84H142.361V209.56H149.081V202.84Z" fill="white"/>
<path d="M149.081 209.56H142.361V216.28H149.081V209.56Z" fill="white"/>
<path d="M149.081 223H142.361V229.72H149.081V223Z" fill="white"/>
<path d="M149.081 229.72H142.361V236.44H149.081V229.72Z" fill="white"/>
<path d="M155.8 55H149.08V61.72H155.8V55Z" fill="white"/>
<path d="M152.44 88.5999C154.296 88.5999 155.8 87.0956 155.8 85.2399C155.8 83.3842 154.296 81.8799 152.44 81.8799C150.584 81.8799 149.08 83.3842 149.08 85.2399C149.08 87.0956 150.584 88.5999 152.44 88.5999Z" fill="white"/>
<path d="M155.8 108.76H149.08V115.48H155.8V108.76Z" fill="white"/>
<path d="M149.08 128.92H155.8V125.56C155.8 124.669 155.446 123.814 154.816 123.184C154.186 122.554 153.331 122.2 152.44 122.2C151.549 122.2 150.694 122.554 150.064 123.184C149.434 123.814 149.08 124.669 149.08 125.56" fill="white"/>
<path d="M155.801 128.92H149.081V132.28C149.081 133.171 149.435 134.026 150.065 134.656C150.695 135.286 151.55 135.64 152.441 135.64C153.332 135.64 154.187 135.286 154.817 134.656C155.447 134.026 155.801 133.171 155.801 132.28" fill="white"/>
<path d="M155.8 149.079H149.08V155.799H155.8V149.079Z" fill="white"/>
<path d="M155.8 155.8H149.08V162.52H155.8V155.8Z" fill="white"/>
<path d="M155.801 162.52H149.081V169.24H152.441C153.332 169.24 154.187 168.886 154.817 168.255C155.447 167.625 155.801 166.771 155.801 165.88" fill="white"/>
<path d="M152.44 189.4C154.296 189.4 155.8 187.895 155.8 186.04C155.8 184.184 154.296 182.68 152.44 182.68C150.584 182.68 149.08 184.184 149.08 186.04C149.08 187.895 150.584 189.4 152.44 189.4Z" fill="white"/>
<path d="M149.08 202.84H155.8V196.12H152.44C151.549 196.12 150.694 196.474 150.064 197.104C149.434 197.734 149.08 198.589 149.08 199.48" fill="white"/>
<path d="M155.8 202.84H149.08V209.56H155.8V202.84Z" fill="white"/>
<path d="M155.8 209.56H149.08V216.28H155.8V209.56Z" fill="white"/>
<path d="M149.08 223V229.72H155.8V226.36C155.8 225.469 155.446 224.614 154.816 223.984C154.186 223.354 153.331 223 152.44 223" fill="white"/>
<path d="M155.801 229.72H149.081V236.44H152.441C153.332 236.44 154.187 236.086 154.817 235.456C155.447 234.825 155.801 233.971 155.801 233.08" fill="white"/>
<path d="M162.521 55H155.801V61.72H162.521V55Z" fill="white"/>
<path d="M159.161 95.3196C161.016 95.3196 162.521 93.8153 162.521 91.9596C162.521 90.1039 161.016 88.5996 159.161 88.5996C157.305 88.5996 155.801 90.1039 155.801 91.9596C155.801 93.8153 157.305 95.3196 159.161 95.3196Z" fill="white"/>
<path d="M155.801 108.76H162.521V102.04H159.161C158.27 102.04 157.415 102.394 156.785 103.024C156.155 103.654 155.801 104.509 155.801 105.4" fill="white"/>
<path d="M162.521 108.76H155.801V115.48H162.521V108.76Z" fill="white"/>
<path d="M162.521 149.079H155.801V155.799H162.521V149.079Z" fill="white"/>
<path d="M162.521 182.68V175.96H159.161C158.27 175.96 157.416 176.314 156.786 176.944C156.155 177.574 155.801 178.429 155.801 179.32C155.801 180.211 156.155 181.065 156.786 181.696C157.416 182.326 158.27 182.68 159.161 182.68" fill="white"/>
<path d="M162.521 196.119H155.801V202.839H162.521V196.119Z" fill="white"/>
<path d="M162.521 209.56H155.801V216.28H162.521V209.56Z" fill="white"/>
<path d="M162.521 216.279H155.801V219.639C155.801 220.53 156.155 221.385 156.786 222.015C157.416 222.645 158.27 222.999 159.161 222.999C160.053 222.999 160.907 222.645 161.537 222.015C162.167 221.385 162.521 220.53 162.521 219.639" fill="white"/>
<path d="M165.881 48.2796C167.737 48.2796 169.241 46.7752 169.241 44.9196C169.241 43.0639 167.737 41.5596 165.881 41.5596C164.026 41.5596 162.521 43.0639 162.521 44.9196C162.521 46.7752 164.026 48.2796 165.881 48.2796Z" fill="white"/>
<path d="M169.241 55H162.521V61.72H169.241V55Z" fill="white"/>
<path d="M165.881 75.1595C167.737 75.1595 169.241 73.6551 169.241 71.7995C169.241 69.9438 167.737 68.4395 165.881 68.4395C164.026 68.4395 162.521 69.9438 162.521 71.7995C162.521 73.6551 164.026 75.1595 165.881 75.1595Z" fill="white"/>
<path d="M165.881 88.5999C167.737 88.5999 169.241 87.0956 169.241 85.2399C169.241 83.3842 167.737 81.8799 165.881 81.8799C164.026 81.8799 162.521 83.3842 162.521 85.2399C162.521 87.0956 164.026 88.5999 165.881 88.5999Z" fill="white"/>
<path d="M162.521 102.04V108.76H169.241V105.4C169.241 104.509 168.887 103.654 168.257 103.024C167.627 102.394 166.773 102.04 165.881 102.04" fill="white"/>
<path d="M169.241 108.76H162.521V115.48H169.241V108.76Z" fill="white"/>
<path d="M169.24 122.199V115.479H162.52V118.839C162.52 119.73 162.874 120.585 163.504 121.215C164.134 121.845 164.989 122.199 165.88 122.199" fill="white"/>
<path d="M165.881 135.64C167.737 135.64 169.241 134.136 169.241 132.28C169.241 130.424 167.737 128.92 165.881 128.92C164.026 128.92 162.521 130.424 162.521 132.28C162.521 134.136 164.026 135.64 165.881 135.64Z" fill="white"/>
<path d="M162.521 149.079H169.241V145.719C169.241 144.828 168.887 143.973 168.257 143.343C167.627 142.713 166.773 142.359 165.881 142.359C164.99 142.359 164.136 142.713 163.506 143.343C162.875 143.973 162.521 144.828 162.521 145.719" fill="white"/>
<path d="M169.24 149.079H162.52V155.799H165.88C166.771 155.799 167.626 155.445 168.256 154.815C168.886 154.185 169.24 153.33 169.24 152.439" fill="white"/>
<path d="M162.521 175.96V182.68H165.881C166.773 182.68 167.627 182.326 168.257 181.696C168.887 181.066 169.241 180.211 169.241 179.32C169.241 178.429 168.887 177.574 168.257 176.944C167.627 176.314 166.773 175.96 165.881 175.96" fill="white"/>
<path d="M162.521 196.119H169.241V189.399H165.881C164.99 189.399 164.136 189.753 163.506 190.383C162.875 191.013 162.521 191.868 162.521 192.759" fill="white"/>
<path d="M169.241 196.119H162.521V202.839H169.241V196.119Z" fill="white"/>
<path d="M162.521 209.56V216.28H165.881C166.773 216.28 167.627 215.926 168.257 215.295C168.887 214.665 169.241 213.811 169.241 212.92C169.241 212.028 168.887 211.174 168.257 210.544C167.627 209.914 166.773 209.56 165.881 209.56" fill="white"/>
<path d="M175.96 55H169.24V61.72H175.96V55Z" fill="white"/>
<path d="M169.24 95.3193H175.96V88.5993H172.6C171.709 88.5993 170.854 88.9533 170.224 89.5835C169.594 90.2136 169.24 91.0682 169.24 91.9593" fill="white"/>
<path d="M175.961 102.04V95.32H169.241V98.68C169.241 99.5712 169.595 100.426 170.225 101.056C170.855 101.686 171.71 102.04 172.601 102.04" fill="white"/>
<path d="M169.24 108.76V115.48H175.96V112.12C175.96 111.229 175.606 110.374 174.976 109.744C174.346 109.114 173.491 108.76 172.6 108.76" fill="white"/>
<path d="M175.96 115.479H169.24V122.199H175.96V115.479Z" fill="white"/>
<path d="M169.24 162.52H175.96V155.8H172.6C171.709 155.8 170.854 156.154 170.224 156.784C169.594 157.414 169.24 158.268 169.24 159.16" fill="white"/>
<path d="M175.961 169.239V162.519H169.241V165.879C169.241 166.77 169.595 167.625 170.225 168.255C170.855 168.885 171.71 169.239 172.601 169.239" fill="white"/>
<path d="M169.24 189.399H175.96V182.679H172.6C171.709 182.679 170.854 183.033 170.224 183.664C169.594 184.294 169.24 185.148 169.24 186.039" fill="white"/>
<path d="M175.96 189.399H169.24V196.119H175.96V189.399Z" fill="white"/>
<path d="M175.96 196.119H169.24V202.839H175.96V196.119Z" fill="white"/>
<path d="M175.961 223V216.28H172.601C171.71 216.28 170.855 216.634 170.225 217.264C169.595 217.894 169.241 218.749 169.241 219.64C169.241 220.531 169.595 221.386 170.225 222.016C170.855 222.646 171.71 223 172.601 223" fill="white"/>
<path d="M172.6 236.44C174.456 236.44 175.96 234.935 175.96 233.08C175.96 231.224 174.456 229.72 172.6 229.72C170.745 229.72 169.24 231.224 169.24 233.08C169.24 234.935 170.745 236.44 172.6 236.44Z" fill="white"/>
<path d="M175.961 55H182.681V51.64C182.681 50.7489 182.327 49.8942 181.697 49.2641C181.067 48.634 180.212 48.28 179.321 48.28C178.43 48.28 177.575 48.634 176.945 49.2641C176.315 49.8942 175.961 50.7489 175.961 51.64" fill="white"/>
<path d="M182.681 55H175.961V61.72H182.681V55Z" fill="white"/>
<path d="M182.681 61.7197H175.961V68.4397H182.681V61.7197Z" fill="white"/>
<path d="M182.681 68.4395H175.961V75.1595H182.681V68.4395Z" fill="white"/>
<path d="M182.681 75.1592H175.961V81.8792H182.681V75.1592Z" fill="white"/>
<path d="M182.681 81.8799H175.961V88.5999H182.681V81.8799Z" fill="white"/>
<path d="M182.681 88.5996H175.961V95.3196H182.681V88.5996Z" fill="white"/>
<path d="M182.681 95.3193H175.961V102.039H182.681V95.3193Z" fill="white"/>
<path d="M182.68 108.76V102.04H175.96V105.4C175.96 106.291 176.314 107.146 176.944 107.776C177.574 108.406 178.429 108.76 179.32 108.76" fill="white"/>
<path d="M175.961 115.479V122.199H182.681V118.839C182.681 117.948 182.327 117.094 181.697 116.464C181.067 115.833 180.212 115.479 179.321 115.479" fill="white"/>
<path d="M182.681 122.199H175.961V128.919H182.681V122.199Z" fill="white"/>
<path d="M182.68 135.64V128.92H175.96V132.28C175.96 133.171 176.314 134.025 176.944 134.656C177.574 135.286 178.429 135.64 179.32 135.64" fill="white"/>
<path d="M175.961 155.8H182.681V149.08H179.321C178.43 149.08 177.575 149.434 176.945 150.064C176.315 150.694 175.961 151.549 175.961 152.44" fill="white"/>
<path d="M182.681 155.8H175.961V162.52H182.681V155.8Z" fill="white"/>
<path d="M182.681 162.52H175.961V169.24H182.681V162.52Z" fill="white"/>
<path d="M182.681 169.239H175.961V175.959H182.681V169.239Z" fill="white"/>
<path d="M182.681 175.96H175.961V182.68H182.681V175.96Z" fill="white"/>
<path d="M182.681 182.68H175.961V189.4H182.681V182.68Z" fill="white"/>
<path d="M182.681 189.399H175.961V196.119H182.681V189.399Z" fill="white"/>
<path d="M182.681 196.119H175.961V202.839H182.681V196.119Z" fill="white"/>
<path d="M182.681 202.84H175.961V209.56H182.681V202.84Z" fill="white"/>
<path d="M182.681 209.56H175.961V216.28H182.681V209.56Z" fill="white"/>
<path d="M182.68 216.279H175.96V222.999H179.32C180.211 222.999 181.065 222.645 181.696 222.015C182.326 221.385 182.68 220.53 182.68 219.639" fill="white"/>
<path d="M182.68 95.3193V102.039H189.4V98.6793C189.4 97.7882 189.046 96.9336 188.416 96.3035C187.785 95.6733 186.931 95.3193 186.04 95.3193" fill="white"/>
<path d="M189.4 102.04H182.68V108.76H189.4V102.04Z" fill="white"/>
<path d="M189.4 122.199H182.68V128.919H189.4V122.199Z" fill="white"/>
<path d="M189.4 128.92H182.68V135.64H186.04C186.932 135.64 187.786 135.286 188.416 134.656C189.046 134.026 189.4 133.171 189.4 132.28" fill="white"/>
<path d="M189.4 149.079H182.68V155.799H189.4V149.079Z" fill="white"/>
<path d="M182.68 162.52V169.24H186.04C186.931 169.24 187.785 168.886 188.416 168.255C189.046 167.625 189.4 166.771 189.4 165.88C189.4 164.988 189.046 164.134 188.416 163.504C187.785 162.874 186.931 162.52 186.04 162.52" fill="white"/>
<path d="M189.4 175.96H182.68V182.68H189.4V175.96Z" fill="white"/>
<path d="M189.4 202.84H182.68V209.56H189.4V202.84Z" fill="white"/>
<path d="M189.4 209.56H182.68V216.28H186.04C186.932 216.28 187.786 215.926 188.416 215.295C189.046 214.665 189.4 213.811 189.4 212.92" fill="white"/>
<path d="M182.68 229.72H189.4V226.36C189.4 225.469 189.046 224.614 188.416 223.984C187.785 223.354 186.931 223 186.04 223C185.149 223 184.294 223.354 183.664 223.984C183.034 224.614 182.68 225.469 182.68 226.36" fill="white"/>
<path d="M189.4 229.72H182.68V233.08C182.68 233.971 183.034 234.825 183.665 235.456C184.295 236.086 185.149 236.44 186.04 236.44C186.932 236.44 187.786 236.086 188.416 235.456C189.046 234.825 189.4 233.971 189.4 233.08" fill="white"/>
<path d="M189.4 102.04V108.76H196.12V105.4C196.12 104.509 195.766 103.654 195.136 103.024C194.506 102.394 193.652 102.04 192.76 102.04" fill="white"/>
<path d="M196.12 108.76H189.4V115.48H196.12V108.76Z" fill="white"/>
<path d="M196.12 115.479H189.4V122.199H196.12V115.479Z" fill="white"/>
<path d="M196.12 122.199H189.4V128.919H196.12V122.199Z" fill="white"/>
<path d="M192.76 142.36C194.616 142.36 196.12 140.855 196.12 139C196.12 137.144 194.616 135.64 192.76 135.64C190.905 135.64 189.4 137.144 189.4 139C189.4 140.855 190.905 142.36 192.76 142.36Z" fill="white"/>
<path d="M196.12 149.079H189.4V155.799H196.12V149.079Z" fill="white"/>
<path d="M196.121 155.8H189.401V159.16C189.401 160.051 189.755 160.906 190.385 161.536C191.015 162.166 191.87 162.52 192.761 162.52C193.652 162.52 194.507 162.166 195.137 161.536C195.767 160.906 196.121 160.051 196.121 159.16" fill="white"/>
<path d="M189.4 175.96H196.12V172.6C196.12 171.709 195.766 170.854 195.136 170.224C194.506 169.594 193.652 169.24 192.76 169.24C191.869 169.24 191.015 169.594 190.385 170.224C189.754 170.854 189.4 171.709 189.4 172.6" fill="white"/>
<path d="M196.12 175.96H189.4V182.68H196.12V175.96Z" fill="white"/>
<path d="M192.76 196.119C194.616 196.119 196.12 194.615 196.12 192.759C196.12 190.904 194.616 189.399 192.76 189.399C190.905 189.399 189.4 190.904 189.4 192.759C189.4 194.615 190.905 196.119 192.76 196.119Z" fill="white"/>
<path d="M196.12 202.84H189.4V209.56H196.12V202.84Z" fill="white"/>
<path d="M192.76 222.999C194.616 222.999 196.12 221.495 196.12 219.639C196.12 217.784 194.616 216.279 192.76 216.279C190.905 216.279 189.4 217.784 189.4 219.639C189.4 221.495 190.905 222.999 192.76 222.999Z" fill="white"/>
<path d="M199.481 102.039C201.337 102.039 202.841 100.535 202.841 98.6793C202.841 96.8237 201.337 95.3193 199.481 95.3193C197.625 95.3193 196.121 96.8237 196.121 98.6793C196.121 100.535 197.625 102.039 199.481 102.039Z" fill="white"/>
<path d="M196.121 108.76V115.48H199.481C200.372 115.48 201.227 115.126 201.857 114.496C202.487 113.866 202.841 113.011 202.841 112.12C202.841 111.229 202.487 110.374 201.857 109.744C201.227 109.114 200.372 108.76 199.481 108.76" fill="white"/>
<path d="M196.121 122.199V128.919H202.841V125.559C202.841 124.668 202.487 123.813 201.857 123.183C201.227 122.553 200.372 122.199 199.481 122.199" fill="white"/>
<path d="M202.84 135.64V128.92H196.12V132.28C196.12 133.171 196.474 134.025 197.104 134.656C197.734 135.286 198.589 135.64 199.48 135.64" fill="white"/>
<path d="M196.121 149.079V155.799H199.481C200.372 155.799 201.227 155.445 201.857 154.815C202.487 154.185 202.841 153.33 202.841 152.439C202.841 151.548 202.487 150.693 201.857 150.063C201.227 149.433 200.372 149.079 199.481 149.079" fill="white"/>
<path d="M202.84 169.239V162.519H199.48C198.589 162.519 197.734 162.873 197.104 163.503C196.474 164.133 196.12 164.988 196.12 165.879C196.12 166.77 196.474 167.625 197.104 168.255C197.734 168.885 198.589 169.239 199.48 169.239" fill="white"/>
<path d="M202.841 175.96H196.121V182.68H202.841V175.96Z" fill="white"/>
<path d="M202.841 202.84H196.121V209.56H202.841V202.84Z" fill="white"/>
<path d="M209.56 128.92H202.84V135.64H209.56V128.92Z" fill="white"/>
<path d="M209.561 135.64H202.841V139C202.841 139.891 203.195 140.745 203.825 141.376C204.455 142.006 205.309 142.36 206.201 142.36C207.092 142.36 207.946 142.006 208.576 141.376C209.207 140.745 209.561 139.891 209.561 139" fill="white"/>
<path d="M209.56 162.52H202.84V169.24H209.56V162.52Z" fill="white"/>
<path d="M202.84 175.96V182.68H209.56V179.32C209.56 178.429 209.206 177.574 208.576 176.944C207.946 176.314 207.091 175.96 206.2 175.96" fill="white"/>
<path d="M209.56 182.68H202.84V189.4H209.56V182.68Z" fill="white"/>
<path d="M209.56 189.399H202.84V196.119H209.56V189.399Z" fill="white"/>
<path d="M209.56 196.119H202.84V202.839H209.56V196.119Z" fill="white"/>
<path d="M209.56 202.84H202.84V209.56H209.56V202.84Z" fill="white"/>
<path d="M209.56 209.56H202.84V216.28H209.56V209.56Z" fill="white"/>
<path d="M209.561 216.279H202.841V219.639C202.841 220.53 203.195 221.385 203.825 222.015C204.455 222.645 205.309 222.999 206.201 222.999C207.092 222.999 207.946 222.645 208.576 222.015C209.207 221.385 209.561 220.53 209.561 219.639" fill="white"/>
<path d="M209.561 102.04H216.281V95.32H212.921C212.029 95.32 211.175 95.674 210.545 96.3042C209.915 96.9343 209.561 97.7889 209.561 98.68" fill="white"/>
<path d="M216.281 102.04H209.561V105.4C209.561 106.291 209.915 107.146 210.545 107.776C211.175 108.406 212.03 108.76 212.921 108.76C213.812 108.76 214.667 108.406 215.297 107.776C215.927 107.146 216.281 106.291 216.281 105.4" fill="white"/>
<path d="M216.281 122.199V115.479H212.921C212.03 115.479 211.175 115.833 210.545 116.463C209.915 117.093 209.561 117.948 209.561 118.839C209.561 119.73 209.915 120.585 210.545 121.215C211.175 121.845 212.03 122.199 212.921 122.199" fill="white"/>
<path d="M216.281 128.92H209.561V135.64H216.281V128.92Z" fill="white"/>
<path d="M216.281 155.8V149.08H212.921C212.03 149.08 211.175 149.434 210.545 150.064C209.915 150.694 209.561 151.549 209.561 152.44C209.561 153.331 209.915 154.186 210.545 154.816C211.175 155.446 212.03 155.8 212.921 155.8" fill="white"/>
<path d="M216.281 162.52H209.561V169.24H216.281V162.52Z" fill="white"/>
<path d="M216.281 169.239H209.561V172.599C209.561 173.49 209.915 174.345 210.545 174.975C211.175 175.605 212.03 175.959 212.921 175.959C213.812 175.959 214.667 175.605 215.297 174.975C215.927 174.345 216.281 173.49 216.281 172.599" fill="white"/>
<path d="M209.561 202.84V209.56H216.281V206.2C216.281 205.309 215.927 204.454 215.296 203.824C214.666 203.194 213.812 202.84 212.921 202.84" fill="white"/>
<path d="M216.281 209.56H209.561V216.28H212.921C213.812 216.28 214.667 215.926 215.297 215.295C215.927 214.665 216.281 213.811 216.281 212.92" fill="white"/>
<path d="M212.921 229.72C214.776 229.72 216.281 228.216 216.281 226.36C216.281 224.504 214.776 223 212.921 223C211.065 223 209.561 224.504 209.561 226.36C209.561 228.216 211.065 229.72 212.921 229.72Z" fill="white"/>
<path d="M223.001 95.3193H216.281V102.039H223.001V95.3193Z" fill="white"/>
<path d="M216.281 115.479H223.001V112.119C223.001 111.228 222.647 110.374 222.017 109.744C221.387 109.113 220.532 108.759 219.641 108.759C218.75 108.759 217.895 109.113 217.265 109.744C216.635 110.374 216.281 111.228 216.281 112.119" fill="white"/>
<path d="M223.001 115.479H216.281V122.199H223.001V115.479Z" fill="white"/>
<path d="M223.001 122.199H216.281V128.919H223.001V122.199Z" fill="white"/>
<path d="M223.001 128.92H216.281V135.64H223.001V128.92Z" fill="white"/>
<path d="M223.001 135.64H216.281V142.36H223.001V135.64Z" fill="white"/>
<path d="M223.001 142.359H216.281V149.079H223.001V142.359Z" fill="white"/>
<path d="M223.001 149.079H216.281V155.799H223.001V149.079Z" fill="white"/>
<path d="M223.001 155.8H216.281V162.52H223.001V155.8Z" fill="white"/>
<path d="M223.001 162.52H216.281V169.24H223.001V162.52Z" fill="white"/>
<path d="M223 182.68V175.96H219.64C218.749 175.96 217.894 176.314 217.264 176.944C216.634 177.574 216.28 178.429 216.28 179.32C216.28 180.211 216.634 181.065 217.264 181.696C217.894 182.326 218.749 182.68 219.64 182.68" fill="white"/>
<path d="M219.641 202.839C221.497 202.839 223.001 201.335 223.001 199.479C223.001 197.623 221.497 196.119 219.641 196.119C217.786 196.119 216.281 197.623 216.281 199.479C216.281 201.335 217.786 202.839 219.641 202.839Z" fill="white"/>
<path d="M219.641 222.999C221.497 222.999 223.001 221.495 223.001 219.639C223.001 217.784 221.497 216.279 219.641 216.279C217.786 216.279 216.281 217.784 216.281 219.639C216.281 221.495 217.786 222.999 219.641 222.999Z" fill="white"/>
<path d="M219.641 236.44C221.497 236.44 223.001 234.935 223.001 233.08C223.001 231.224 221.497 229.72 219.641 229.72C217.786 229.72 216.281 231.224 216.281 233.08C216.281 234.935 217.786 236.44 219.641 236.44Z" fill="white"/>
<path d="M223 95.3193V102.039H229.72V98.6793C229.72 97.7882 229.366 96.9336 228.736 96.3035C228.106 95.6733 227.251 95.3193 226.36 95.3193" fill="white"/>
<path d="M229.721 108.76V102.04H223.001V105.4C223.001 106.291 223.355 107.146 223.985 107.776C224.615 108.406 225.47 108.76 226.361 108.76" fill="white"/>
<path d="M223 122.199V128.919H226.36C227.251 128.919 228.106 128.565 228.736 127.935C229.366 127.305 229.72 126.45 229.72 125.559C229.72 124.668 229.366 123.813 228.736 123.183C228.106 122.553 227.251 122.199 226.36 122.199" fill="white"/>
<path d="M223 149.079V155.799H226.36C227.251 155.799 228.106 155.445 228.736 154.815C229.366 154.185 229.72 153.33 229.72 152.439C229.72 151.548 229.366 150.693 228.736 150.063C228.106 149.433 227.251 149.079 226.36 149.079" fill="white"/>
<path d="M229.72 162.52H223V169.24H229.72V162.52Z" fill="white"/>
<path d="M229.72 169.239H223V175.959H229.72V169.239Z" fill="white"/>
<path d="M229.72 175.96H223V182.68H229.72V175.96Z" fill="white"/>
<path d="M229.721 196.119V189.399H226.361C225.47 189.399 224.615 189.753 223.985 190.383C223.355 191.013 223.001 191.868 223.001 192.759C223.001 193.65 223.355 194.505 223.985 195.135C224.615 195.765 225.47 196.119 226.361 196.119" fill="white"/>
<path d="M223 209.56H229.72V206.2C229.72 205.308 229.366 204.454 228.736 203.824C228.106 203.194 227.251 202.84 226.36 202.84C225.469 202.84 224.614 203.194 223.984 203.824C223.354 204.454 223 205.308 223 206.2" fill="white"/>
<path d="M229.721 216.279V209.559H223.001V212.919C223.001 213.81 223.355 214.665 223.985 215.295C224.615 215.925 225.47 216.279 226.361 216.279" fill="white"/>
<path d="M229.721 229.72V223H226.361C225.47 223 224.615 223.354 223.985 223.984C223.355 224.614 223.001 225.469 223.001 226.36C223.001 227.251 223.355 228.105 223.985 228.736C224.615 229.366 225.47 229.72 226.361 229.72" fill="white"/>
<path d="M229.721 102.04V108.76H236.441V105.4C236.441 104.509 236.087 103.654 235.457 103.024C234.826 102.394 233.972 102.04 233.081 102.04" fill="white"/>
<path d="M236.441 108.76H229.721V115.48H236.441V108.76Z" fill="white"/>
<path d="M236.441 115.479H229.721V118.839C229.721 119.731 230.075 120.585 230.706 121.215C231.336 121.845 232.19 122.199 233.081 122.199C233.973 122.199 234.827 121.845 235.457 121.215C236.087 120.585 236.441 119.731 236.441 118.839" fill="white"/>
<path d="M233.081 135.64C234.936 135.64 236.441 134.136 236.441 132.28C236.441 130.424 234.936 128.92 233.081 128.92C231.225 128.92 229.721 130.424 229.721 132.28C229.721 134.136 231.225 135.64 233.081 135.64Z" fill="white"/>
<path d="M233.081 149.079C234.936 149.079 236.441 147.575 236.441 145.719C236.441 143.864 234.936 142.359 233.081 142.359C231.225 142.359 229.721 143.864 229.721 145.719C229.721 147.575 231.225 149.079 233.081 149.079Z" fill="white"/>
<path d="M229.721 162.52V169.24H236.441V165.88C236.441 164.988 236.087 164.134 235.457 163.504C234.826 162.874 233.972 162.52 233.081 162.52" fill="white"/>
<path d="M236.441 169.239H229.721V175.959H236.441V169.239Z" fill="white"/>
<path d="M236.441 175.96H229.721V182.68H233.081C233.973 182.68 234.827 182.326 235.457 181.696C236.087 181.066 236.441 180.211 236.441 179.32" fill="white"/>
<path d="M229.721 189.399V196.119H236.441V192.759C236.441 191.868 236.087 191.014 235.457 190.384C234.826 189.753 233.972 189.399 233.081 189.399" fill="white"/>
<path d="M236.441 196.119H229.721V199.479C229.721 200.37 230.075 201.225 230.706 201.855C231.336 202.485 232.19 202.839 233.081 202.839C233.973 202.839 234.827 202.485 235.457 201.855C236.087 201.225 236.441 200.37 236.441 199.479" fill="white"/>
<path d="M229.721 209.56V216.28H233.081C233.972 216.28 234.826 215.926 235.457 215.295C236.087 214.665 236.441 213.811 236.441 212.92C236.441 212.028 236.087 211.174 235.457 210.544C234.826 209.914 233.972 209.56 233.081 209.56" fill="white"/>
<path d="M229.721 223V229.72H233.081C233.972 229.72 234.826 229.366 235.457 228.736C236.087 228.106 236.441 227.251 236.441 226.36C236.441 225.469 236.087 224.614 235.457 223.984C234.826 223.354 233.972 223 233.081 223" fill="white"/>
<path fill-rule="evenodd" clip-rule="evenodd" d="M41.5605 58.3596V71.7996C41.5605 76.2552 43.3305 80.5284 46.4812 83.679C48.0412 85.239 49.8932 86.4765 51.9315 87.3207C53.9697 88.165 56.1543 88.5996 58.3605 88.5996H71.8005C76.2562 88.5996 80.5293 86.8296 83.6799 83.679C86.8306 80.5284 88.6005 76.2552 88.6005 71.7996V58.3596C88.6005 56.1534 88.166 53.9688 87.3217 51.9305C86.4774 49.8922 85.24 48.0402 83.6799 46.4802C82.1199 44.9202 80.2679 43.6827 78.2296 42.8384C76.1914 41.9941 74.0068 41.5596 71.8005 41.5596H58.3605C56.1543 41.5596 53.9697 41.9941 51.9315 42.8384C49.8932 43.6827 48.0412 44.9202 46.4812 46.4802C43.3305 49.6308 41.5605 53.9039 41.5605 58.3596ZM58.3605 48.2796H71.8005C74.4739 48.2796 77.0378 49.3416 78.9282 51.2319C80.8186 53.1223 81.8805 55.6862 81.8805 58.3596V71.7996C81.8805 74.4729 80.8186 77.0368 78.9282 78.9272C77.0378 80.8176 74.4739 81.8796 71.8005 81.8796H58.3605C55.6872 81.8796 53.1233 80.8176 51.2329 78.9272C49.3425 77.0368 48.2805 74.4729 48.2805 71.7996V58.3596C48.2805 55.6862 49.3425 53.1223 51.2329 51.2319C53.1233 49.3416 55.6872 48.2796 58.3605 48.2796Z" fill="white"/>
<path d="M65.08 75.16C70.647 75.16 75.16 70.647 75.16 65.08C75.16 59.513 70.647 55 65.08 55C59.513 55 55 59.513 55 65.08C55 70.647 59.513 75.16 65.08 75.16Z" fill="white"/>
<path fill-rule="evenodd" clip-rule="evenodd" d="M219.641 41.5596H206.201C201.746 41.5596 197.473 43.3296 194.322 46.4802C191.171 49.6308 189.401 53.9039 189.401 58.3596V71.7996C189.401 76.2552 191.171 80.5284 194.322 83.679C197.473 86.8296 201.746 88.5996 206.201 88.5996H219.641C221.848 88.5996 224.032 88.165 226.07 87.3207C228.109 86.4765 229.961 85.239 231.521 83.679C233.081 82.1189 234.318 80.2669 235.163 78.2287C236.007 76.1904 236.441 74.0058 236.441 71.7996V58.3596C236.441 53.9039 234.671 49.6308 231.521 46.4802C228.37 43.3296 224.097 41.5596 219.641 41.5596ZM229.721 58.3596V71.7996C229.721 74.4729 228.659 77.0368 226.769 78.9272C224.879 80.8176 222.315 81.8796 219.641 81.8796H206.201C203.528 81.8796 200.964 80.8176 199.074 78.9272C197.183 77.0368 196.121 74.4729 196.121 71.7996V58.3596C196.121 55.6862 197.183 53.1223 199.074 51.2319C200.964 49.3416 203.528 48.2796 206.201 48.2796H219.641C222.315 48.2796 224.879 49.3416 226.769 51.2319C228.659 53.1223 229.721 55.6862 229.721 58.3596Z" fill="white"/>
<path d="M202.84 65.08C202.84 70.647 207.353 75.16 212.92 75.16C218.487 75.16 223 70.647 223 65.08C223 59.513 218.487 55 212.92 55C207.353 55 202.84 59.513 202.84 65.08Z" fill="white"/>
<path fill-rule="evenodd" clip-rule="evenodd" d="M58.3605 236.439H71.8005C76.2562 236.439 80.5293 234.669 83.6799 231.519C85.24 229.959 86.4774 228.107 87.3217 226.069C88.166 224.03 88.6005 221.846 88.6005 219.639V206.199C88.6005 201.744 86.8306 197.471 83.6799 194.32C80.5293 191.169 76.2562 189.399 71.8005 189.399H58.3605C53.9049 189.399 49.6318 191.169 46.4812 194.32C43.3305 197.471 41.5605 201.744 41.5605 206.199V219.639C41.5605 221.846 41.9951 224.03 42.8394 226.069C43.6837 228.107 44.9211 229.959 46.4812 231.519C49.6318 234.669 53.9049 236.439 58.3605 236.439ZM48.2805 219.639V206.199C48.2805 203.526 49.3425 200.962 51.2329 199.072C53.1233 197.181 55.6872 196.119 58.3605 196.119H71.8005C74.4739 196.119 77.0378 197.181 78.9282 199.072C80.8185 200.962 81.8805 203.526 81.8805 206.199V219.639C81.8805 222.313 80.8185 224.877 78.9282 226.767C77.0378 228.657 74.4739 229.719 71.8005 229.719H58.3605C55.6872 229.719 53.1233 228.657 51.2329 226.767C49.3425 224.877 48.2805 222.313 48.2805 219.639Z" fill="white"/>
<path d="M75.16 212.92C75.16 207.353 70.647 202.84 65.08 202.84C59.513 202.84 55 207.353 55 212.92C55 218.487 59.513 223 65.08 223C70.647 223 75.16 218.487 75.16 212.92Z" fill="white"/>
</mask>
<g mask="url(#mask0_4525_21025)">
<path d="M244 34H34V244H244V34Z" fill="black"/>
</g>
</g>
<defs>
<clipPath id="clip0_4525_21025">
<rect width="210" height="210" fill="white" transform="translate(34 34)"/>
</clipPath>
</defs>
</svg>
