<svg width="250" height="280" viewBox="0 0 250 280" fill="none" xmlns="http://www.w3.org/2000/svg">
<rect width="250" height="80" rx="18" fill="white" fill-opacity="0.1"/>
<rect x="15" y="17" width="46" height="46" rx="8" fill="white" fill-opacity="0.1"/>
<path d="M37.9655 51.6668C44.4088 51.6668 49.6322 46.4435 49.6322 40.0002C49.6322 33.5568 44.4088 28.3335 37.9655 28.3335C31.5222 28.3335 26.2988 33.5568 26.2988 40.0002C26.2988 46.4435 31.5222 51.6668 37.9655 51.6668Z" stroke="white" stroke-width="1.5" stroke-linecap="round" stroke-linejoin="round"/>
<path d="M32.4121 44.6665C33.6371 46.4282 35.6904 47.5832 38.0004 47.5832C40.3104 47.5832 42.3521 46.4282 43.5888 44.6665" stroke="white" stroke-width="1.5" stroke-linecap="round" stroke-linejoin="round"/>
<path d="M73.87 44H72.26V33.654H73.87V37.952H78.798V33.654H80.408V44H78.798V39.506H73.87V44ZM88.47 37.504V36.454H89.954V44H88.47V42.964C87.7887 43.776 86.93 44.182 85.894 44.182C84.802 44.182 83.9014 43.7993 83.192 43.034C82.4827 42.2687 82.128 41.3167 82.128 40.178C82.128 39.0487 82.4827 38.1153 83.192 37.378C83.9014 36.6407 84.802 36.272 85.894 36.272C86.93 36.272 87.7887 36.6827 88.47 37.504ZM86.104 42.768C86.804 42.768 87.3874 42.5207 87.854 42.026C88.3114 41.5407 88.54 40.9387 88.54 40.22C88.54 39.5107 88.3114 38.9133 87.854 38.428C87.3874 37.9333 86.804 37.686 86.104 37.686C85.3854 37.686 84.802 37.9333 84.354 38.428C83.906 38.9133 83.682 39.5153 83.682 40.234C83.682 40.9527 83.906 41.5547 84.354 42.04C84.802 42.5253 85.3854 42.768 86.104 42.768ZM96.0713 36.272C97.1446 36.272 98.0359 36.6547 98.7453 37.42C99.4639 38.1947 99.8233 39.1327 99.8233 40.234C99.8233 41.326 99.4639 42.2593 98.7453 43.034C98.0359 43.7993 97.1399 44.182 96.0573 44.182C94.9933 44.182 94.1346 43.7713 93.4813 42.95V47.108H91.9413V36.454H93.4813V37.546C94.1626 36.6967 95.0259 36.272 96.0713 36.272ZM98.2693 40.22C98.2693 39.5107 98.0453 38.9133 97.5973 38.428C97.1493 37.9333 96.5659 37.686 95.8473 37.686C95.1286 37.686 94.5453 37.9333 94.0973 38.428C93.6586 38.9227 93.4393 39.52 93.4393 40.22C93.4393 40.9387 93.6586 41.5453 94.0973 42.04C94.5453 42.5253 95.1286 42.768 95.8473 42.768C96.5659 42.768 97.1493 42.5253 97.5973 42.04C98.0453 41.5547 98.2693 40.948 98.2693 40.22ZM105.491 36.272C106.565 36.272 107.456 36.6547 108.165 37.42C108.884 38.1947 109.243 39.1327 109.243 40.234C109.243 41.326 108.884 42.2593 108.165 43.034C107.456 43.7993 106.56 44.182 105.477 44.182C104.413 44.182 103.555 43.7713 102.901 42.95V47.108H101.361V36.454H102.901V37.546C103.583 36.6967 104.446 36.272 105.491 36.272ZM107.689 40.22C107.689 39.5107 107.465 38.9133 107.017 38.428C106.569 37.9333 105.986 37.686 105.267 37.686C104.549 37.686 103.965 37.9333 103.517 38.428C103.079 38.9227 102.859 39.52 102.859 40.22C102.859 40.9387 103.079 41.5453 103.517 42.04C103.965 42.5253 104.549 42.768 105.267 42.768C105.986 42.768 106.569 42.5253 107.017 42.04C107.465 41.5547 107.689 40.948 107.689 40.22ZM113.603 41.9L115.535 36.454H117.229L114.107 44.686C113.771 45.5727 113.379 46.212 112.931 46.604C112.483 47.0053 111.937 47.206 111.293 47.206C110.761 47.206 110.332 47.0987 110.005 46.884L110.229 45.554C110.593 45.7127 110.906 45.792 111.167 45.792C111.774 45.792 112.269 45.3627 112.651 44.504L112.889 43.944L109.613 36.454H111.391L113.603 41.9ZM125.37 44.168C124.194 44.168 123.237 43.7993 122.5 43.062C121.753 42.3153 121.38 41.3727 121.38 40.234C121.38 39.086 121.758 38.1387 122.514 37.392C123.279 36.6453 124.25 36.272 125.426 36.272C126.182 36.272 126.873 36.454 127.498 36.818C128.133 37.182 128.599 37.672 128.898 38.288L127.624 39.002C127.391 38.6007 127.078 38.2833 126.686 38.05C126.303 37.8073 125.888 37.686 125.44 37.686C124.721 37.686 124.124 37.9287 123.648 38.414C123.172 38.9087 122.934 39.5153 122.934 40.234C122.934 40.934 123.167 41.5313 123.634 42.026C124.091 42.5113 124.675 42.754 125.384 42.754C125.832 42.754 126.261 42.6327 126.672 42.39C127.083 42.1473 127.386 41.8393 127.582 41.466L128.856 42.208C128.548 42.796 128.077 43.272 127.442 43.636C126.817 43.9907 126.126 44.168 125.37 44.168ZM133.429 44.182C132.421 44.182 131.618 43.888 131.021 43.3C130.423 42.712 130.125 41.914 130.125 40.906V36.454H131.665V40.892C131.665 41.4613 131.819 41.914 132.127 42.25C132.444 42.586 132.878 42.754 133.429 42.754C133.989 42.754 134.423 42.5907 134.731 42.264C135.039 41.9373 135.193 41.48 135.193 40.892V36.454H136.747V40.906C136.747 41.9327 136.453 42.7353 135.865 43.314C135.277 43.8927 134.465 44.182 133.429 44.182ZM140.857 44.182C140.26 44.182 139.704 44.0467 139.191 43.776C138.678 43.5053 138.267 43.1133 137.959 42.6L138.953 41.704C139.177 42.068 139.462 42.3527 139.807 42.558C140.162 42.754 140.521 42.852 140.885 42.852C141.249 42.852 141.548 42.7633 141.781 42.586C142.014 42.3993 142.131 42.1753 142.131 41.914C142.131 41.5407 141.916 41.2513 141.487 41.046C141.375 40.9807 141.072 40.8547 140.577 40.668C140.073 40.4533 139.756 40.3087 139.625 40.234C138.822 39.814 138.421 39.1933 138.421 38.372C138.421 37.7467 138.654 37.2287 139.121 36.818C139.606 36.4073 140.232 36.202 140.997 36.202C142.07 36.202 142.896 36.5893 143.475 37.364L142.579 38.316C142.131 37.7653 141.58 37.49 140.927 37.49C140.619 37.49 140.372 37.5693 140.185 37.728C140.008 37.8867 139.919 38.0827 139.919 38.316C139.919 38.6893 140.129 38.9647 140.549 39.142L141.319 39.464C141.814 39.6693 142.168 39.828 142.383 39.94C143.242 40.388 143.671 41.0227 143.671 41.844C143.671 42.5067 143.41 43.062 142.887 43.51C142.364 43.958 141.688 44.182 140.857 44.182ZM149.648 42.348L150.18 43.552C149.62 43.972 148.925 44.182 148.094 44.182C147.282 44.182 146.666 43.9347 146.246 43.44C145.826 42.9453 145.616 42.2313 145.616 41.298V37.77H144.314V36.454H145.63V33.78H147.156V36.454H149.76V37.77H147.156V41.326C147.156 42.2873 147.543 42.768 148.318 42.768C148.729 42.768 149.172 42.628 149.648 42.348ZM150.665 40.22C150.665 39.128 151.038 38.1947 151.785 37.42C152.541 36.6453 153.498 36.258 154.655 36.258C155.812 36.258 156.764 36.6453 157.511 37.42C158.267 38.1853 158.645 39.1187 158.645 40.22C158.645 41.34 158.267 42.2827 157.511 43.048C156.774 43.8133 155.822 44.196 154.655 44.196C153.498 44.196 152.541 43.8133 151.785 43.048C151.038 42.2733 150.665 41.3307 150.665 40.22ZM157.091 40.22C157.091 39.5293 156.853 38.9367 156.377 38.442C155.92 37.938 155.346 37.686 154.655 37.686C153.974 37.686 153.395 37.938 152.919 38.442C152.452 38.9367 152.219 39.5293 152.219 40.22C152.219 40.92 152.452 41.5173 152.919 42.012C153.395 42.5067 153.974 42.754 154.655 42.754C155.336 42.754 155.91 42.5067 156.377 42.012C156.853 41.5173 157.091 40.92 157.091 40.22ZM169.039 36.244C169.945 36.244 170.673 36.538 171.223 37.126C171.783 37.6953 172.063 38.484 172.063 39.492V44H170.523V39.744C170.523 39.0907 170.369 38.5867 170.061 38.232C169.753 37.868 169.333 37.686 168.801 37.686C168.241 37.686 167.784 37.8773 167.429 38.26C167.084 38.6427 166.911 39.1513 166.911 39.786V44H165.371V39.772C165.371 39.128 165.213 38.6193 164.895 38.246C164.587 37.8727 164.167 37.686 163.635 37.686C163.075 37.686 162.618 37.882 162.263 38.274C161.909 38.6567 161.731 39.17 161.731 39.814V44H160.191V36.454H161.703V37.546C161.927 37.1447 162.24 36.8273 162.641 36.594C163.043 36.3607 163.491 36.244 163.985 36.244C164.499 36.2533 164.965 36.3793 165.385 36.622C165.805 36.8647 166.113 37.2007 166.309 37.63C166.571 37.21 166.944 36.874 167.429 36.622C167.924 36.37 168.461 36.244 169.039 36.244ZM181.071 40.08C181.071 40.3227 181.052 40.57 181.015 40.822H175.121C175.233 41.4287 175.499 41.9093 175.919 42.264C176.348 42.6187 176.918 42.796 177.627 42.796C178.056 42.796 178.504 42.7213 178.971 42.572C179.447 42.4227 179.853 42.2267 180.189 41.984L180.833 43.118C179.89 43.818 178.803 44.168 177.571 44.168C176.246 44.168 175.238 43.7807 174.547 43.006C173.866 42.2313 173.525 41.298 173.525 40.206C173.525 39.0673 173.88 38.1293 174.589 37.392C175.308 36.6453 176.236 36.272 177.375 36.272C178.467 36.272 179.354 36.6127 180.035 37.294C180.726 37.9847 181.071 38.9133 181.071 40.08ZM177.375 37.602C176.796 37.602 176.302 37.784 175.891 38.148C175.49 38.5027 175.233 38.974 175.121 39.562H179.517C179.452 38.974 179.218 38.5027 178.817 38.148C178.425 37.784 177.944 37.602 177.375 37.602ZM184.126 44H182.586V36.454H184.056V37.532C184.504 36.6827 185.218 36.258 186.198 36.258C186.515 36.258 186.814 36.3 187.094 36.384L186.954 37.882C186.702 37.7887 186.426 37.742 186.128 37.742C185.521 37.742 185.036 37.9473 184.672 38.358C184.308 38.7687 184.126 39.3613 184.126 40.136V44ZM190.308 44.182C189.711 44.182 189.156 44.0467 188.642 43.776C188.129 43.5053 187.718 43.1133 187.41 42.6L188.404 41.704C188.628 42.068 188.913 42.3527 189.258 42.558C189.613 42.754 189.972 42.852 190.336 42.852C190.7 42.852 190.999 42.7633 191.232 42.586C191.466 42.3993 191.582 42.1753 191.582 41.914C191.582 41.5407 191.368 41.2513 190.938 41.046C190.826 40.9807 190.523 40.8547 190.028 40.668C189.524 40.4533 189.207 40.3087 189.076 40.234C188.274 39.814 187.872 39.1933 187.872 38.372C187.872 37.7467 188.106 37.2287 188.572 36.818C189.058 36.4073 189.683 36.202 190.448 36.202C191.522 36.202 192.348 36.5893 192.926 37.364L192.03 38.316C191.582 37.7653 191.032 37.49 190.378 37.49C190.07 37.49 189.823 37.5693 189.636 37.728C189.459 37.8867 189.37 38.0827 189.37 38.316C189.37 38.6893 189.58 38.9647 190 39.142L190.77 39.464C191.265 39.6693 191.62 39.828 191.834 39.94C192.693 40.388 193.122 41.0227 193.122 41.844C193.122 42.5067 192.861 43.062 192.338 43.51C191.816 43.958 191.139 44.182 190.308 44.182Z" fill="white"/>
<rect y="100" width="250" height="80" rx="18" fill="white" fill-opacity="0.1"/>
<rect x="15" y="117" width="46" height="46" rx="8" fill="white" fill-opacity="0.1"/>
<path d="M29.3613 140.695C29.4863 140.57 29.6559 140.5 29.8327 140.5M29.3613 140.695L29.8327 140.5M29.3613 140.695L29.0077 140.342L29.8327 140.5M29.3613 140.695C29.2363 140.82 29.166 140.99 29.166 141.167V150.5C29.166 150.677 29.2363 150.847 29.3613 150.972C29.4863 151.097 29.6559 151.167 29.8327 151.167C30.0095 151.167 30.1791 151.097 30.3041 150.972C30.4291 150.847 30.4993 150.677 30.4993 150.5V141.167C30.4993 140.99 30.4291 140.82 30.3041 140.695C30.1791 140.57 30.0095 140.5 29.8327 140.5M35.1946 129.029C35.3196 128.904 35.4892 128.833 35.666 128.833C35.8428 128.833 36.0124 128.904 36.1374 129.029C36.2624 129.154 36.3327 129.323 36.3327 129.5V150.5C36.3327 150.677 36.2624 150.847 36.1374 150.972C36.0124 151.097 35.8428 151.167 35.666 151.167C35.4892 151.167 35.3196 151.097 35.1946 150.972C35.0696 150.847 34.9993 150.677 34.9993 150.5V129.5C34.9993 129.323 35.0696 129.154 35.1946 129.029ZM46.8613 145.362C46.9863 145.237 47.1559 145.167 47.3327 145.167C47.5095 145.167 47.6791 145.237 47.8041 145.362C47.9291 145.487 47.9993 145.657 47.9993 145.833V150.5C47.9993 150.677 47.9291 150.847 47.8041 150.972C47.6791 151.097 47.5095 151.167 47.3327 151.167C47.1559 151.167 46.9863 151.097 46.8613 150.972C46.7363 150.847 46.666 150.677 46.666 150.5V145.833C46.666 145.657 46.7363 145.487 46.8613 145.362ZM41.0279 136.029C41.153 135.904 41.3225 135.833 41.4993 135.833C41.6762 135.833 41.8457 135.904 41.9708 136.029C42.0958 136.154 42.166 136.323 42.166 136.5V150.5C42.166 150.677 42.0958 150.847 41.9708 150.972C41.8457 151.097 41.6762 151.167 41.4993 151.167C41.3225 151.167 41.153 151.097 41.0279 150.972C40.9029 150.847 40.8327 150.677 40.8327 150.5V136.5C40.8327 136.323 40.9029 136.154 41.0279 136.029Z" fill="white" stroke="white"/>
<path d="M76.936 144.154C75.4333 144.154 74.1733 143.659 73.156 142.67C72.1293 141.671 71.616 140.402 71.616 138.862C71.616 137.294 72.1387 136.006 73.184 134.998C74.2293 133.981 75.494 133.472 76.978 133.472C77.902 133.472 78.7653 133.677 79.568 134.088C80.3613 134.489 80.982 135.026 81.43 135.698L80.282 136.734C79.4327 135.605 78.3453 135.04 77.02 135.04C75.9747 135.04 75.088 135.404 74.36 136.132C73.6413 136.869 73.282 137.779 73.282 138.862C73.282 139.954 73.6367 140.85 74.346 141.55C75.0647 142.25 75.9513 142.6 77.006 142.6C78.378 142.6 79.4887 142.04 80.338 140.92L81.486 141.928C80.9913 142.609 80.3427 143.151 79.54 143.552C78.7373 143.953 77.8693 144.154 76.936 144.154ZM86.0145 144.182C85.0065 144.182 84.2038 143.888 83.6065 143.3C83.0091 142.712 82.7105 141.914 82.7105 140.906V136.454H84.2505V140.892C84.2505 141.461 84.4045 141.914 84.7125 142.25C85.0298 142.586 85.4638 142.754 86.0145 142.754C86.5745 142.754 87.0085 142.591 87.3165 142.264C87.6245 141.937 87.7785 141.48 87.7785 140.892V136.454H89.3325V140.906C89.3325 141.933 89.0385 142.735 88.4505 143.314C87.8625 143.893 87.0505 144.182 86.0145 144.182ZM93.443 144.182C92.8457 144.182 92.2903 144.047 91.777 143.776C91.2637 143.505 90.853 143.113 90.545 142.6L91.539 141.704C91.763 142.068 92.0477 142.353 92.393 142.558C92.7477 142.754 93.107 142.852 93.471 142.852C93.835 142.852 94.1337 142.763 94.367 142.586C94.6003 142.399 94.717 142.175 94.717 141.914C94.717 141.541 94.5023 141.251 94.073 141.046C93.961 140.981 93.6577 140.855 93.163 140.668C92.659 140.453 92.3417 140.309 92.211 140.234C91.4083 139.814 91.007 139.193 91.007 138.372C91.007 137.747 91.2403 137.229 91.707 136.818C92.1923 136.407 92.8177 136.202 93.583 136.202C94.6563 136.202 95.4823 136.589 96.061 137.364L95.165 138.316C94.717 137.765 94.1663 137.49 93.513 137.49C93.205 137.49 92.9577 137.569 92.771 137.728C92.5937 137.887 92.505 138.083 92.505 138.316C92.505 138.689 92.715 138.965 93.135 139.142L93.905 139.464C94.3997 139.669 94.7543 139.828 94.969 139.94C95.8277 140.388 96.257 141.023 96.257 141.844C96.257 142.507 95.9957 143.062 95.473 143.51C94.9503 143.958 94.2737 144.182 93.443 144.182ZM102.234 142.348L102.766 143.552C102.206 143.972 101.51 144.182 100.68 144.182C99.8678 144.182 99.2518 143.935 98.8318 143.44C98.4118 142.945 98.2018 142.231 98.2018 141.298V137.77H96.8998V136.454H98.2158V133.78H99.7418V136.454H102.346V137.77H99.7418V141.326C99.7418 142.287 100.129 142.768 100.904 142.768C101.314 142.768 101.758 142.628 102.234 142.348ZM103.251 140.22C103.251 139.128 103.624 138.195 104.371 137.42C105.127 136.645 106.084 136.258 107.241 136.258C108.398 136.258 109.35 136.645 110.097 137.42C110.853 138.185 111.231 139.119 111.231 140.22C111.231 141.34 110.853 142.283 110.097 143.048C109.36 143.813 108.408 144.196 107.241 144.196C106.084 144.196 105.127 143.813 104.371 143.048C103.624 142.273 103.251 141.331 103.251 140.22ZM109.677 140.22C109.677 139.529 109.439 138.937 108.963 138.442C108.506 137.938 107.932 137.686 107.241 137.686C106.56 137.686 105.981 137.938 105.505 138.442C105.038 138.937 104.805 139.529 104.805 140.22C104.805 140.92 105.038 141.517 105.505 142.012C105.981 142.507 106.56 142.754 107.241 142.754C107.922 142.754 108.496 142.507 108.963 142.012C109.439 141.517 109.677 140.92 109.677 140.22ZM121.625 136.244C122.531 136.244 123.259 136.538 123.809 137.126C124.369 137.695 124.649 138.484 124.649 139.492V144H123.109V139.744C123.109 139.091 122.955 138.587 122.647 138.232C122.339 137.868 121.919 137.686 121.387 137.686C120.827 137.686 120.37 137.877 120.015 138.26C119.67 138.643 119.497 139.151 119.497 139.786V144H117.957V139.772C117.957 139.128 117.799 138.619 117.481 138.246C117.173 137.873 116.753 137.686 116.221 137.686C115.661 137.686 115.204 137.882 114.849 138.274C114.495 138.657 114.317 139.17 114.317 139.814V144H112.777V136.454H114.289V137.546C114.513 137.145 114.826 136.827 115.227 136.594C115.629 136.361 116.077 136.244 116.571 136.244C117.085 136.253 117.551 136.379 117.971 136.622C118.391 136.865 118.699 137.201 118.895 137.63C119.157 137.21 119.53 136.874 120.015 136.622C120.51 136.37 121.047 136.244 121.625 136.244ZM133.657 140.08C133.657 140.323 133.638 140.57 133.601 140.822H127.707C127.819 141.429 128.085 141.909 128.505 142.264C128.934 142.619 129.503 142.796 130.213 142.796C130.642 142.796 131.09 142.721 131.557 142.572C132.033 142.423 132.439 142.227 132.775 141.984L133.419 143.118C132.476 143.818 131.389 144.168 130.157 144.168C128.831 144.168 127.823 143.781 127.133 143.006C126.451 142.231 126.111 141.298 126.111 140.206C126.111 139.067 126.465 138.129 127.175 137.392C127.893 136.645 128.822 136.272 129.961 136.272C131.053 136.272 131.939 136.613 132.621 137.294C133.311 137.985 133.657 138.913 133.657 140.08ZM129.961 137.602C129.382 137.602 128.887 137.784 128.477 138.148C128.075 138.503 127.819 138.974 127.707 139.562H132.103C132.037 138.974 131.804 138.503 131.403 138.148C131.011 137.784 130.53 137.602 129.961 137.602ZM136.712 144H135.172V136.454H136.642V137.532C137.09 136.683 137.804 136.258 138.784 136.258C139.101 136.258 139.4 136.3 139.68 136.384L139.54 137.882C139.288 137.789 139.012 137.742 138.714 137.742C138.107 137.742 137.622 137.947 137.258 138.358C136.894 138.769 136.712 139.361 136.712 140.136V144ZM144.638 135.46C144.339 135.46 144.087 135.362 143.882 135.166C143.677 134.961 143.574 134.709 143.574 134.41C143.574 134.121 143.677 133.878 143.882 133.682C144.087 133.486 144.339 133.388 144.638 133.388C144.927 133.388 145.17 133.486 145.366 133.682C145.562 133.878 145.66 134.121 145.66 134.41C145.66 134.709 145.562 134.961 145.366 135.166C145.17 135.362 144.927 135.46 144.638 135.46ZM145.38 136.454V144H143.84V136.454H145.38ZM148.907 144H147.367V136.454H148.879V137.518C149.103 137.126 149.425 136.818 149.845 136.594C150.265 136.37 150.741 136.258 151.273 136.258C152.104 136.258 152.804 136.529 153.373 137.07C153.952 137.621 154.241 138.4 154.241 139.408V144H152.687V139.842C152.687 139.161 152.524 138.633 152.197 138.26C151.87 137.877 151.432 137.686 150.881 137.686C150.302 137.686 149.826 137.891 149.453 138.302C149.089 138.703 148.907 139.226 148.907 139.87V144ZM158.371 144.182C157.773 144.182 157.218 144.047 156.705 143.776C156.191 143.505 155.781 143.113 155.473 142.6L156.467 141.704C156.691 142.068 156.975 142.353 157.321 142.558C157.675 142.754 158.035 142.852 158.399 142.852C158.763 142.852 159.061 142.763 159.295 142.586C159.528 142.399 159.645 142.175 159.645 141.914C159.645 141.541 159.43 141.251 159.001 141.046C158.889 140.981 158.585 140.855 158.091 140.668C157.587 140.453 157.269 140.309 157.139 140.234C156.336 139.814 155.935 139.193 155.935 138.372C155.935 137.747 156.168 137.229 156.635 136.818C157.12 136.407 157.745 136.202 158.511 136.202C159.584 136.202 160.41 136.589 160.989 137.364L160.093 138.316C159.645 137.765 159.094 137.49 158.441 137.49C158.133 137.49 157.885 137.569 157.699 137.728C157.521 137.887 157.433 138.083 157.433 138.316C157.433 138.689 157.643 138.965 158.063 139.142L158.833 139.464C159.327 139.669 159.682 139.828 159.897 139.94C160.755 140.388 161.185 141.023 161.185 141.844C161.185 142.507 160.923 143.062 160.401 143.51C159.878 143.958 159.201 144.182 158.371 144.182ZM163.492 135.46C163.193 135.46 162.941 135.362 162.736 135.166C162.53 134.961 162.428 134.709 162.428 134.41C162.428 134.121 162.53 133.878 162.736 133.682C162.941 133.486 163.193 133.388 163.492 133.388C163.781 133.388 164.024 133.486 164.22 133.682C164.416 133.878 164.514 134.121 164.514 134.41C164.514 134.709 164.416 134.961 164.22 135.166C164.024 135.362 163.781 135.46 163.492 135.46ZM164.234 136.454V144H162.694V136.454H164.234ZM172.129 137.42V136.454H173.613V143.23C173.613 144.443 173.239 145.409 172.493 146.128C171.746 146.847 170.757 147.206 169.525 147.206C168.274 147.206 167.149 146.847 166.151 146.128L166.823 144.938C167.653 145.535 168.545 145.834 169.497 145.834C170.29 145.834 170.92 145.61 171.387 145.162C171.853 144.723 172.087 144.149 172.087 143.44V142.894C171.424 143.641 170.579 144.014 169.553 144.014C168.451 144.014 167.546 143.645 166.837 142.908C166.127 142.171 165.773 141.247 165.773 140.136C165.773 139.025 166.141 138.106 166.879 137.378C167.616 136.641 168.531 136.272 169.623 136.272C170.621 136.272 171.457 136.655 172.129 137.42ZM169.749 142.642C170.449 142.642 171.027 142.404 171.485 141.928C171.942 141.461 172.171 140.869 172.171 140.15C172.171 139.422 171.942 138.829 171.485 138.372C171.018 137.905 170.439 137.672 169.749 137.672C169.067 137.672 168.493 137.91 168.027 138.386C167.569 138.843 167.341 139.431 167.341 140.15C167.341 140.878 167.569 141.475 168.027 141.942C168.493 142.409 169.067 142.642 169.749 142.642ZM177.139 144H175.599V133.388H177.097V137.406C177.321 137.051 177.643 136.771 178.063 136.566C178.493 136.361 178.969 136.258 179.491 136.258C180.322 136.258 181.022 136.529 181.591 137.07C182.161 137.611 182.445 138.391 182.445 139.408V144H180.905V139.842C180.905 139.161 180.742 138.633 180.415 138.26C180.089 137.877 179.65 137.686 179.099 137.686C178.521 137.686 178.049 137.887 177.685 138.288C177.321 138.689 177.139 139.212 177.139 139.856V144ZM188.831 142.348L189.363 143.552C188.803 143.972 188.108 144.182 187.277 144.182C186.465 144.182 185.849 143.935 185.429 143.44C185.009 142.945 184.799 142.231 184.799 141.298V137.77H183.497V136.454H184.813V133.78H186.339V136.454H188.943V137.77H186.339V141.326C186.339 142.287 186.727 142.768 187.501 142.768C187.912 142.768 188.355 142.628 188.831 142.348ZM192.646 144.182C192.049 144.182 191.493 144.047 190.98 143.776C190.467 143.505 190.056 143.113 189.748 142.6L190.742 141.704C190.966 142.068 191.251 142.353 191.596 142.558C191.951 142.754 192.31 142.852 192.674 142.852C193.038 142.852 193.337 142.763 193.57 142.586C193.803 142.399 193.92 142.175 193.92 141.914C193.92 141.541 193.705 141.251 193.276 141.046C193.164 140.981 192.861 140.855 192.366 140.668C191.862 140.453 191.545 140.309 191.414 140.234C190.611 139.814 190.21 139.193 190.21 138.372C190.21 137.747 190.443 137.229 190.91 136.818C191.395 136.407 192.021 136.202 192.786 136.202C193.859 136.202 194.685 136.589 195.264 137.364L194.368 138.316C193.92 137.765 193.369 137.49 192.716 137.49C192.408 137.49 192.161 137.569 191.974 137.728C191.797 137.887 191.708 138.083 191.708 138.316C191.708 138.689 191.918 138.965 192.338 139.142L193.108 139.464C193.603 139.669 193.957 139.828 194.172 139.94C195.031 140.388 195.46 141.023 195.46 141.844C195.46 142.507 195.199 143.062 194.676 143.51C194.153 143.958 193.477 144.182 192.646 144.182Z" fill="white"/>
<rect y="200" width="250" height="80" rx="18" fill="white" fill-opacity="0.1"/>
<rect x="15" y="217" width="46" height="46" rx="8" fill="white" fill-opacity="0.1"/>
<path d="M35.6673 249.333C35.6673 250.622 36.712 251.667 38.0007 251.667C39.2893 251.667 40.334 250.622 40.334 249.333C40.334 248.045 39.2893 247 38.0007 247C36.712 247 35.6673 248.045 35.6673 249.333Z" stroke="white" stroke-width="1.5" stroke-linecap="round" stroke-linejoin="round"/>
<path d="M44.9993 249.333C44.9993 250.622 46.044 251.667 47.3327 251.667C48.6213 251.667 49.666 250.622 49.666 249.333C49.666 248.045 48.6213 247 47.3327 247C46.044 247 44.9993 248.045 44.9993 249.333Z" stroke="white" stroke-width="1.5" stroke-linecap="round" stroke-linejoin="round"/>
<path d="M26.3333 249.333C26.3333 250.622 27.378 251.667 28.6667 251.667C29.9553 251.667 31 250.622 31 249.333C31 248.045 29.9553 247 28.6667 247C27.378 247 26.3333 248.045 26.3333 249.333Z" stroke="white" stroke-width="1.5" stroke-linecap="round" stroke-linejoin="round"/>
<path d="M35.6673 230.667C35.6673 231.955 36.712 233 38.0007 233C39.2893 233 40.334 231.955 40.334 230.667C40.334 229.378 39.2893 228.333 38.0007 228.333C36.712 228.333 35.6673 229.378 35.6673 230.667Z" stroke="white" stroke-width="1.5" stroke-linecap="round" stroke-linejoin="round"/>
<path d="M38 233L38 247" stroke="white" stroke-width="1.5" stroke-linecap="round" stroke-linejoin="round"/>
<path d="M38 238.833L32.1667 238.833C29.8333 238.833 28.6667 240 28.6667 242.333L28.6667 247" stroke="white" stroke-width="1.5" stroke-linecap="round" stroke-linejoin="round"/>
<path d="M47.334 247L47.334 242.333C47.334 240 46.1673 238.833 43.834 238.833L42.6907 238.833" stroke="white" stroke-width="1.5" stroke-linecap="round" stroke-linejoin="round"/>
<path d="M78.882 244H72.26V233.654H78.868V235.18H73.87V237.994H78.504V239.52H73.87V242.474H78.882V244ZM89.4566 234.564C88.5699 234.564 88.1266 235.059 88.1266 236.048V236.454H90.8286V237.77H88.1266V244H86.5866V237.77H82.7366V244H81.1966V237.77H79.9366V236.454H81.1966V236.02C81.1966 235.115 81.4766 234.415 82.0366 233.92C82.5966 233.416 83.3526 233.164 84.3046 233.164C85.0513 233.164 85.7886 233.346 86.5166 233.71L85.9846 234.956C85.3779 234.695 84.8693 234.564 84.4586 234.564C83.9266 234.564 83.5066 234.695 83.1986 234.956C82.8906 235.217 82.7366 235.581 82.7366 236.048V236.454H86.5866V236.076C86.5866 235.161 86.8246 234.447 87.3006 233.934C87.7859 233.421 88.4346 233.164 89.2466 233.164C89.8999 233.164 90.5019 233.313 91.0526 233.612L90.5766 234.844C90.1286 234.657 89.7553 234.564 89.4566 234.564ZM92.5366 235.446C92.2379 235.446 91.9859 235.348 91.7806 235.152C91.5846 234.947 91.4866 234.695 91.4866 234.396C91.4866 234.107 91.5846 233.864 91.7806 233.668C91.9859 233.472 92.2379 233.374 92.5366 233.374C92.8259 233.374 93.0686 233.472 93.2646 233.668C93.4699 233.864 93.5726 234.107 93.5726 234.396C93.5726 234.695 93.4699 234.947 93.2646 235.152C93.0686 235.348 92.8259 235.446 92.5366 235.446ZM93.2926 244H91.7526V236.454H93.2926V244ZM98.8192 244.168C97.6432 244.168 96.6865 243.799 95.9492 243.062C95.2025 242.315 94.8292 241.373 94.8292 240.234C94.8292 239.086 95.2072 238.139 95.9632 237.392C96.7285 236.645 97.6992 236.272 98.8752 236.272C99.6312 236.272 100.322 236.454 100.947 236.818C101.582 237.182 102.049 237.672 102.347 238.288L101.073 239.002C100.84 238.601 100.527 238.283 100.135 238.05C99.7525 237.807 99.3372 237.686 98.8892 237.686C98.1705 237.686 97.5732 237.929 97.0972 238.414C96.6212 238.909 96.3832 239.515 96.3832 240.234C96.3832 240.934 96.6165 241.531 97.0832 242.026C97.5405 242.511 98.1239 242.754 98.8332 242.754C99.2812 242.754 99.7105 242.633 100.121 242.39C100.532 242.147 100.835 241.839 101.031 241.466L102.305 242.208C101.997 242.796 101.526 243.272 100.891 243.636C100.266 243.991 99.5752 244.168 98.8192 244.168ZM104.484 235.46C104.185 235.46 103.933 235.362 103.728 235.166C103.522 234.961 103.42 234.709 103.42 234.41C103.42 234.121 103.522 233.878 103.728 233.682C103.933 233.486 104.185 233.388 104.484 233.388C104.773 233.388 105.016 233.486 105.212 233.682C105.408 233.878 105.506 234.121 105.506 234.41C105.506 234.709 105.408 234.961 105.212 235.166C105.016 235.362 104.773 235.46 104.484 235.46ZM105.226 236.454V244H103.686V236.454H105.226ZM114.325 240.08C114.325 240.323 114.306 240.57 114.269 240.822H108.375C108.487 241.429 108.753 241.909 109.173 242.264C109.602 242.619 110.171 242.796 110.881 242.796C111.31 242.796 111.758 242.721 112.225 242.572C112.701 242.423 113.107 242.227 113.443 241.984L114.087 243.118C113.144 243.818 112.057 244.168 110.825 244.168C109.499 244.168 108.491 243.781 107.801 243.006C107.119 242.231 106.779 241.298 106.779 240.206C106.779 239.067 107.133 238.129 107.843 237.392C108.561 236.645 109.49 236.272 110.629 236.272C111.721 236.272 112.607 236.613 113.289 237.294C113.979 237.985 114.325 238.913 114.325 240.08ZM110.629 237.602C110.05 237.602 109.555 237.784 109.145 238.148C108.743 238.503 108.487 238.974 108.375 239.562H112.771C112.705 238.974 112.472 238.503 112.071 238.148C111.679 237.784 111.198 237.602 110.629 237.602ZM117.38 244H115.84V236.454H117.352V237.518C117.576 237.126 117.898 236.818 118.318 236.594C118.738 236.37 119.214 236.258 119.746 236.258C120.576 236.258 121.276 236.529 121.846 237.07C122.424 237.621 122.714 238.4 122.714 239.408V244H121.16V239.842C121.16 239.161 120.996 238.633 120.67 238.26C120.343 237.877 119.904 237.686 119.354 237.686C118.775 237.686 118.299 237.891 117.926 238.302C117.562 238.703 117.38 239.226 117.38 239.87V244ZM129.085 242.348L129.617 243.552C129.057 243.972 128.362 244.182 127.531 244.182C126.719 244.182 126.103 243.935 125.683 243.44C125.263 242.945 125.053 242.231 125.053 241.298V237.77H123.751V236.454H125.067V233.78H126.593V236.454H129.197V237.77H126.593V241.326C126.593 242.287 126.981 242.768 127.755 242.768C128.166 242.768 128.609 242.628 129.085 242.348ZM141.951 242.348L142.483 243.552C141.923 243.972 141.227 244.182 140.397 244.182C139.585 244.182 138.969 243.935 138.549 243.44C138.129 242.945 137.919 242.231 137.919 241.298V237.77H136.617V236.454H137.933V233.78H139.459V236.454H142.063V237.77H139.459V241.326C139.459 242.287 139.846 242.768 140.621 242.768C141.031 242.768 141.475 242.628 141.951 242.348ZM150.528 240.08C150.528 240.323 150.509 240.57 150.472 240.822H144.578C144.69 241.429 144.956 241.909 145.376 242.264C145.805 242.619 146.375 242.796 147.084 242.796C147.513 242.796 147.961 242.721 148.428 242.572C148.904 242.423 149.31 242.227 149.646 241.984L150.29 243.118C149.347 243.818 148.26 244.168 147.028 244.168C145.703 244.168 144.695 243.781 144.004 243.006C143.323 242.231 142.982 241.298 142.982 240.206C142.982 239.067 143.337 238.129 144.046 237.392C144.765 236.645 145.693 236.272 146.832 236.272C147.924 236.272 148.811 236.613 149.492 237.294C150.183 237.985 150.528 238.913 150.528 240.08ZM146.832 237.602C146.253 237.602 145.759 237.784 145.348 238.148C144.947 238.503 144.69 238.974 144.578 239.562H148.974C148.909 238.974 148.675 238.503 148.274 238.148C147.882 237.784 147.401 237.602 146.832 237.602ZM157.937 237.504V236.454H159.421V244H157.937V242.964C157.255 243.776 156.397 244.182 155.361 244.182C154.269 244.182 153.368 243.799 152.659 243.034C151.949 242.269 151.595 241.317 151.595 240.178C151.595 239.049 151.949 238.115 152.659 237.378C153.368 236.641 154.269 236.272 155.361 236.272C156.397 236.272 157.255 236.683 157.937 237.504ZM155.571 242.768C156.271 242.768 156.854 242.521 157.321 242.026C157.778 241.541 158.007 240.939 158.007 240.22C158.007 239.511 157.778 238.913 157.321 238.428C156.854 237.933 156.271 237.686 155.571 237.686C154.852 237.686 154.269 237.933 153.821 238.428C153.373 238.913 153.149 239.515 153.149 240.234C153.149 240.953 153.373 241.555 153.821 242.04C154.269 242.525 154.852 242.768 155.571 242.768ZM170.256 236.244C171.161 236.244 171.889 236.538 172.44 237.126C173 237.695 173.28 238.484 173.28 239.492V244H171.74V239.744C171.74 239.091 171.586 238.587 171.278 238.232C170.97 237.868 170.55 237.686 170.018 237.686C169.458 237.686 169.001 237.877 168.646 238.26C168.301 238.643 168.128 239.151 168.128 239.786V244H166.588V239.772C166.588 239.128 166.429 238.619 166.112 238.246C165.804 237.873 165.384 237.686 164.852 237.686C164.292 237.686 163.835 237.882 163.48 238.274C163.125 238.657 162.948 239.17 162.948 239.814V244H161.408V236.454H162.92V237.546C163.144 237.145 163.457 236.827 163.858 236.594C164.259 236.361 164.707 236.244 165.202 236.244C165.715 236.253 166.182 236.379 166.602 236.622C167.022 236.865 167.33 237.201 167.526 237.63C167.787 237.21 168.161 236.874 168.646 236.622C169.141 236.37 169.677 236.244 170.256 236.244ZM178.118 243.986H176.802L174.226 236.454H175.85L177.544 241.872L179.49 236.454H180.582L182.584 241.872L184.222 236.454H185.846L183.312 243.986H181.996L180.036 238.638L178.118 243.986ZM186.362 240.22C186.362 239.128 186.736 238.195 187.482 237.42C188.238 236.645 189.195 236.258 190.352 236.258C191.51 236.258 192.462 236.645 193.208 237.42C193.964 238.185 194.342 239.119 194.342 240.22C194.342 241.34 193.964 242.283 193.208 243.048C192.471 243.813 191.519 244.196 190.352 244.196C189.195 244.196 188.238 243.813 187.482 243.048C186.736 242.273 186.362 241.331 186.362 240.22ZM192.788 240.22C192.788 239.529 192.55 238.937 192.074 238.442C191.617 237.938 191.043 237.686 190.352 237.686C189.671 237.686 189.092 237.938 188.616 238.442C188.15 238.937 187.916 239.529 187.916 240.22C187.916 240.92 188.15 241.517 188.616 242.012C189.092 242.507 189.671 242.754 190.352 242.754C191.034 242.754 191.608 242.507 192.074 242.012C192.55 241.517 192.788 240.92 192.788 240.22ZM197.429 244H195.889V236.454H197.359V237.532C197.807 236.683 198.521 236.258 199.501 236.258C199.818 236.258 200.117 236.3 200.397 236.384L200.257 237.882C200.005 237.789 199.729 237.742 199.431 237.742C198.824 237.742 198.339 237.947 197.975 238.358C197.611 238.769 197.429 239.361 197.429 240.136V244ZM208.382 244H206.394L203.678 240.57L203.02 241.172V244H201.48V233.388H203.02V239.366L206.198 236.454H208.228L204.756 239.59L208.382 244Z" fill="white"/>
</svg>
