<svg width="170" height="58" viewBox="0 0 170 58" fill="none" xmlns="http://www.w3.org/2000/svg">
<path d="M63.094 22.1668C63.0791 22.0575 62.9844 21.9969 62.9059 21.9903C62.8278 21.9837 61.2994 21.9603 61.2994 21.9603C61.2994 21.9603 60.0212 20.7092 59.8949 20.5819C59.7687 20.4546 59.5221 20.493 59.4262 20.5218C59.425 20.5225 59.1861 20.5969 58.7841 20.7224C58.7168 20.5026 58.6179 20.2325 58.4767 19.9611C58.0217 19.0858 57.3552 18.6229 56.5499 18.6217C56.5487 18.6217 56.5481 18.6217 56.5469 18.6217C56.4909 18.6217 56.4355 18.6271 56.3796 18.6319C56.3558 18.6031 56.3319 18.5749 56.3069 18.5473C55.9561 18.1691 55.5064 17.9848 54.9674 18.001C53.9274 18.031 52.8916 18.788 52.0518 20.1328C51.4609 21.079 51.0112 22.2677 50.8838 23.188C49.6896 23.5608 48.8545 23.8213 48.836 23.8274C48.2333 24.0183 48.2142 24.0369 48.1356 24.6096C48.0772 25.0425 46.5 37.3352 46.5 37.3352L59.7174 39.6393L65.4461 38.2039C65.4461 38.2039 63.109 22.2761 63.094 22.1668ZM58.1224 20.9289C57.818 21.0237 57.4719 21.1318 57.0967 21.2489C57.089 20.7182 57.0264 19.9797 56.781 19.3416C57.5702 19.4922 57.9586 20.3922 58.1224 20.9289ZM56.4052 21.465C55.7125 21.6811 54.9566 21.917 54.1984 22.1536C54.4116 21.3305 54.8161 20.511 55.3128 19.9737C55.4975 19.7738 55.7559 19.5511 56.0621 19.4238C56.3498 20.029 56.4123 20.8857 56.4052 21.465ZM54.9882 18.6986C55.2324 18.6932 55.4379 18.7472 55.6136 18.8637C55.3325 19.0108 55.0609 19.2221 54.806 19.4977C54.1454 20.2121 53.6391 21.3209 53.4372 22.3907C52.8076 22.587 52.1917 22.7798 51.6247 22.9563C51.9827 21.2723 53.383 18.7454 54.9882 18.6986Z" fill="#949699"/>
<path d="M62.907 21.9907C62.8291 21.9841 61.3007 21.9606 61.3007 21.9606C61.3007 21.9606 60.0225 20.7095 59.8963 20.5822C59.8492 20.5348 59.7855 20.5102 59.7188 20.5L59.7194 39.6386L65.4474 38.2037C65.4474 38.2037 63.1103 22.2764 63.0953 22.1672C63.0804 22.0579 62.9851 21.9973 62.907 21.9907Z" fill="#575759"/>
<path d="M56.5429 24.9599L55.8777 27.4688C55.8777 27.4688 55.1355 27.1284 54.2558 27.1842C52.9656 27.2665 52.9519 28.0865 52.9651 28.2925C53.0353 29.4145 55.964 29.6595 56.1284 32.2878C56.2577 34.3553 55.0402 35.7697 53.2861 35.8814C51.1806 36.0154 50.0215 34.7635 50.0215 34.7635L50.4676 32.8509C50.4676 32.8509 51.6344 33.7382 52.5684 33.6788C53.1783 33.6397 53.3963 33.1397 53.3742 32.786C53.2825 31.3224 50.8976 31.4089 50.747 29.0039C50.6201 26.9801 51.9388 24.9293 54.8484 24.7444C55.9694 24.6718 56.5429 24.9599 56.5429 24.9599Z" fill="white"/>
<path d="M72.9908 30.2129C72.332 29.8526 71.9936 29.549 71.9936 29.1315C71.9936 28.6004 72.4638 28.2592 73.1981 28.2592C74.0529 28.2592 74.8162 28.6194 74.8162 28.6194L75.4181 26.7604C75.4181 26.7604 74.8645 26.324 73.2353 26.324C70.9679 26.324 69.3965 27.6328 69.3965 29.4727C69.3965 30.516 70.1303 31.3127 71.1091 31.8813C71.8996 32.3363 72.182 32.659 72.182 33.133C72.182 33.6261 71.7868 34.0244 71.053 34.0244C69.9594 34.0244 68.9269 33.4551 68.9269 33.4551L68.2871 35.3141C68.2871 35.3141 69.2411 35.959 70.8463 35.959C73.1798 35.959 74.8545 34.802 74.8545 32.7156C74.8539 31.5973 74.0074 30.8006 72.9908 30.2129Z" fill="black"/>
<path d="M82.2869 26.3058C81.139 26.3058 80.2358 26.856 79.5398 27.6902L79.502 27.6711L80.4992 22.4175H77.9022L75.3809 35.789H77.9778L78.8433 31.2183C79.1817 29.4921 80.0662 28.4304 80.8944 28.4304C81.4775 28.4304 81.7038 28.8287 81.7038 29.398C81.7038 29.7582 81.6659 30.1947 81.5909 30.5549L80.6126 35.7896H83.2097L84.2256 30.384C84.3386 29.8148 84.4141 29.1324 84.4141 28.6769C84.4131 27.1972 83.6417 26.3058 82.2869 26.3058Z" fill="black"/>
<path d="M90.2833 26.3054C87.1591 26.3054 85.0898 29.1505 85.0898 32.3177C85.0898 34.347 86.3315 35.978 88.6652 35.978C91.7323 35.978 93.8024 33.2091 93.8024 29.9657C93.8024 28.0882 92.7106 26.3054 90.2833 26.3054ZM89.0037 33.9682C88.1192 33.9682 87.7427 33.2097 87.7427 32.2611C87.7427 30.763 88.5145 28.3163 89.9257 28.3163C90.8479 28.3163 91.1484 29.113 91.1484 29.8907C91.1484 31.5025 90.3777 33.9682 89.0037 33.9682Z" fill="black"/>
<path d="M100.445 26.3054C98.692 26.3054 97.6974 27.8607 97.6974 27.8607H97.6601L97.8107 26.4573H95.515C95.4022 27.4058 95.1947 28.8468 94.9883 29.9282L93.1816 39.506H95.7787L96.4932 35.6367H96.5501C96.5501 35.6367 97.0829 35.978 98.0745 35.978C101.123 35.978 103.117 32.8298 103.117 29.643C103.117 27.8798 102.345 26.3054 100.445 26.3054ZM97.9611 34.0058C97.2869 34.0058 96.8879 33.6265 96.8879 33.6265L97.3208 31.1798C97.6222 29.5489 98.4687 28.4675 99.3723 28.4675C100.163 28.4675 100.407 29.2071 100.407 29.9091C100.407 31.5972 99.4099 34.0058 97.9611 34.0058Z" fill="black"/>
<path d="M106.824 22.5505C105.997 22.5505 105.338 23.2145 105.338 24.0677C105.338 24.8454 105.827 25.3766 106.561 25.3766H106.598C107.408 25.3766 108.104 24.8263 108.123 23.8594C108.123 23.1007 107.615 22.5505 106.824 22.5505Z" fill="black"/>
<path d="M103.193 35.7891H105.79L107.559 26.5149H104.943L103.193 35.7891Z" fill="black"/>
<path d="M114.163 26.4956H112.356L112.45 26.0592C112.6 25.1678 113.128 24.371 113.993 24.371C114.455 24.371 114.821 24.5038 114.821 24.5038L115.329 22.4555C115.329 22.4555 114.877 22.228 113.917 22.228C112.995 22.228 112.074 22.4936 111.377 23.1003C110.493 23.859 110.079 24.9588 109.872 26.0592L109.797 26.4956H108.592L108.216 28.4684H109.421L108.047 35.7895H110.644L112.018 28.4684H113.805L114.163 26.4956Z" fill="black"/>
<path d="M120.411 26.5148C120.411 26.5148 118.788 30.6371 118.059 32.8873H118.021C117.971 32.1626 117.381 26.5148 117.381 26.5148H114.652L116.215 35.0304C116.253 35.2197 116.234 35.3341 116.158 35.4669C115.857 36.0544 115.349 36.6238 114.747 37.0412C114.258 37.4015 113.712 37.6288 113.279 37.7807L113.994 39.9999C114.521 39.8863 115.612 39.4498 116.534 38.5774C117.72 37.4586 118.811 35.7324 119.94 33.3804L123.12 26.5142H120.411V26.5148Z" fill="black"/>
</svg>
