<svg width="78" height="22" viewBox="0 0 78 22" fill="none" xmlns="http://www.w3.org/2000/svg">
<path d="M17.4572 4.1668C17.4424 4.05752 17.3476 3.9969 17.2691 3.9903C17.1911 3.9837 15.6627 3.96029 15.6627 3.96029C15.6627 3.96029 14.3845 2.70916 14.2582 2.58188C14.132 2.4546 13.8853 2.49303 13.7895 2.52184C13.7883 2.52245 13.5494 2.59689 13.1474 2.72236C13.0801 2.50264 12.9812 2.23248 12.84 1.96112C12.385 1.08581 11.7185 0.622942 10.9132 0.621746C10.912 0.621746 10.9114 0.621746 10.9102 0.621746C10.8542 0.621746 10.7988 0.627148 10.7429 0.631948C10.719 0.603132 10.6952 0.574918 10.6702 0.547299C10.3194 0.169081 9.86969 -0.0152262 9.33064 0.000983191C8.29067 0.0310006 7.25492 0.78804 6.41509 2.13282C5.82422 3.07896 5.37451 4.26768 5.24707 5.188C4.05284 5.56081 3.21777 5.82134 3.19931 5.82737C2.59654 6.01827 2.57749 6.03688 2.49886 6.60962C2.44049 7.04246 0.863281 19.3352 0.863281 19.3352L14.0807 21.6393L19.8094 20.2039C19.8094 20.2039 17.4722 4.27608 17.4572 4.1668ZM12.4856 2.92889C12.1813 3.02373 11.8352 3.13181 11.46 3.24887C11.4522 2.71816 11.3897 1.97974 11.1443 1.34156C11.9335 1.49225 12.3218 2.39218 12.4856 2.92889ZM10.7685 3.465C10.0758 3.6811 9.3199 3.91704 8.56169 4.1536C8.77491 3.33051 9.17936 2.51104 9.67611 1.97372C9.86075 1.77381 10.1192 1.55108 10.4254 1.42381C10.7131 2.02897 10.7756 2.88565 10.7685 3.465ZM9.35147 0.698587C9.59567 0.693183 9.80116 0.747218 9.97688 0.863683C9.69576 1.01077 9.42414 1.22209 9.16923 1.49765C8.50867 2.21207 8.00239 3.32091 7.80047 4.39073C7.1709 4.58703 6.55502 4.77978 5.988 4.95628C6.34598 3.27229 7.74626 0.745413 9.35147 0.698587Z" fill="#949699"/>
<path d="M17.2691 3.9903C17.1911 3.9837 15.6627 3.96029 15.6627 3.96029C15.6627 3.96029 14.3845 2.70916 14.2582 2.58188C14.2111 2.53446 14.148 2.51015 14.0813 2.49995L14.0819 21.6385L19.8094 20.2039C19.8094 20.2039 17.4722 4.27608 17.4572 4.1668C17.4424 4.05752 17.3476 3.9969 17.2691 3.9903Z" fill="#575759"/>
<path d="M10.906 6.95993L10.2407 9.46877C10.2407 9.46877 9.49859 9.12838 8.61885 9.18421C7.32872 9.26648 7.315 10.0865 7.32814 10.2925C7.39841 11.4145 10.3271 11.6595 10.4915 14.2878C10.6207 16.3553 9.40326 17.7697 7.64918 17.8814C5.54364 18.0154 4.38456 16.7635 4.38456 16.7635L4.83069 14.8509C4.83069 14.8509 5.9975 15.7382 6.93143 15.6788C7.54136 15.6397 7.75934 15.1397 7.7373 14.786C7.6456 13.3224 5.26071 13.4089 5.11004 11.0039C4.98316 8.98011 6.30189 6.92931 9.21148 6.74441C10.3324 6.67177 10.906 6.95993 10.906 6.95993Z" fill="white"/>
<path d="M27.3532 12.2129C26.6945 11.8527 26.356 11.549 26.356 11.1316C26.356 10.6004 26.8262 10.2592 27.5606 10.2592C28.4153 10.2592 29.1787 10.6195 29.1787 10.6195L29.7806 8.76046C29.7806 8.76046 29.227 8.32401 27.5977 8.32401C25.3303 8.32401 23.759 9.63279 23.759 11.4727C23.759 12.516 24.4927 13.3127 25.4716 13.8813C26.2621 14.3363 26.5444 14.659 26.5444 15.133C26.5444 15.6261 26.1493 16.0244 25.4155 16.0244C24.3219 16.0244 23.2894 15.4552 23.2894 15.4552L22.6496 17.3142C22.6496 17.3142 23.6036 17.959 25.2088 17.959C27.5423 17.959 29.217 16.802 29.217 14.7156C29.2164 13.5973 28.3699 12.8006 27.3532 12.2129Z" fill="black"/>
<path d="M36.6495 8.30573C35.5016 8.30573 34.5984 8.85595 33.9023 9.69018L33.8646 9.67109L34.8618 4.41743H32.2647L29.7434 17.789H32.3404L33.2059 13.2182C33.5443 11.492 34.4288 10.4303 35.257 10.4303C35.8401 10.4303 36.0664 10.8287 36.0664 11.3979C36.0664 11.7582 36.0285 12.1946 35.9535 12.5549L34.9752 17.7896H37.5723L38.5881 12.384C38.7012 11.8147 38.7767 11.1324 38.7767 10.6768C38.7756 9.19713 38.0043 8.30573 36.6495 8.30573Z" fill="black"/>
<path d="M44.6467 8.3055C41.5226 8.3055 39.4533 11.1506 39.4533 14.3178C39.4533 16.3471 40.695 17.9781 43.0287 17.9781C46.0958 17.9781 48.1658 15.2092 48.1658 11.9658C48.1658 10.0883 47.074 8.3055 44.6467 8.3055ZM43.3671 15.9683C42.4827 15.9683 42.1062 15.2098 42.1062 14.2612C42.1062 12.7631 42.878 10.3164 44.2892 10.3164C45.2113 10.3164 45.5119 11.1131 45.5119 11.8907C45.5119 13.5026 44.7412 15.9683 43.3671 15.9683Z" fill="black"/>
<path d="M54.8083 8.3055C53.0553 8.3055 52.0607 9.86083 52.0607 9.86083H52.0234L52.1741 8.45733H49.8783C49.7656 9.4059 49.558 10.8469 49.3516 11.9282L47.545 21.5061H50.1421L50.8566 17.6368H50.9134C50.9134 17.6368 51.4462 17.9781 52.4378 17.9781C55.486 17.9781 57.4806 14.8299 57.4806 11.643C57.4806 9.87991 56.7087 8.3055 54.8083 8.3055ZM52.3244 16.0059C51.6502 16.0059 51.2513 15.6266 51.2513 15.6266L51.6842 13.1799C51.9855 11.5489 52.8321 10.4676 53.7356 10.4676C54.5261 10.4676 54.7704 11.2072 54.7704 11.9092C54.7704 13.5973 53.7732 16.0059 52.3244 16.0059Z" fill="black"/>
<path d="M61.1875 4.55052C60.3599 4.55052 59.7011 5.21444 59.7011 6.06772C59.7011 6.84539 60.1903 7.37654 60.924 7.37654H60.9616C61.771 7.37654 62.4671 6.82633 62.486 5.85933C62.486 5.10068 61.9779 4.55052 61.1875 4.55052Z" fill="black"/>
<path d="M57.556 17.7891H60.1524L61.9217 8.51498H59.3057L57.556 17.7891Z" fill="black"/>
<path d="M68.5267 8.49554H66.7201L66.8138 8.05909C66.9644 7.16769 67.4915 6.37096 68.3571 6.37096C68.819 6.37096 69.1847 6.50375 69.1847 6.50375L69.6928 4.45541C69.6928 4.45541 69.2412 4.22794 68.2812 4.22794C67.3591 4.22794 66.4377 4.4935 65.7411 5.10026C64.8565 5.8589 64.4425 6.95869 64.2358 8.05909L64.1609 8.49554H62.9562L62.5797 10.4683H63.7846L62.4108 17.7894H65.0079L66.3815 10.4683H68.1692L68.5267 8.49554Z" fill="black"/>
<path d="M74.7737 8.51469C74.7737 8.51469 73.1504 12.637 72.4214 14.8872H72.3836C72.3341 14.1626 71.7438 8.51469 71.7438 8.51469H69.0151L70.5777 17.0303C70.6156 17.2196 70.5966 17.334 70.5212 17.4668C70.2195 18.0544 69.7117 18.6238 69.1095 19.0412C68.6204 19.4014 68.0747 19.6287 67.6421 19.7806L68.357 21.9998C68.8841 21.8862 69.975 21.4497 70.8972 20.5773C72.083 19.4585 73.174 17.7323 74.3029 15.3803L77.4831 8.51408L74.7737 8.51469Z" fill="black"/>
</svg>
