<svg width="170" height="58" viewBox="0 0 170 58" fill="none" xmlns="http://www.w3.org/2000/svg">
<path d="M55.8412 35.7362C56.2978 36.8568 56.7394 37.9405 57.1987 39.0674C55.2409 37.9784 53.334 36.9191 51.4295 35.8556C51.2862 35.7736 51.1235 35.7314 50.9583 35.7336C46.654 35.7368 42.3497 35.7375 38.0453 35.7355C36.5908 35.7352 35.2261 34.5033 35.0516 33.0571C35.0171 32.7548 35.0008 32.4506 35.0028 32.1463C35.0024 28.8384 35.0021 25.5305 35.002 22.2226C34.9854 21.7558 35.0718 21.2911 35.2549 20.8615C35.438 20.4318 35.7134 20.0477 36.0615 19.7363C36.5976 19.2291 37.3062 18.944 38.0442 18.9387C47.3101 18.9317 56.576 18.9305 65.8419 18.935C67.2734 18.9353 68.6469 20.1498 68.839 21.5554C68.8743 21.8296 68.8909 22.1058 68.8886 22.3822C68.8889 25.764 68.889 29.1458 68.8887 32.5277C68.9016 33.3055 68.6285 34.0609 68.1211 34.6507C67.6138 35.2404 66.9077 35.6233 66.1367 35.7268C66.0447 35.7366 65.9521 35.7395 65.8596 35.7356C62.6383 35.7361 59.417 35.7363 56.1957 35.7362C56.0943 35.7362 55.9929 35.7362 55.8412 35.7362Z" fill="#6F7073"/>
<path d="M94.4108 25.7173C94.2265 26.4584 94.0549 27.1364 93.8896 27.8159C93.5532 29.1994 93.2194 30.5834 92.8881 31.9681C92.8573 32.0972 92.8065 32.1499 92.666 32.1472C92.2126 32.1382 91.7588 32.1356 91.3056 32.1484C91.2771 32.1536 91.2478 32.1529 91.2196 32.1463C91.1914 32.1396 91.1649 32.1272 91.1417 32.1097C91.1186 32.0923 91.0993 32.0702 91.0851 32.045C91.0709 32.0197 91.0621 31.9918 91.0592 31.9629C90.5586 29.9817 90.057 28.0006 89.5546 26.0198C89.5332 25.9355 89.5078 25.8523 89.4635 25.6945C89.3205 27.1743 89.1878 28.572 89.0494 29.9691C88.9823 30.6471 88.9013 31.3237 88.8347 32.0017C88.8247 32.1032 88.8085 32.1467 88.6956 32.146C87.983 32.1416 87.2702 32.1401 86.5576 32.147C86.415 32.1484 86.423 32.0919 86.4367 31.9843C86.5212 31.3187 86.594 30.6516 86.6792 29.9861C86.7808 29.1931 86.8951 28.4016 86.9964 27.6085C87.0976 26.8154 87.1852 26.0205 87.2869 25.2274C87.3862 24.4526 87.501 23.6798 87.5962 22.9046C87.6138 22.7612 87.6555 22.7274 87.7955 22.7284C88.7488 22.7351 89.7022 22.7379 90.6554 22.726C90.6817 22.7218 90.7085 22.7232 90.7342 22.7303C90.7598 22.7373 90.7836 22.7497 90.8041 22.7667C90.8246 22.7836 90.8412 22.8048 90.8528 22.8287C90.8645 22.8526 90.8709 22.8787 90.8716 22.9052C91.1379 24.1665 91.4019 25.4283 91.6638 26.6905C91.7454 27.0843 91.8179 27.48 91.9102 27.9548C92.1133 26.8461 92.3125 25.8171 92.5533 24.7968C92.7022 24.1658 92.8525 23.5351 92.9957 22.9029C93.0217 22.7883 93.0558 22.7283 93.1905 22.729C94.1901 22.7343 95.1898 22.7362 96.1893 22.7273C96.3443 22.7259 96.3541 22.8183 96.3672 22.9124C96.4509 23.513 96.5274 24.1146 96.6087 24.7155C96.7306 25.6166 96.8535 26.5175 96.9773 27.4183C97.0959 28.2923 97.2136 29.1664 97.3306 30.0406C97.4153 30.6687 97.4943 31.2976 97.5895 31.9241C97.614 32.0852 97.6119 32.1518 97.4157 32.1485C96.7032 32.1366 95.9904 32.1385 95.2778 32.1478C95.117 32.15 95.0706 32.0884 95.0568 31.945C94.9462 30.7998 94.8351 29.6546 94.7167 28.5101C94.623 27.6039 94.5187 26.6987 94.4108 25.7173Z" fill="black"/>
<path d="M105.906 25.7813C105.415 27.8304 104.924 29.8795 104.433 31.9287C104.431 31.9639 104.421 31.9981 104.404 32.0291C104.387 32.06 104.363 32.0869 104.335 32.108C104.307 32.129 104.274 32.1437 104.24 32.151C104.205 32.1583 104.17 32.1581 104.135 32.1503C103.739 32.1289 103.339 32.131 102.942 32.1489C102.725 32.1587 102.628 32.1089 102.571 31.8782C102.067 29.8431 101.543 27.8096 100.999 25.7777C100.943 26.3209 100.887 26.8641 100.831 27.4073C100.745 28.2499 100.659 29.0926 100.574 29.9353C100.509 30.5858 100.439 31.236 100.392 31.8878C100.378 32.0869 100.328 32.1537 100.119 32.1491C99.4528 32.1347 98.7862 32.1398 98.1198 32.1469C97.9723 32.1485 97.9357 32.1192 97.9566 31.9631C98.107 30.8428 98.2432 29.7205 98.3889 28.5996C98.5299 27.515 98.6805 26.4318 98.8201 25.347C98.9222 24.554 99.0159 23.7598 99.1069 22.9653C99.1251 22.8065 99.1591 22.7238 99.3546 22.7264C100.289 22.7387 101.224 22.7355 102.159 22.7284C102.315 22.7272 102.368 22.7644 102.404 22.928C102.763 24.5438 103.12 26.1597 103.397 27.7921C103.4 27.8069 103.415 27.8195 103.453 27.874C103.528 27.499 103.6 27.1584 103.663 26.816C103.903 25.494 104.233 24.1923 104.541 22.8853C104.573 22.7493 104.623 22.7299 104.739 22.7303C105.72 22.7331 106.701 22.735 107.682 22.7287C107.842 22.7276 107.872 22.7828 107.891 22.9336C108.005 23.8357 108.137 24.7354 108.259 25.6365C108.378 26.5197 108.49 27.4038 108.609 28.287C108.729 29.1792 108.855 30.0706 108.977 30.9625C109.023 31.2994 109.062 31.6371 109.109 31.9739C109.127 32.0985 109.103 32.1496 108.956 32.1478C108.225 32.139 107.493 32.1404 106.762 32.1471C106.64 32.1482 106.612 32.1113 106.6 31.9959C106.534 31.3366 106.457 30.6783 106.386 30.0194C106.299 29.2142 106.213 28.4089 106.128 27.6034C106.065 26.9997 106.004 26.3957 105.943 25.7918L105.906 25.7813Z" fill="black"/>
<path d="M129.829 27.4351C129.829 25.9473 129.832 24.4594 129.824 22.9717C129.823 22.7859 129.86 22.7257 130.06 22.7268C131.624 22.7359 133.189 22.7361 134.753 22.7274C134.944 22.7265 135.005 22.7706 135 22.9686C134.985 23.4857 134.984 24.0038 135 24.5208C135.006 24.7249 134.936 24.7605 134.75 24.7578C134.028 24.747 133.306 24.7596 132.584 24.7488C132.412 24.7463 132.367 24.7874 132.372 24.9599C132.387 25.3845 132.387 25.8102 132.372 26.2348C132.366 26.4227 132.407 26.4857 132.608 26.4806C133.2 26.4658 133.793 26.4807 134.386 26.4719C134.552 26.4694 134.625 26.4931 134.619 26.6889C134.602 27.1967 134.603 27.7056 134.619 28.2134C134.624 28.3952 134.564 28.4224 134.402 28.42C133.792 28.4108 133.18 28.4217 132.57 28.4126C132.412 28.4102 132.369 28.4545 132.373 28.6108C132.384 29.0541 132.384 29.4976 132.373 29.9413C132.369 30.0964 132.409 30.1411 132.568 30.1392C133.299 30.1304 134.031 30.1435 134.762 30.13C134.963 30.1263 135.004 30.1864 135 30.3752C134.986 30.9016 134.988 31.4287 134.999 31.9553C135.002 32.1155 134.953 32.1481 134.799 32.1475C133.207 32.1414 131.615 32.1391 130.023 32.1497C129.825 32.151 129.826 32.0701 129.827 31.9262C129.83 30.4291 129.831 28.9321 129.829 27.4351Z" fill="black"/>
<path d="M109.873 27.4413C109.873 25.954 109.876 24.4667 109.869 22.9795C109.868 22.8047 109.905 22.7512 110.091 22.7522C111.655 22.7605 113.219 22.7609 114.783 22.7534C114.952 22.7528 115.02 22.7789 115.014 22.9716C114.998 23.4977 115 24.0248 115.013 24.551C115.018 24.7248 114.971 24.7633 114.802 24.7608C114.109 24.7507 113.414 24.7732 112.721 24.7485C112.442 24.7385 112.391 24.8225 112.407 25.0772C112.428 25.474 112.428 25.8715 112.409 26.2683C112.402 26.4367 112.44 26.4834 112.613 26.4801C113.214 26.4684 113.816 26.4873 114.417 26.4694C114.636 26.4628 114.674 26.5325 114.668 26.7303C114.653 27.2195 114.656 27.7096 114.667 28.1989C114.67 28.3708 114.636 28.4332 114.445 28.4289C113.835 28.4148 113.224 28.428 112.613 28.4205C112.462 28.4186 112.404 28.4503 112.409 28.6171C112.422 29.0601 112.424 29.5042 112.409 29.947C112.402 30.1262 112.459 30.1595 112.625 30.1574C113.346 30.1483 114.068 30.1587 114.79 30.1498C114.971 30.1475 115.052 30.175 115.045 30.3855C115.029 30.9115 115.032 31.4386 115.044 31.9648C115.048 32.1407 114.992 32.1796 114.824 32.1789C113.242 32.1727 111.659 32.1696 110.077 32.1816C109.852 32.1834 109.872 32.0756 109.872 31.9309C109.874 30.4343 109.874 28.9378 109.873 27.4413Z" fill="black"/>
<path d="M129.106 24.9019C128.707 24.8004 128.3 24.7327 127.89 24.6996C126.612 24.6215 125.734 25.5293 125.51 26.6345C125.335 27.4976 125.38 28.361 125.894 29.1278C126.437 29.9397 127.235 30.2056 128.174 30.1162C128.491 30.0843 128.803 30.0189 129.106 29.9212C129.106 30.6433 129.103 31.3523 129.11 32.0612C129.111 32.1856 129.039 32.1856 128.96 32.2037C127.119 32.6255 125.454 32.3367 124.072 30.9678C123.286 30.1896 122.896 29.2237 122.766 28.1342C122.636 27.0417 122.715 25.9773 123.243 25.0004C123.59 24.317 124.105 23.7322 124.738 23.3002C125.371 22.8682 126.103 22.6029 126.867 22.529C127.528 22.4583 128.196 22.4809 128.851 22.5961C129.029 22.6235 129.121 22.6904 129.114 22.9098C129.093 23.5651 129.106 24.2214 129.106 24.9019Z" fill="black"/>
<path d="M77.3888 29.9424C77.3888 30.641 77.3861 31.3335 77.3916 32.026C77.3925 32.1375 77.3601 32.1761 77.2507 32.2053C74.7423 32.876 71.8425 31.7016 71.1655 28.7613C70.8621 27.4431 70.904 26.1434 71.568 24.9368C72.3392 23.5357 73.5405 22.734 75.1426 22.5301C75.8035 22.4577 76.4714 22.4794 77.1262 22.5943C77.304 22.6219 77.4041 22.6754 77.3965 22.9019C77.3746 23.5567 77.3888 24.2128 77.3888 24.8935C76.9721 24.7992 76.5494 24.7337 76.1237 24.6977C75.6327 24.6745 75.148 24.8158 74.7464 25.0991C74.3448 25.3825 74.0492 25.7918 73.9066 26.2622C73.5807 27.2293 73.6054 28.2039 74.1625 29.0948C74.6862 29.9323 75.4989 30.2059 76.4487 30.1174C76.7571 30.0886 77.0604 30.0052 77.3888 29.9424Z" fill="black"/>
<path d="M39.1192 24.4778C39.1148 24.5 39.1163 24.5231 39.1236 24.5446C39.1309 24.5661 39.1437 24.5854 39.1608 24.6004C39.2222 24.6646 39.1957 24.7365 39.1791 24.8076C39.1737 24.8298 39.1745 24.8531 39.1813 24.8749C39.1882 24.8968 39.2009 24.9163 39.2181 24.9314C39.2757 24.9963 39.2508 25.0685 39.2365 25.1397L39.3997 26.0321C39.5275 26.2918 39.5261 26.5817 39.5902 26.8563C39.6529 27.0952 39.6992 27.3382 39.7285 27.5835C39.8158 28.1658 39.9365 28.7426 40.09 29.311C40.1019 29.3641 40.1115 29.4178 40.1222 29.4712C40.2519 29.6732 40.2209 29.4022 40.2865 29.4156C40.5584 29.0901 40.6736 28.6766 40.9003 28.3252C40.9769 28.1925 41.0463 28.0557 41.108 27.9154C41.0987 27.8044 41.177 27.7296 41.2216 27.6408C41.4189 27.3629 41.586 27.0647 41.72 26.7513C41.7088 26.6396 41.7883 26.565 41.8331 26.4763C42.0114 26.2356 42.1596 25.974 42.2746 25.6974C42.2652 25.5864 42.3435 25.5115 42.3883 25.4228C42.7777 24.8625 43.0127 24.2164 43.3804 23.644C43.3733 23.5534 43.4364 23.5179 43.5047 23.4863L43.6185 23.3729C43.6507 23.2974 43.7111 23.2375 43.7869 23.206C43.8819 23.2026 43.975 23.178 44.0592 23.1339C44.1223 23.0909 44.1953 23.065 44.2714 23.0586C44.3474 23.0522 44.4238 23.0656 44.4931 23.0974C44.756 23.1585 44.9861 23.3166 45.1377 23.5399C45.2428 23.5885 45.2432 23.6954 45.2746 23.7851C45.6229 25.4252 45.9634 27.0674 46.5673 28.6397C46.6094 28.6644 46.6434 28.7008 46.6651 28.7445C46.6868 28.7883 46.6953 28.8374 46.6895 28.8859C46.692 28.7704 46.6363 28.6417 46.7298 28.5371C46.774 28.4674 46.7894 28.3833 46.7728 28.3024C46.7537 28.2606 46.7451 28.2147 46.7479 28.1688C46.7507 28.1229 46.7647 28.0784 46.7887 28.0392C46.8087 28.014 46.8225 27.9846 46.8292 27.9532C46.8359 27.9218 46.8352 27.8893 46.8273 27.8582C46.8082 27.7657 46.776 27.6721 46.8466 27.5859C46.8629 27.572 46.8749 27.5537 46.8809 27.5332C46.887 27.5127 46.887 27.4908 46.8808 27.4703C46.8639 27.3825 46.8347 27.2938 46.8989 27.2116C46.9754 27.047 46.9445 26.8632 46.9921 26.6934C46.9761 26.66 46.9691 26.6231 46.9718 26.5862C46.9744 26.5494 46.9867 26.5138 47.0073 26.4832C47.1363 25.8648 47.26 25.2453 47.3961 24.6286C47.473 24.2797 47.5701 23.9352 47.6581 23.5887C47.6447 23.4547 47.6775 23.3202 47.7509 23.2074L47.827 23.0346C47.8171 22.9858 47.8199 22.9353 47.8351 22.8879C47.8504 22.8405 47.8775 22.7978 47.914 22.7639C48.0526 22.4294 48.1913 22.095 48.33 21.7605C48.3278 21.6819 48.3526 21.6049 48.4004 21.5423L48.3956 21.5489C48.4498 21.4727 48.4628 21.3674 48.5579 21.32L48.7829 21.043C48.8068 20.9909 48.8452 20.9468 48.8935 20.916C48.9419 20.8852 48.9981 20.869 49.0554 20.8693C49.2502 20.796 49.4595 20.7688 49.6666 20.7899C49.8737 20.811 50.0732 20.8797 50.2493 20.9908C50.3236 21.017 50.391 21.0598 50.4462 21.116C50.5014 21.1722 50.5431 21.2402 50.568 21.315C50.6813 21.5102 50.7407 21.732 50.7401 21.9576C50.7395 22.1833 50.6788 22.4048 50.5644 22.5993C50.3519 23.0041 50.1841 23.4307 50.0638 23.8717C50.0725 23.9312 50.0672 23.9918 50.0484 24.0489C50.0296 24.1059 49.9977 24.1578 49.9554 24.2004L49.8974 24.4261C49.93 24.5448 49.8579 24.6409 49.8278 24.746C49.6919 25.1871 49.5873 25.6372 49.5149 26.093C49.5257 26.1634 49.555 26.2358 49.4933 26.2986C49.3503 26.9063 49.2444 27.5221 49.176 28.1426C49.1927 28.1759 49.2003 28.2131 49.1981 28.2504C49.196 28.2876 49.184 28.3236 49.1636 28.3548C49.1432 28.3788 49.1287 28.4073 49.1215 28.4379C49.1142 28.4686 49.1144 28.5005 49.1219 28.5311C49.139 28.5736 49.1465 28.6194 49.1437 28.6652C49.1409 28.711 49.128 28.7555 49.1059 28.7957C49.0859 28.8205 49.0719 28.8495 49.065 28.8806C49.0581 28.9117 49.0585 28.9439 49.0661 28.9749C49.0827 29.018 49.0901 29.0641 49.0879 29.1102C49.0856 29.1564 49.0738 29.2016 49.0532 29.2429C49.0308 29.2765 49.0154 29.3142 49.008 29.3538C49.0006 29.3935 49.0012 29.4342 49.0099 29.4736C49.0283 29.5251 49.0363 29.5798 49.0334 29.6345C49.0304 29.6892 49.0166 29.7427 48.9927 29.792C48.9708 29.8268 48.9561 29.8657 48.9496 29.9062C48.943 29.9468 48.9448 29.9883 48.9547 30.0282C48.9904 30.1518 48.9855 30.2835 48.9407 30.4041C48.8915 30.512 48.877 30.6326 48.8991 30.7492C48.9197 30.948 48.9257 31.148 48.9173 31.3476C48.8782 31.7599 48.8782 32.175 48.9173 32.5873C48.8948 32.8041 48.964 33.0264 48.8778 33.2393C48.7648 33.6686 48.563 34.0262 48.1129 34.1833C47.9686 34.2274 47.8144 34.2268 47.6705 34.1816L47.2209 33.9709C47.1293 33.9808 47.0952 33.9133 47.058 33.8501L46.6147 33.4031C46.5632 33.3795 46.5172 33.3455 46.4795 33.3031C46.4419 33.2607 46.4135 33.211 46.3962 33.1571C46.3963 33.1385 46.3905 33.1203 46.3797 33.1051C46.3688 33.09 46.3534 33.0787 46.3357 33.0729C46.2952 33.0554 46.2594 33.0286 46.2312 32.9947C46.203 32.9607 46.1832 32.9206 46.1733 32.8776C45.6913 32.1985 45.2676 31.4798 44.9067 30.7292C44.5827 30.0304 44.3013 29.3127 44.0642 28.5798C44.0349 28.504 44.0017 28.4298 43.9646 28.3574C43.9154 28.267 43.8815 28.1692 43.864 28.0677C43.833 27.9815 43.7844 27.9876 43.7209 28.0221C43.6007 28.1934 43.5079 28.3824 43.4456 28.5822C43.3013 28.923 43.1321 29.2527 42.9392 29.5685C42.475 30.3818 42.1127 31.2467 41.6666 32.0688C41.4801 32.4124 41.2655 32.7408 41.0636 33.0761C41.0858 33.1668 41.0015 33.196 40.9623 33.2513C40.8988 33.3184 40.8862 33.4308 40.7777 33.4578C40.5522 33.7179 40.2888 33.9424 39.9965 34.1241C39.9406 34.1667 39.867 34.1699 39.809 34.2079C39.7277 34.1986 39.6401 34.2401 39.5656 34.1776C38.9911 33.9201 38.8105 33.3737 38.63 32.8499C38.3021 31.8908 38.0336 30.9124 37.8262 29.9202C37.8161 29.8948 37.8019 29.8712 37.7842 29.8503C37.7547 29.7257 37.6688 29.6111 37.7167 29.4727C37.5132 28.4386 37.3093 27.4047 37.105 26.3708C37.0954 26.3453 37.082 26.3214 37.0651 26.3C37.0053 26.2326 37.0466 26.1281 36.9784 26.0637C36.9695 25.8447 36.9316 25.6278 36.8655 25.4187C36.8578 25.3289 36.8627 25.2384 36.88 25.1499C36.8478 24.8844 36.7972 24.6214 36.7287 24.3629C36.7096 24.3315 36.6981 24.296 36.6952 24.2593C36.6923 24.2227 36.6981 24.1859 36.7122 24.1519C36.7036 23.996 36.6724 23.8421 36.6198 23.6952C36.563 23.6293 36.5859 23.5573 36.6035 23.4856C36.6095 23.4634 36.6091 23.4399 36.6024 23.4179C36.5956 23.3958 36.5828 23.3762 36.5653 23.3611C36.5014 23.2998 36.5546 23.1948 36.4814 23.1369C36.4589 23.0287 36.5025 22.9145 36.4521 22.8088L36.4552 22.8148C36.3979 22.6352 36.3977 22.4423 36.4546 22.2626C36.5196 22.2331 36.5036 22.1733 36.5077 22.121C36.5445 22.0115 36.5534 21.8868 36.6711 21.8213C36.8118 21.6608 36.9816 21.5283 37.1715 21.4308C37.2275 21.394 37.2905 21.3693 37.3566 21.3582C37.4226 21.3471 37.4903 21.3499 37.5552 21.3663L37.8395 21.3635C37.9384 21.3416 38.0414 21.3466 38.1377 21.3781C38.234 21.4096 38.3201 21.4663 38.387 21.5425C38.6153 21.7629 38.7579 22.0571 38.7895 22.3728C38.8716 22.5999 38.9159 22.8389 38.9204 23.0804C38.9695 23.2069 38.9817 23.3448 38.9558 23.478C38.9513 23.5001 38.9527 23.5229 38.9599 23.5442C38.967 23.5655 38.9798 23.5845 38.9967 23.5993C39.0172 23.63 39.0294 23.6654 39.0322 23.7022C39.035 23.739 39.0282 23.7759 39.0125 23.8093C39.0068 23.8316 39.0073 23.8551 39.014 23.8771C39.0207 23.8992 39.0333 23.919 39.0504 23.9343C39.1141 23.9901 39.0659 24.0751 39.104 24.1376C39.1431 24.2469 39.1484 24.3654 39.1192 24.4778Z" fill="#FEFEFE"/>
<path d="M59.2151 29.0298C59.2318 28.9485 59.2177 28.8638 59.1755 28.7924C59.1193 28.432 59.1186 28.0652 59.1734 27.7046C59.217 27.615 59.2323 27.5143 59.2172 27.4159C59.1832 27.2496 59.2018 27.0768 59.2707 26.9217L59.4327 26.2487C59.4169 26.1157 59.447 25.9814 59.5181 25.8679C59.7283 25.3416 59.9772 24.8315 60.2627 24.3419C60.391 24.144 60.5262 23.9506 60.6582 23.7552C60.661 23.6369 60.7527 23.5917 60.836 23.5397L61.2821 23.0944C61.3152 23.0275 61.3526 22.9658 61.4412 22.9691L61.8335 22.7042C61.8804 22.6477 61.9393 22.6023 62.0059 22.5713C62.0725 22.5403 62.1452 22.5245 62.2187 22.5251C62.5494 22.4049 62.8917 22.3196 63.24 22.2703C63.4683 22.2113 63.7083 22.2152 63.9345 22.2816C64.0079 22.3064 64.0938 22.261 64.1608 22.3216C64.5145 22.4161 64.8597 22.5396 65.193 22.6909C65.6098 22.9066 65.9684 23.2195 66.2386 23.6032C66.9859 24.6381 67.1906 25.8161 67.1204 27.0616C67.1168 27.1259 67.1207 27.1905 67.121 27.255C67.1573 27.377 67.1513 27.5077 67.1039 27.6259C67.085 27.6521 67.0718 27.682 67.065 27.7136C67.0582 27.7453 67.058 27.778 67.0644 27.8097C67.0812 27.8427 67.0888 27.8797 67.0862 27.9166C67.0836 27.9536 67.071 27.9892 67.0497 28.0196C66.8775 28.8565 66.5839 29.6638 66.1781 30.4157C66.1787 30.4595 66.1677 30.5026 66.1461 30.5406C66.1245 30.5787 66.0931 30.6103 66.0552 30.6322C65.9116 30.8375 65.768 31.0429 65.6244 31.2483C65.6276 31.337 65.5671 31.3745 65.4979 31.4051C65.3495 31.5542 65.2011 31.7032 65.0527 31.8523C65.0363 31.8933 65.0101 31.9296 64.9764 31.958C64.9427 31.9865 64.9025 32.0062 64.8594 32.0155L64.5523 32.2122C64.522 32.2566 64.4815 32.2931 64.4342 32.3186C64.3869 32.3442 64.3341 32.358 64.2804 32.3589C63.926 32.5268 63.5464 32.635 63.1568 32.6794C62.9264 32.7335 62.6865 32.7327 62.4565 32.677C62.0191 32.6005 61.5919 32.4742 61.1833 32.3006C60.9938 32.2112 60.852 32.0595 60.6645 31.9751C60.4448 31.8659 60.2663 31.6887 60.1554 31.4698C59.7034 30.8691 59.4031 30.1682 59.2799 29.4266C59.2802 29.362 59.2611 29.2989 59.2253 29.2452C59.2064 29.2128 59.1956 29.1763 59.1938 29.1388C59.192 29.1012 59.1993 29.0639 59.2151 29.0298Z" fill="#FEFEFE"/>
<path d="M39.7273 27.5833C39.5609 27.1895 39.5478 26.7604 39.4444 26.352C39.4232 26.2462 39.4079 26.1394 39.3984 26.032C39.5805 26.1048 39.5117 26.2865 39.5463 26.4129C39.6357 26.7389 39.6813 27.0767 39.7504 27.4086C39.764 27.4739 39.7919 27.5321 39.7273 27.5833Z" fill="#995A8D"/>
<path d="M48.891 32.5753C48.8283 32.1711 48.828 31.7597 48.8902 31.3555C48.908 31.3304 48.9264 31.3301 48.9452 31.3544V32.5763C48.9267 32.6 48.9086 32.6008 48.891 32.5753Z" fill="#8F4981"/>
<path d="M42.9395 29.5685C43.0807 29.2264 43.2501 28.8965 43.4459 28.5823C43.3796 28.959 43.1454 29.2591 42.9829 29.5919C42.9817 29.5943 42.9653 29.592 42.958 29.5881C42.9508 29.5826 42.9446 29.576 42.9395 29.5685Z" fill="#934F86"/>
<path d="M59.1729 27.7049C59.1736 28.0675 59.1743 28.4301 59.175 28.7927C59.1495 28.8475 59.1149 28.9168 59.1136 28.7876C59.1096 28.3897 59.1121 27.9917 59.1121 27.5818C59.1368 27.6038 59.1542 27.612 59.1584 27.6245C59.1653 27.6509 59.1702 27.6778 59.1729 27.7049Z" fill="#883E7A"/>
<path d="M55.2788 22.3101C55.0433 22.2966 54.8077 22.283 54.5722 22.2695C54.5358 22.2637 54.4993 22.2579 54.4629 22.252C54.7358 22.2356 55.0096 22.1407 55.2807 22.2609C55.2996 22.2726 55.3057 22.2838 55.2988 22.2944C55.2921 22.3048 55.2855 22.3101 55.2788 22.3101Z" fill="#924E85"/>
<path d="M60.1562 31.47L60.6653 31.9753C60.5441 31.9422 60.4334 31.8782 60.3442 31.7897C60.255 31.7011 60.1903 31.591 60.1562 31.47Z" fill="#904B83"/>
<path d="M38.897 23.0932L38.7891 22.373C38.9837 22.5818 38.9299 22.845 38.9473 23.0926C38.9446 23.0968 38.9409 23.1002 38.9365 23.1026C38.9322 23.105 38.9273 23.1063 38.9223 23.1063C38.9173 23.1064 38.9124 23.1052 38.908 23.1029C38.9036 23.1006 38.8998 23.0973 38.897 23.0932Z" fill="#955388"/>
<path d="M63.9461 22.3066C63.7106 22.2946 63.4751 22.2825 63.2397 22.2704C63.1982 22.2635 63.1567 22.2565 63.1152 22.2495C63.3955 22.2405 63.6746 22.1351 63.9451 22.2622C63.9641 22.2717 63.9706 22.2814 63.9645 22.2914C63.9585 22.3015 63.9523 22.3066 63.9461 22.3066Z" fill="#934F86"/>
<path d="M50.4904 28.0825C50.4957 28.434 50.501 28.7855 50.5063 29.137C50.3699 28.9059 50.4724 28.6542 50.4458 28.4134C50.4394 28.3032 50.4391 28.1927 50.4451 28.0825C50.4602 28.0588 50.4753 28.0587 50.4904 28.0825Z" fill="#904B83"/>
<path d="M53.7908 32.6788C54.0229 32.6783 54.2549 32.6778 54.4869 32.6772C54.5111 32.6922 54.5665 32.7298 54.5408 32.731C54.2746 32.7433 54.0076 32.739 53.7408 32.7383C53.7372 32.7383 53.7296 32.72 53.7305 32.7193C53.7501 32.705 53.7705 32.6921 53.7908 32.6788Z" fill="#8B437D"/>
<path d="M62.4567 32.6772C62.6901 32.678 62.9235 32.6788 63.157 32.6796C63.1793 32.6947 63.2368 32.731 63.2054 32.732C62.9535 32.7407 62.701 32.7297 62.4487 32.7236C62.4445 32.7168 62.4427 32.7088 62.4436 32.7009C62.4467 32.6924 62.4511 32.6844 62.4567 32.6772Z" fill="#8A417C"/>
<path d="M38.3874 21.5425C38.222 21.4396 38.0341 21.3782 37.8398 21.3636C38.0699 21.2783 38.2646 21.3008 38.3874 21.5425Z" fill="#914C83"/>
<path d="M36.8848 25.4209C36.9844 25.6262 37.0253 25.8549 37.0031 26.082C37.018 26.0964 37.0226 26.1102 37.0167 26.1235C37.0109 26.1366 37.0053 26.1431 37 26.1431L36.8359 25.4203C36.8525 25.3968 36.8688 25.397 36.8848 25.4209Z" fill="#98588C"/>
<path d="M43.7207 28.0221C43.7553 27.894 43.8241 27.8676 43.8808 27.996C43.9206 28.1135 43.9485 28.2345 43.9644 28.3575C43.8263 28.2869 43.8951 28.0665 43.7207 28.0221Z" fill="#914D84"/>
<path d="M46.7289 28.5371V28.9354C46.651 28.8519 46.5951 28.7502 46.5664 28.6396C46.6489 28.6319 46.6667 28.5759 46.6701 28.5058C46.6712 28.4824 46.6819 28.451 46.7126 28.4855C46.7236 28.4978 46.7238 28.5196 46.7289 28.5371Z" fill="#8A417C"/>
<path d="M50.6617 29.7495C50.7079 29.9324 50.7541 30.1153 50.8003 30.2982C50.6836 30.1331 50.5715 29.9668 50.6617 29.7495Z" fill="#904C83"/>
<path d="M51.3901 24.6458C51.3206 24.7777 51.2512 24.9096 51.1818 25.0416C51.1619 24.9615 51.1722 24.877 51.2106 24.804C51.249 24.731 51.3128 24.6747 51.3901 24.6458Z" fill="#8E4981"/>
<path d="M57.5625 30.3007L57.7835 29.8594C57.7992 29.9469 57.7861 30.0372 57.7463 30.1168C57.7065 30.1963 57.642 30.2608 57.5625 30.3007Z" fill="#924E85"/>
<path d="M50.4925 28.0825L50.4699 28.0828L50.4473 28.0826C50.4527 27.8808 50.458 27.679 50.4644 27.4773C50.4645 27.4749 50.4793 27.4705 50.4865 27.4716C50.495 27.4742 50.5031 27.4782 50.5103 27.4833C50.5044 27.683 50.4984 27.8828 50.4925 28.0825Z" fill="#833775"/>
<path d="M48.8896 32.575C48.9077 32.575 48.9258 32.5753 48.9439 32.576C48.9106 32.7959 49.0214 33.0304 48.877 33.2391C48.8812 33.0177 48.8854 32.7963 48.8896 32.575Z" fill="#853976"/>
<path d="M62.2192 22.5253L61.834 22.7044C61.8457 22.6661 61.8654 22.6307 61.8917 22.6005C61.918 22.5703 61.9504 22.546 61.9867 22.5291C62.023 22.5122 62.0625 22.5031 62.1026 22.5025C62.1426 22.5018 62.1823 22.5096 62.2192 22.5253Z" fill="#8E4881"/>
<path d="M50.5667 21.3149C50.4605 21.2068 50.3543 21.0988 50.248 20.9907C50.4288 21.0257 50.5695 21.1 50.5667 21.3149Z" fill="#8F4981"/>
<path d="M59.2706 26.9219L59.2172 27.416C59.1721 27.3388 59.153 27.2491 59.1626 27.1602C59.1722 27.0712 59.2101 26.9877 59.2706 26.9219Z" fill="#904B83"/>
<path d="M48.9437 31.3542C48.9254 31.3548 48.907 31.3552 48.8887 31.3554C48.8918 31.1533 48.895 30.9513 48.8982 30.7493C49.0009 30.9444 48.9194 31.1533 48.9437 31.3542Z" fill="#853976"/>
<path d="M44.4944 23.0975L44.0605 23.134C44.202 22.952 44.3853 23.0543 44.5546 23.0614C44.5513 23.0678 44.5497 23.0777 44.5446 23.08C44.5282 23.0867 44.5114 23.0926 44.4944 23.0975Z" fill="#914C84"/>
<path d="M36.4559 22.2627C36.4561 22.4467 36.4563 22.6308 36.4565 22.8148C36.4071 22.7312 36.381 22.6359 36.3809 22.5388C36.3808 22.4417 36.4067 22.3464 36.4559 22.2627Z" fill="#965489"/>
<path d="M47.6715 34.1816L48.1139 34.1833C47.9777 34.2982 47.8215 34.2185 47.6744 34.2276C47.6705 34.2278 47.6624 34.2144 47.6621 34.2071C47.6636 34.1981 47.6668 34.1895 47.6715 34.1816Z" fill="#843775"/>
<path d="M56.666 31.5723L56.901 31.303C56.924 31.4808 56.8205 31.5487 56.666 31.5723Z" fill="#8F4A82"/>
<path d="M37.7165 29.4727C37.739 29.5985 37.7614 29.7244 37.7839 29.8503L37.7485 29.9119C37.7424 29.7652 37.6069 29.6278 37.7165 29.4727Z" fill="#8E4780"/>
<path d="M38.8982 23.0931C38.9149 23.093 38.9317 23.0928 38.9485 23.0925C38.9889 23.1484 39.0113 23.2152 39.0127 23.2841C39.0141 23.353 38.9945 23.4206 38.9565 23.4781C38.9616 23.3461 38.8694 23.2287 38.8982 23.0931Z" fill="#945288"/>
<path d="M58.4355 27.5183L58.4532 27.0339C58.5143 27.1909 58.5245 27.363 58.4823 27.526C58.4821 27.5287 58.4667 27.5325 58.4592 27.5311C58.4507 27.5281 58.4427 27.5238 58.4355 27.5183Z" fill="#843775"/>
<path d="M49.0557 20.8693L48.7832 21.043C48.804 20.8756 48.8944 20.8171 49.0557 20.8693Z" fill="#914C83"/>
<path d="M37.5537 21.3665L37.1699 21.4309C37.1905 21.4011 37.2169 21.3756 37.2475 21.3561C37.2781 21.3366 37.3124 21.3235 37.3482 21.3175C37.3839 21.3115 37.4206 21.3127 37.4559 21.3211C37.4912 21.3295 37.5245 21.345 37.5537 21.3665Z" fill="#8E4881"/>
<path d="M67.1035 27.626C67.1092 27.5024 67.1149 27.3788 67.1206 27.2551C67.2125 27.3903 67.1538 27.5397 67.1606 27.6829C67.1607 27.6852 67.1425 27.6915 67.1417 27.6902C67.1281 27.6693 67.116 27.6476 67.1035 27.626Z" fill="#904A82"/>
<path d="M39.1195 24.4779L39.0664 24.1441C39.0707 24.1322 39.0773 24.1214 39.086 24.1122C39.0946 24.103 39.1051 24.0958 39.1167 24.0908C39.1566 24.1473 39.1782 24.2147 39.1787 24.2839C39.1792 24.3531 39.1586 24.4208 39.1195 24.4779Z" fill="#98588B"/>
<path d="M58.4541 26.361C58.4492 26.2171 58.4444 26.0731 58.4395 25.9292C58.4836 25.9919 58.5085 26.0662 58.5111 26.1429C58.5138 26.2196 58.4939 26.2954 58.4541 26.361Z" fill="#863A77"/>
<path d="M48.9414 30.4041L48.9554 30.0283C49.0502 30.16 48.9834 30.3085 48.9984 30.4484C48.9989 30.4523 48.9881 30.4573 48.9826 30.4618L48.9414 30.4041Z" fill="#853976"/>
<path d="M47.7519 23.2075L47.6591 23.5889C47.6212 23.5259 47.6097 23.4505 47.627 23.3791C47.6444 23.3077 47.6893 23.246 47.7519 23.2075Z" fill="#914D84"/>
<path d="M46.3945 33.1572L46.613 33.4032C46.4443 33.4061 46.403 33.2962 46.3945 33.1572Z" fill="#8F4A82"/>
<path d="M36.6702 21.8215C36.6157 21.9214 36.5612 22.0213 36.5067 22.1212C36.5057 21.9912 36.4886 21.8524 36.6702 21.8215Z" fill="#8E4781"/>
<path d="M55.2793 22.3099C55.28 22.2935 55.2806 22.2771 55.2812 22.2608C55.3923 22.293 55.5485 22.1801 55.6127 22.3634L55.2793 22.3099Z" fill="#98588C"/>
<path d="M49.9551 24.2005L50.0635 23.8718C50.0823 23.8995 50.0946 23.9311 50.0992 23.9642C50.1039 23.9974 50.1009 24.0311 50.0904 24.0629C50.0799 24.0947 50.0623 24.1236 50.0388 24.1475C50.0153 24.1713 49.9867 24.1895 49.9551 24.2005Z" fill="#8C457E"/>
<path d="M56.25 31.96L56.4966 31.7407C56.5024 31.9124 56.3891 31.9506 56.25 31.96Z" fill="#8F4982"/>
<path d="M59.5179 25.8682L59.4325 26.2489C59.341 26.0952 59.4227 25.9802 59.5179 25.8682Z" fill="#8C447E"/>
<path d="M49.8281 24.7459L49.8977 24.426C50.0027 24.5461 49.8689 24.6487 49.872 24.7614C49.8643 24.7633 49.8562 24.7636 49.8484 24.7622C49.8408 24.758 49.8339 24.7524 49.8281 24.7459Z" fill="#904A82"/>
<path d="M50.504 29.1318C50.6007 29.2256 50.5574 29.3583 50.5979 29.4678C50.4183 29.3971 50.5328 29.2445 50.504 29.1318Z" fill="#8C457F"/>
<path d="M60.8356 23.5398L60.6578 23.7552C60.6153 23.5998 60.6966 23.5461 60.8356 23.5398Z" fill="#904B83"/>
<path d="M48.5568 21.3201C48.5153 21.4052 48.497 21.5068 48.3945 21.5489C48.4162 21.4498 48.3978 21.3222 48.5568 21.3201Z" fill="#8E4881"/>
<path d="M42.3892 25.4229C42.4059 25.5369 42.3221 25.6095 42.2756 25.6975C42.1931 25.5563 42.3006 25.4935 42.3892 25.4229Z" fill="#8E4981"/>
<path d="M36.4533 22.8088C36.5578 22.9067 36.5151 23.0273 36.5052 23.1428C36.5203 23.1575 36.5247 23.1715 36.5185 23.1849C36.5125 23.1979 36.5068 23.2044 36.5013 23.2044C36.4004 23.0828 36.4644 22.9413 36.4533 22.8088Z" fill="#97578B"/>
<path d="M53.2757 22.6406L53.0566 22.7607C53.0744 22.6203 53.1494 22.5839 53.2757 22.6406Z" fill="#8F4A82"/>
<path d="M40.2854 29.4155L40.2096 29.6508C40.1431 29.6047 40.1401 29.5338 40.1211 29.4712L40.2854 29.4155Z" fill="#8B437D"/>
<path d="M48.9922 29.7921L49.0094 29.4736C49.0925 29.5765 49.0566 29.6904 49.039 29.8023C49.0386 29.805 49.0227 29.8079 49.015 29.8061C49.0067 29.8027 48.999 29.798 48.9922 29.7921Z" fill="#843976"/>
<path d="M41.8328 26.4763C41.8511 26.5909 41.7658 26.6631 41.7197 26.7513C41.6358 26.6098 41.7438 26.547 41.8328 26.4763Z" fill="#8E4780"/>
<path d="M66.0547 30.6324L66.1776 30.416C66.2306 30.5413 66.1989 30.6187 66.0547 30.6324Z" fill="#8F4A82"/>
<path d="M50.5646 26.9207C50.5596 27.0489 50.5547 27.1771 50.5497 27.3053C50.5086 27.2488 50.4878 27.1802 50.4905 27.1104C50.4932 27.0406 50.5193 26.9738 50.5646 26.9207Z" fill="#955388"/>
<path d="M52.2246 32.1797C52.2823 32.1827 52.3384 32.1999 52.3878 32.2299C52.4372 32.2599 52.4785 32.3016 52.5078 32.3514C52.4493 32.3518 52.3919 32.336 52.3419 32.3056C52.2919 32.2753 52.2513 32.2317 52.2246 32.1797Z" fill="#8E4781"/>
<path d="M64.2793 32.3591C64.3699 32.3102 64.4606 32.2613 64.5512 32.2124C64.5049 32.3431 64.4267 32.415 64.2793 32.3591Z" fill="#904A83"/>
<path d="M41.2212 27.6409C41.2383 27.755 41.1535 27.8273 41.1076 27.9155C41.0252 27.7743 41.1326 27.7115 41.2212 27.6409Z" fill="#8E4881"/>
<path d="M40.7773 33.4578L40.9444 33.2344C40.9625 33.2476 40.9691 33.2614 40.9641 33.276C40.9591 33.2908 40.9537 33.2983 40.9481 33.2983C40.924 33.3865 40.9154 33.4911 40.7773 33.4578Z" fill="#8F4982"/>
<path d="M46.8998 27.2118L46.8817 27.4705C46.8489 27.429 46.8283 27.3792 46.8222 27.3267C46.8161 27.2741 46.8248 27.2209 46.8473 27.173C46.877 27.0937 46.8789 27.1982 46.8998 27.2118Z" fill="#924E85"/>
<path d="M61.44 22.9692L61.2808 23.0945C61.2622 22.962 61.3189 22.925 61.44 22.9692Z" fill="#8E4981"/>
<path d="M47.9141 22.7639L47.8271 23.0347C47.7342 22.9054 47.81 22.8301 47.9141 22.7639Z" fill="#8C457E"/>
<path d="M52.8315 22.9157L52.6701 23.0385C52.6563 22.9091 52.7087 22.8663 52.8315 22.9157Z" fill="#8E4981"/>
<path d="M57.1084 23.0958L56.9512 22.9691C57.0716 22.9272 57.1312 22.9606 57.1084 23.0958Z" fill="#8E4881"/>
<path d="M46.7898 28.0393L46.7739 28.3026C46.724 28.2115 46.659 28.1195 46.7898 28.0393Z" fill="#863B78"/>
<path d="M49.0527 29.2429L49.0657 28.9749C49.1208 29.0671 49.1623 29.1586 49.0527 29.2429Z" fill="#843775"/>
<path d="M43.7873 23.2061C43.7599 23.2906 43.6862 23.3286 43.6189 23.373C43.5877 23.2296 43.6923 23.2226 43.7873 23.2061Z" fill="#8F4981"/>
<path d="M57.5138 23.5323L57.3867 23.3754C57.5222 23.3525 57.5553 23.4123 57.5138 23.5323Z" fill="#8E4881"/>
<path d="M43.5035 23.4862L43.3792 23.6439C43.3319 23.5216 43.3677 23.4646 43.5035 23.4862Z" fill="#8E4881"/>
<path d="M50.9141 25.7029L50.8282 25.974C50.7334 25.8446 50.8103 25.7695 50.9141 25.7029Z" fill="#8C457E"/>
<path d="M65.498 31.4054L65.6246 31.2485C65.6675 31.3692 65.634 31.4285 65.498 31.4054Z" fill="#8E4881"/>
<path d="M51.3945 31.3806L51.5579 31.5738C51.3928 31.6027 51.4046 31.4825 51.3945 31.3806Z" fill="#8F4981"/>
<path d="M64.8594 32.0155L65.0527 31.8523C65.0824 32.0178 64.9612 32.0052 64.8594 32.0155Z" fill="#8F4981"/>
<path d="M51.8963 31.907C51.9639 31.9512 52.0364 31.9904 52.0648 32.074C51.9699 32.0573 51.8648 32.0508 51.8963 31.907Z" fill="#8E4881"/>
<path d="M49.1055 28.7956L49.1215 28.531C49.1706 28.6225 49.2288 28.7145 49.1055 28.7956Z" fill="#873D79"/>
<path d="M46.1719 32.8777L46.3342 33.073C46.1738 33.0959 46.1798 32.981 46.1719 32.8777Z" fill="#8F4981"/>
<path d="M40.947 33.2984L40.9434 33.2345L41.0622 33.0762C41.1481 33.2144 41.0095 33.2368 40.947 33.2984Z" fill="#8F4982"/>
<path d="M47.0581 33.8501L47.221 33.9709C47.0969 34.0245 47.0471 33.9781 47.0581 33.8501Z" fill="#904B83"/>
<path d="M39.5664 34.1775L39.8355 34.179C39.8526 34.1917 39.8584 34.2045 39.8529 34.2174C39.8473 34.2303 39.8417 34.2368 39.8361 34.2368C39.7478 34.2097 39.6329 34.3034 39.5664 34.1775Z" fill="#893F7B"/>
<path d="M48.4003 21.5425C48.4047 21.6214 48.3796 21.6992 48.3299 21.7607C48.2462 21.6535 48.3302 21.6002 48.4003 21.5425Z" fill="#8F4982"/>
<path d="M63.9463 22.3067C63.9461 22.2918 63.9458 22.277 63.9453 22.2622C64.0131 22.2966 64.1221 22.1824 64.1607 22.3218L63.9463 22.3067Z" fill="#873B78"/>
<path d="M46.847 27.5859L46.8276 27.8583C46.809 27.8402 46.7945 27.8182 46.7852 27.7939C46.7759 27.7696 46.772 27.7435 46.7739 27.7176C46.7757 27.6916 46.7832 27.6664 46.7959 27.6437C46.8085 27.6209 46.826 27.6012 46.847 27.5859Z" fill="#843875"/>
<path d="M36.4996 23.2044L36.5035 23.1428C36.5966 23.1953 36.5478 23.2875 36.5649 23.3612C36.4453 23.3495 36.5288 23.2536 36.4996 23.2044Z" fill="#853976"/>
<path d="M47.0079 26.4832L46.9927 26.6934C46.9334 26.6187 46.9051 26.5462 47.0079 26.4832Z" fill="#883F7A"/>
<path d="M36.6028 23.4858L36.6191 23.6954C36.5186 23.6329 36.543 23.5607 36.6028 23.4858Z" fill="#843876"/>
<path d="M49.1641 28.3549L49.1765 28.1426C49.2385 28.2172 49.2663 28.2898 49.1641 28.3549Z" fill="#833775"/>
<path d="M58.398 25.7504L58.3828 25.5403C58.482 25.6035 58.4595 25.6756 58.398 25.7504Z" fill="#843976"/>
<path d="M37.0005 26.1429L37.0037 26.0818C37.0947 26.1347 37.0483 26.2261 37.0649 26.2999C36.9459 26.2874 37.0278 26.1928 37.0005 26.1429Z" fill="#863C78"/>
<path d="M39.2372 25.1396L39.2188 24.9314C39.3236 24.9921 39.2922 25.0648 39.2372 25.1396Z" fill="#873D7A"/>
<path d="M45.2736 23.7852C45.228 23.7035 45.1824 23.6218 45.1367 23.54C45.2799 23.5674 45.2825 23.6731 45.2736 23.7852Z" fill="#8D4780"/>
<path d="M39.1784 24.8076C39.1723 24.7385 39.1663 24.6694 39.1602 24.6003C39.2674 24.6605 39.236 24.7329 39.1784 24.8076Z" fill="#863A77"/>
<path d="M36.7134 24.1521L36.7299 24.3631C36.6334 24.2999 36.6564 24.2273 36.7134 24.1521Z" fill="#873C79"/>
<path d="M49.4922 26.2987L49.5138 26.093C49.5644 26.1676 49.6025 26.2409 49.4922 26.2987Z" fill="#873D79"/>
<path d="M36.8861 25.4208L36.8617 25.4209L36.8373 25.4203C36.8491 25.3297 36.8023 25.2298 36.8806 25.1499L36.8861 25.4208Z" fill="#873D79"/>
<path d="M67.0488 28.0197L67.0635 27.8098C67.1246 27.8844 67.1521 27.9566 67.0488 28.0197Z" fill="#863B78"/>
<path d="M39.0119 23.8094L38.9961 23.5994C39.0948 23.6624 39.0725 23.7345 39.0119 23.8094Z" fill="#843876"/>
<path d="M39.8346 34.237L39.834 34.1792C39.8549 34.1583 39.8804 34.1424 39.9085 34.1329C39.9365 34.1233 39.9664 34.1204 39.9958 34.1242C39.9911 34.2316 39.8748 34.1802 39.8346 34.237Z" fill="#8B447E"/>
<path d="M59.2141 29.03L59.2244 29.2455C59.1073 29.179 59.1667 29.1043 59.2141 29.03Z" fill="#843976"/>
<path d="M39.1167 24.0907L39.0665 24.144C39.0612 24.0741 39.056 24.0042 39.0508 23.9343C39.1734 23.9441 39.085 24.0427 39.1167 24.0907Z" fill="#873C79"/>
<path d="M85.955 25.401C85.7582 24.4943 85.229 23.6942 84.4716 23.1583C83.7419 22.6715 82.874 22.4343 81.9982 22.4824C80.0201 22.4362 78.6681 23.5633 78.1864 25.32C77.8211 26.6782 77.8288 28.1098 78.2085 29.464C78.3944 30.2754 78.8372 31.0052 79.4711 31.5447C80.3653 32.2729 81.4119 32.444 82.5292 32.3614C84.1376 32.2424 85.2203 31.4142 85.7794 29.9255C86.3359 28.4438 86.3368 26.925 85.955 25.401ZM83.275 29.2253C83.0486 30.005 82.3939 30.3971 81.65 30.1898C81.4466 30.13 81.2634 30.016 81.1199 29.86C80.9764 29.704 80.8781 29.5119 80.8354 29.3042C80.6271 28.5693 80.6459 27.8125 80.6517 27.0582C80.6395 26.5253 80.7222 25.9944 80.8958 25.4904C81.177 24.743 81.8315 24.4238 82.4958 24.706C82.6671 24.7854 82.82 24.8996 82.9447 25.0414C83.0693 25.1831 83.163 25.3494 83.2198 25.5294C83.4479 26.122 83.4694 26.7468 83.503 27.3723C83.458 27.9926 83.4509 28.6193 83.275 29.2253Z" fill="black"/>
<path d="M123.017 31.9733C122.412 30.7068 121.812 29.4377 121.196 28.1764C121.097 27.974 121.087 27.896 121.314 27.7716C121.625 27.5981 121.896 27.3607 122.109 27.0752C122.322 26.7896 122.473 26.4623 122.55 26.1146C122.628 25.7669 122.632 25.4067 122.561 25.0576C122.49 24.7085 122.346 24.3783 122.138 24.0887C121.461 23.1627 120.456 22.8519 119.377 22.7685C118.252 22.6814 117.12 22.7448 115.992 22.7271C115.804 22.7241 115.767 22.7782 115.767 22.9559C115.773 25.9483 115.772 28.9407 115.766 31.9331C115.765 32.1326 115.839 32.1484 116.001 32.1467C116.685 32.1397 117.37 32.1352 118.054 32.1488C118.266 32.1531 118.331 32.1069 118.329 31.8828C118.317 30.6269 118.323 29.3708 118.323 28.1147V27.8097C118.685 28.5591 119.009 29.2298 119.332 29.9008C119.66 30.5813 119.988 31.2618 120.316 31.9425C120.361 32.0353 120.373 32.1482 120.529 32.147C121.378 32.1404 122.226 32.1438 123.097 32.1438C123.063 32.0704 123.04 32.0217 123.017 31.9733ZM119.386 26.6065C119.133 26.7102 118.861 26.7615 118.587 26.7576C118.3 26.8806 118.284 26.7076 118.289 26.4646C118.301 25.9032 118.305 25.341 118.287 24.7799C118.28 24.5508 118.359 24.5225 118.556 24.5564C118.857 24.5824 119.152 24.6496 119.434 24.7564C119.873 24.964 119.982 25.3531 119.988 25.78C119.993 25.9648 119.936 26.146 119.828 26.2954C119.719 26.4448 119.564 26.5542 119.386 26.6065Z" fill="black"/>
<path d="M58.4531 27.0339C58.453 26.8097 58.453 26.5854 58.4529 26.3611C58.4901 26.2188 58.485 26.0688 58.4382 25.9293C58.4185 25.9045 58.4047 25.8755 58.3978 25.8445C58.391 25.8136 58.3913 25.7814 58.3987 25.7506C58.4148 25.7173 58.4219 25.6804 58.4193 25.6435C58.4166 25.6066 58.4042 25.571 58.3835 25.5404C58.2344 24.8185 57.9384 24.135 57.514 23.5323C57.5158 23.4443 57.4559 23.4062 57.3868 23.3754C57.2934 23.2822 57.2 23.1889 57.1066 23.0957C57.0757 23.0268 57.0377 22.9668 56.9494 22.969C56.5464 22.6831 56.0921 22.4776 55.6114 22.3636C55.5099 22.2701 55.3784 22.3009 55.2596 22.279C55.0345 22.2193 54.7981 22.216 54.5714 22.2695C54.1231 22.3263 53.6861 22.4514 53.2758 22.6405C53.2319 22.6391 53.1884 22.6496 53.1499 22.6707C53.1114 22.6918 53.0792 22.7228 53.0567 22.7606C52.9813 22.8123 52.9059 22.8639 52.8305 22.9156C52.7404 22.909 52.7048 22.9737 52.6692 23.0385C52.1575 23.5005 51.7253 24.0435 51.39 24.6459C51.2793 24.7516 51.2061 24.8906 51.1817 25.0417C51.0922 25.2621 51.0027 25.4825 50.9132 25.7029C50.8536 25.7835 50.7913 25.8632 50.8273 25.974C50.7171 26.2833 50.7093 26.621 50.5643 26.9206C50.5166 27.0436 50.5113 27.179 50.5495 27.3053C50.5565 27.336 50.5566 27.368 50.5497 27.3988C50.5428 27.4296 50.5291 27.4585 50.5096 27.4834C50.4334 27.6842 50.4929 27.8928 50.4741 28.0968C50.4955 28.4432 50.4306 28.7925 50.5077 29.1372L50.504 29.1319C50.5553 29.2383 50.5057 29.3728 50.5979 29.4678C50.6187 29.5617 50.6396 29.6557 50.6605 29.7496C50.6603 29.9412 50.7079 30.1298 50.7991 30.2983C51.0015 30.657 51.1565 31.0416 51.3948 31.3806C51.4042 31.4237 51.424 31.4638 51.4524 31.4975C51.4809 31.5312 51.5172 31.5573 51.5582 31.5738C51.6705 31.6849 51.7828 31.796 51.8951 31.9071C51.9274 31.9826 51.9879 32.0425 52.0637 32.0741L52.2246 32.1797C52.3151 32.2432 52.4097 32.3005 52.5078 32.3514C52.9293 32.483 53.3575 32.5923 53.7905 32.679C54.0194 32.7338 54.258 32.7332 54.4866 32.6774C54.657 32.6571 54.8253 32.6224 54.9898 32.5738C55.4433 32.4474 55.8699 32.2395 56.2488 31.9601C56.3032 31.9434 56.3534 31.9151 56.3959 31.8773C56.4385 31.8395 56.4724 31.7929 56.4954 31.7409L56.665 31.5726C56.768 31.5043 56.8797 31.4436 56.9 31.3033C57.1408 30.9829 57.362 30.6482 57.5622 30.3009C57.677 30.1782 57.7537 30.0249 57.7832 29.8596C57.9843 29.4083 58.1437 28.9396 58.2595 28.4593C58.3289 28.148 58.3775 27.8321 58.4355 27.5183C58.4855 27.3615 58.4916 27.194 58.4531 27.0339ZM56.1036 27.4148C56.0921 27.6264 56.0462 27.8348 55.9677 28.0317C55.8966 28.1452 55.8647 28.2789 55.8769 28.4123C55.7676 28.7093 55.683 29.0192 55.4432 29.2488C55.3843 29.3208 55.3307 29.397 55.2827 29.4766C55.2838 29.475 55.2854 29.4738 55.2865 29.4722L55.2825 29.477L55.2827 29.4766C55.184 29.615 55.028 29.7041 54.9508 29.861C54.6118 30.1643 54.2481 30.4001 53.7632 30.2465C53.4469 30.1464 53.303 29.8718 53.1598 29.6068C53.0364 29.3709 52.9483 29.1181 52.8982 28.8566C52.9616 28.7216 52.8497 28.6027 52.8628 28.4721C52.8513 28.1592 52.8867 27.8456 52.8441 27.5336C52.8878 27.0414 53.0327 26.5636 53.2697 26.13C53.2983 26.1182 53.3214 26.0961 53.3344 26.068C53.3475 26.04 53.3495 26.0081 53.34 25.9786C53.57 25.4982 53.9117 25.0799 54.3367 24.7588C54.5362 24.6251 54.7804 24.5755 55.0163 24.6208C55.2521 24.6661 55.4606 24.8026 55.5964 25.0007C55.867 25.3918 56.0409 25.8415 56.1041 26.3128C56.0714 26.6794 56.0713 27.0482 56.1036 27.4148Z" fill="#FEFEFE"/>
<path d="M56.1026 27.4147C56.0256 27.0514 56.0257 26.676 56.103 26.3127C56.138 26.6792 56.1378 27.0482 56.1026 27.4147Z" fill="#873D79"/>
<path d="M52.8435 27.5334C52.9475 27.8606 52.8606 28.1965 52.8889 28.5271C52.8729 28.554 52.8572 28.5525 52.8417 28.5265C52.8152 28.196 52.8158 27.8639 52.8435 27.5334Z" fill="#863A77"/>
<path d="M54.9512 29.8607C54.9783 29.6582 55.152 29.5818 55.2868 29.4719C55.2355 29.6536 55.0819 29.7473 54.9512 29.8607Z" fill="#904B83"/>
<path d="M55.8782 28.4121C55.7884 28.2567 55.8618 28.1401 55.9689 28.0315C55.9387 28.1584 55.9084 28.2852 55.8782 28.4121Z" fill="#914D84"/>
<path d="M52.8418 28.5266C52.8575 28.5271 52.8733 28.5273 52.889 28.5271C52.9372 28.6358 52.9926 28.7442 52.8976 28.8566L52.8418 28.5266Z" fill="#8D4780"/>
<path d="M55.2815 29.477C55.2765 29.3598 55.3527 29.2997 55.4422 29.2488C55.4498 29.3678 55.3708 29.426 55.2815 29.477Z" fill="#8F4982"/>
<path d="M53.3399 25.9785C53.4004 26.0678 53.398 26.1281 53.2695 26.1299L53.3399 25.9785Z" fill="#8D4680"/>
<path d="M63.8845 24.6593C64.3228 24.8351 64.4558 25.2448 64.6131 25.6279C64.6774 25.8161 64.729 26.0082 64.7677 26.2032C64.7563 26.2748 64.7148 26.3482 64.7812 26.4148C64.8597 26.6713 64.8598 26.9453 64.7818 27.2019C64.7593 27.2428 64.7466 27.2883 64.7448 27.3349C64.743 27.3815 64.7521 27.4279 64.7714 27.4703C64.7798 27.5013 64.7805 27.5339 64.7733 27.5653C64.7662 27.5966 64.7516 27.6257 64.7307 27.6501C64.6549 27.7121 64.7037 27.7865 64.7101 27.8567C64.6013 28.4425 64.359 28.9954 64.0019 29.4724C63.828 29.5905 63.6789 29.7416 63.563 29.917C63.2437 30.143 62.9405 30.4208 62.4969 30.2479C62.3866 30.1627 62.2675 30.0896 62.1415 30.0299C62.0579 29.9731 61.993 29.8926 61.9552 29.7988C61.9538 29.7486 61.9414 29.6994 61.9187 29.6546C61.896 29.6098 61.8637 29.5706 61.8241 29.5398C61.7083 29.3498 61.636 29.1364 61.6126 28.915C61.6031 28.7311 61.5754 28.5485 61.5298 28.37C61.529 28.1737 61.5293 27.9775 61.5296 27.7815C61.5357 27.6053 61.6205 27.4343 61.5639 27.254C61.6952 26.5164 62.0175 25.8261 62.4987 25.2519C62.5805 25.2095 62.6521 25.1501 62.7089 25.0776C62.7668 25.006 62.8558 24.9602 62.8854 24.8652C62.9583 24.783 63.0546 24.7251 63.1615 24.6994C63.2254 24.6559 63.2985 24.6829 63.3667 24.6727C63.4033 24.6672 63.4217 24.6525 63.3859 24.6617C63.3822 24.6541 63.3791 24.6463 63.3765 24.6383C63.4386 24.6025 63.5091 24.5841 63.5806 24.585C63.6522 24.5858 63.7223 24.6059 63.7835 24.6431C63.7767 24.6698 63.7296 24.6503 63.732 24.6877C63.7786 24.6556 63.8373 24.6884 63.8845 24.6593Z" fill="#6F7073"/>
<path d="M63.5625 29.9171C63.5997 29.8159 63.6581 29.7239 63.7338 29.6472C63.8094 29.5705 63.9007 29.5109 64.0013 29.4724C63.8825 29.6454 63.734 29.796 63.5625 29.9171Z" fill="#8E4881"/>
<path d="M61.5555 28.4161C61.6383 28.5688 61.6586 28.7477 61.6121 28.915C61.5374 28.759 61.5019 28.587 61.5086 28.4142C61.5253 28.3899 61.5409 28.3893 61.5555 28.4161Z" fill="#9A5B8D"/>
<path d="M61.5632 27.2542C61.6006 27.3318 61.6195 27.4172 61.6181 27.5035C61.6168 27.5897 61.5954 27.6745 61.5556 27.751C61.5405 27.7752 61.5246 27.7757 61.508 27.7524C61.4653 27.5796 61.5502 27.4208 61.5632 27.2542Z" fill="#945288"/>
<path d="M61.5078 27.7522C61.5236 27.751 61.5395 27.7506 61.5554 27.7508C61.5553 27.9725 61.5552 28.1943 61.5551 28.416C61.5395 28.416 61.5238 28.4154 61.5083 28.4141L61.5078 27.7522Z" fill="#813372"/>
<path d="M62.1406 30.03C62.3072 30.0304 62.4099 30.1754 62.5594 30.2144C62.5553 30.2212 62.5528 30.2319 62.5469 30.2342C62.5303 30.2399 62.5132 30.2445 62.496 30.248C62.4251 30.2374 62.3571 30.2127 62.2961 30.1753C62.235 30.1378 62.1821 30.0884 62.1406 30.03Z" fill="#8E4881"/>
<path d="M61.8242 29.5398C61.8521 29.5444 61.8785 29.5556 61.9012 29.5723C61.924 29.5891 61.9425 29.6109 61.9553 29.6361C61.968 29.6613 61.9747 29.6892 61.9747 29.7174C61.9747 29.7457 61.9681 29.7736 61.9553 29.7988C61.8911 29.7244 61.8461 29.6355 61.8242 29.5398Z" fill="#8D4780"/>
<path d="M62.8845 24.8655C62.9257 25.0091 62.7861 25.022 62.722 25.0894C62.718 25.0953 62.7126 25.1 62.7062 25.1031C62.6999 25.1061 62.6928 25.1075 62.6858 25.107C62.6787 25.1065 62.6719 25.1042 62.6661 25.1003C62.6602 25.0963 62.6555 25.0909 62.6523 25.0846C62.7115 24.9943 62.791 24.9193 62.8845 24.8655Z" fill="#8D4780"/>
<path d="M62.6546 25.0842L62.7242 25.0891C62.6569 25.1536 62.6434 25.2919 62.5 25.2517L62.6546 25.0842Z" fill="#8E4881"/>
<path d="M64.7725 27.4704C64.6882 27.3694 64.7241 27.2566 64.7407 27.1458C64.7482 27.1477 64.7598 27.1475 64.7624 27.1521C64.7702 27.1683 64.777 27.185 64.7828 27.202L64.7725 27.4704Z" fill="#823573"/>
<path d="M63.3771 24.6384C63.3909 24.6574 63.4972 24.6531 63.4052 24.6945C63.3253 24.7118 63.2427 24.7136 63.1621 24.6996C63.2145 24.6118 63.3047 24.6564 63.3771 24.6384Z" fill="#8D4680"/>
<path d="M64.7805 26.4149C64.7636 26.4311 64.7514 26.5054 64.7343 26.4564C64.7145 26.4156 64.707 26.3699 64.7129 26.325C64.7187 26.28 64.7375 26.2378 64.767 26.2034L64.7805 26.4149Z" fill="#863A77"/>
<path d="M64.7089 27.8568C64.6564 27.782 64.6197 27.7088 64.7295 27.6501C64.7227 27.719 64.7158 27.7879 64.7089 27.8568Z" fill="#8A417C"/>
<path d="M63.8848 24.6593C63.8147 24.7204 63.739 24.7108 63.6211 24.6656L63.7838 24.6431L63.8848 24.6593Z" fill="#8D4680"/>
</svg>
