<svg width="100" height="22" viewBox="0 0 100 22" fill="none" xmlns="http://www.w3.org/2000/svg">
<path d="M20.8412 17.7365C21.2978 18.8571 21.7394 19.9407 22.1987 21.0677C20.2409 19.9787 18.334 18.9194 16.4295 17.8558C16.2862 17.7738 16.1235 17.7317 15.9583 17.7338C11.654 17.7371 7.34966 17.7377 3.04531 17.7358C1.5908 17.7354 0.226076 16.5036 0.0516324 15.0574C0.017098 14.755 0.000810491 14.4509 0.00284518 14.1465C0.00238503 10.8386 0.00209749 7.53073 0.00200043 4.22282C-0.014553 3.75606 0.0717931 3.29137 0.2549 2.8617C0.438007 2.43204 0.713391 2.04791 1.06154 1.73657C1.59764 1.22933 2.30617 0.944282 3.04419 0.938944C12.3101 0.931988 21.576 0.930767 30.8419 0.935285C32.2734 0.935537 33.6469 2.15004 33.839 3.55566C33.8743 3.8298 33.8909 4.10603 33.8886 4.38243C33.8889 7.76426 33.889 11.1461 33.8887 14.5279C33.9016 15.3057 33.6285 16.0612 33.1211 16.6509C32.6138 17.2406 31.9077 17.6236 31.1367 17.7271C31.0447 17.7369 30.9521 17.7398 30.8596 17.7358C27.6383 17.7363 24.417 17.7365 21.1957 17.7365C21.0943 17.7365 20.9929 17.7365 20.8412 17.7365Z" fill="#6F7073"/>
<path d="M59.4108 7.7175C59.2265 8.45866 59.0549 9.13663 58.8896 9.81615C58.5532 11.1996 58.2194 12.5837 57.8881 13.9684C57.8573 14.0975 57.8065 14.1502 57.666 14.1474C57.2126 14.1384 56.7588 14.1358 56.3056 14.1487C56.2771 14.1539 56.2478 14.1532 56.2196 14.1465C56.1914 14.1398 56.1649 14.1274 56.1417 14.11C56.1186 14.0925 56.0993 14.0705 56.0851 14.0452C56.0709 14.0199 56.0621 13.992 56.0592 13.9632C55.5586 11.9819 55.057 10.0009 54.5546 8.02006C54.5332 7.93576 54.5078 7.8525 54.4635 7.69478C54.3205 9.17452 54.1878 10.5722 54.0494 11.9693C53.9823 12.6473 53.9013 13.3239 53.8347 14.002C53.8247 14.1034 53.8085 14.1469 53.6956 14.1462C52.983 14.1418 52.2702 14.1403 51.5576 14.1472C51.415 14.1486 51.423 14.0922 51.4367 13.9846C51.5212 13.319 51.594 12.6519 51.6792 11.9863C51.7808 11.1933 51.8951 10.4019 51.9964 9.60879C52.0976 8.81563 52.1852 8.02072 52.2869 7.22761C52.3862 6.45288 52.501 5.68008 52.5962 4.90487C52.6138 4.7614 52.6555 4.72768 52.7955 4.72866C53.7488 4.73532 54.7022 4.73811 55.6554 4.7262C55.6817 4.72202 55.7085 4.72349 55.7342 4.73051C55.7598 4.73753 55.7836 4.74993 55.8041 4.7669C55.8246 4.78387 55.8412 4.80501 55.8528 4.82891C55.8645 4.8528 55.8709 4.87891 55.8716 4.90549C56.1379 6.16679 56.4019 7.42855 56.6638 8.69077C56.7454 9.08455 56.8179 9.48021 56.9102 9.95503C57.1133 8.84639 57.3125 7.81731 57.5533 6.797C57.7022 6.16604 57.8525 5.53537 57.9957 4.90313C58.0217 4.78851 58.0558 4.72855 58.1905 4.72926C59.1901 4.73456 60.1898 4.73649 61.1893 4.72755C61.3443 4.72617 61.3541 4.8185 61.3672 4.91269C61.4509 5.51325 61.5274 6.11482 61.6087 6.71572C61.7306 7.61681 61.8535 8.51777 61.9773 9.41859C62.0959 10.2926 62.2136 11.1667 62.3306 12.0409C62.4153 12.6689 62.4943 13.2978 62.5895 13.9243C62.614 14.0855 62.6119 14.152 62.4157 14.1487C61.7032 14.1368 60.9904 14.1387 60.2778 14.1481C60.117 14.1502 60.0706 14.0887 60.0568 13.9453C59.9462 12.8 59.8351 11.6548 59.7167 10.5104C59.623 9.60411 59.5187 8.69892 59.4108 7.7175Z" fill="black"/>
<path d="M70.9064 7.78153C70.4149 9.8306 69.9238 11.8797 69.433 13.929C69.4306 13.9641 69.4206 13.9984 69.4037 14.0293C69.3869 14.0602 69.3635 14.0872 69.3352 14.1082C69.3069 14.1293 69.2745 14.144 69.24 14.1513C69.2055 14.1586 69.1698 14.1583 69.1355 14.1506C68.7386 14.1292 68.3392 14.1312 67.942 14.1492C67.7254 14.159 67.6277 14.1092 67.5705 13.8785C67.0666 11.8433 66.5426 9.80981 65.9986 7.77793C65.9426 8.32115 65.8867 8.86437 65.8308 9.40759C65.7447 10.2502 65.659 11.0928 65.5737 11.9355C65.509 12.586 65.439 13.2362 65.3921 13.8881C65.3777 14.0872 65.3283 14.1539 65.119 14.1494C64.4528 14.135 63.7862 14.14 63.1198 14.1472C62.9723 14.1488 62.9357 14.1195 62.9566 13.9633C63.107 12.843 63.2432 11.7208 63.3889 10.5998C63.5299 9.51529 63.6805 8.432 63.8201 7.34729C63.9222 6.5542 64.0159 5.76 64.1069 4.96557C64.1251 4.80671 64.1591 4.72404 64.3546 4.72662C65.2893 4.73894 66.2243 4.73573 67.1591 4.72862C67.3153 4.72743 67.368 4.76468 67.4043 4.92824C67.7631 6.54407 68.1204 8.15997 68.3974 9.79239C68.3999 9.80718 68.4154 9.81977 68.4532 9.87423C68.5277 9.49926 68.6003 9.15866 68.6626 8.8162C68.9033 7.49425 69.2334 6.19252 69.5409 4.88551C69.5729 4.74959 69.6233 4.73017 69.7391 4.7305C70.7202 4.73334 71.7014 4.73529 72.6825 4.72892C72.8416 4.72789 72.8724 4.78302 72.8913 4.93387C73.0046 5.83597 73.137 6.73565 73.2586 7.63671C73.3778 8.51989 73.4896 9.40407 73.6086 10.2873C73.7288 11.1794 73.8547 12.0708 73.9765 12.9628C74.0226 13.2996 74.0621 13.6374 74.1091 13.9741C74.1265 14.0988 74.103 14.1498 73.9557 14.148C73.2245 14.1393 72.4932 14.1407 71.762 14.1474C71.6397 14.1485 71.6115 14.1116 71.6 13.9962C71.5341 13.3368 71.4573 12.6785 71.3861 12.0197C71.2991 11.2145 71.2132 10.4091 71.1283 9.60368C71.0649 8.99995 71.0044 8.3959 70.9426 7.792L70.9064 7.78153Z" fill="black"/>
<path d="M94.8286 9.4353C94.8286 7.9475 94.8321 6.45968 94.8242 4.97193C94.8233 4.78614 94.8597 4.72591 95.0596 4.72707C96.6241 4.73612 98.1887 4.73632 99.7532 4.72767C99.944 4.72672 100.005 4.77088 99.9998 4.96887C99.9852 5.48596 99.9843 6.00404 100 6.52105C100.006 6.7251 99.9362 6.76079 99.75 6.75802C99.0281 6.74727 98.3058 6.75988 97.5838 6.74908C97.4122 6.74652 97.3666 6.78768 97.3724 6.96011C97.3866 7.38472 97.3873 7.81048 97.3724 8.23504C97.3658 8.4229 97.4068 8.48593 97.6084 8.48087C98.2005 8.46602 98.7933 8.48096 99.3857 8.47212C99.5524 8.46964 99.6252 8.4933 99.6188 8.68919C99.6023 9.1969 99.6032 9.70582 99.6187 10.2136C99.6242 10.3954 99.5643 10.4227 99.4024 10.4202C98.7916 10.411 98.1804 10.422 97.5695 10.4128C97.4118 10.4105 97.3693 10.4548 97.3732 10.611C97.3842 11.0543 97.3842 11.4978 97.3732 11.9416C97.3694 12.0967 97.4095 12.1413 97.5682 12.1394C98.2995 12.1307 99.031 12.1437 99.7621 12.1302C99.9632 12.1265 100.004 12.1866 99.9996 12.3755C99.986 12.9019 99.9883 13.429 99.9988 13.9555C100.002 14.1157 99.9534 14.1483 99.7995 14.1477C98.2072 14.1416 96.6148 14.1393 95.0226 14.1499C94.8255 14.1512 94.8262 14.0704 94.8266 13.9264C94.8299 12.4294 94.8306 10.9323 94.8286 9.4353Z" fill="black"/>
<path d="M74.8732 9.44155C74.8732 7.95427 74.8762 6.46698 74.8692 4.97973C74.8683 4.80498 74.9051 4.75147 75.0908 4.75245C76.6547 4.76077 78.2187 4.76118 79.7827 4.75369C79.9517 4.75304 80.0195 4.7791 80.0138 4.97183C79.998 5.49791 79.9995 6.025 80.0133 6.5512C80.0179 6.72505 79.9711 6.76352 79.8024 6.76107C79.1085 6.75095 78.4137 6.77343 77.7205 6.7487C77.4424 6.73877 77.3913 6.82273 77.4072 7.07748C77.4279 7.47423 77.4284 7.87176 77.4088 8.26855C77.4023 8.43693 77.4398 8.48365 77.6129 8.48031C78.2142 8.46868 78.8162 8.48759 79.4172 8.4696C79.6356 8.46307 79.6735 8.53279 79.6676 8.73059C79.653 9.21976 79.6558 9.70981 79.6666 10.1992C79.6704 10.371 79.6358 10.4335 79.4455 10.4291C78.835 10.415 78.224 10.4283 77.6132 10.4207C77.4616 10.4189 77.4044 10.4506 77.4093 10.6174C77.4224 11.0604 77.4241 11.5044 77.4087 11.9473C77.4024 12.1265 77.4588 12.1597 77.6248 12.1576C78.3465 12.1486 79.0685 12.159 79.7902 12.15C79.9708 12.1478 80.052 12.1752 80.0454 12.3857C80.0288 12.9117 80.0323 13.4388 80.0442 13.9651C80.0481 14.141 79.992 14.1798 79.8241 14.1791C78.2416 14.173 76.6591 14.1698 75.0766 14.1819C74.8523 14.1836 74.8719 14.0758 74.8721 13.9311C74.8739 12.4346 74.8743 10.9381 74.8732 9.44155Z" fill="black"/>
<path d="M94.1065 6.90217C93.7073 6.80066 93.3003 6.73298 92.8897 6.69983C91.612 6.62177 90.7335 7.52956 90.5096 8.63469C90.3346 9.49786 90.3801 10.3613 90.8936 11.1281C91.4372 11.94 92.2353 12.2058 93.1737 12.1165C93.4906 12.0846 93.8033 12.0192 94.1064 11.9214C94.1064 12.6435 94.1027 13.3525 94.1099 14.0614C94.1112 14.1859 94.0389 14.1858 93.96 14.2039C92.1189 14.6257 90.4541 14.337 89.072 12.9681C88.2864 12.1899 87.8963 11.224 87.7661 10.1345C87.6356 9.04197 87.7145 7.97752 88.2431 7.00068C88.5904 6.3172 89.1046 5.7324 89.738 5.3004C90.3713 4.8684 91.1035 4.60318 91.8666 4.52928C92.5279 4.45852 93.196 4.48111 93.8511 4.59638C94.0287 4.62374 94.121 4.69062 94.114 4.91006C94.093 5.5653 94.1065 6.22163 94.1065 6.90217Z" fill="black"/>
<path d="M42.3888 11.9427C42.3888 12.6413 42.3861 13.3338 42.3916 14.0262C42.3925 14.1377 42.3601 14.1763 42.2507 14.2055C39.7423 14.8763 36.8425 13.7019 36.1655 10.7616C35.8621 9.44334 35.904 8.14365 36.568 6.93709C37.3392 5.53596 38.5405 4.73421 40.1426 4.53036C40.8035 4.45798 41.4714 4.4796 42.1262 4.59457C42.304 4.62214 42.4041 4.67561 42.3965 4.90215C42.3746 5.55699 42.3888 6.21304 42.3888 6.89377C41.9721 6.79941 41.5494 6.73399 41.1237 6.69797C40.6327 6.67473 40.148 6.816 39.7464 7.09938C39.3448 7.38276 39.0492 7.79205 38.9066 8.26241C38.5807 9.22954 38.6054 10.2041 39.1625 11.095C39.6862 11.9326 40.4989 12.2062 41.4487 12.1176C41.7571 12.0889 42.0604 12.0055 42.3888 11.9427Z" fill="black"/>
<path d="M4.11923 6.47799C4.11477 6.50028 4.11627 6.52335 4.12356 6.54487C4.13086 6.56639 4.1437 6.58562 4.16078 6.6006C4.22215 6.66482 4.19567 6.73677 4.17906 6.80784C4.17367 6.83008 4.17446 6.85337 4.18133 6.87519C4.18821 6.89702 4.20092 6.91655 4.21809 6.93168C4.27569 6.99655 4.25084 7.0687 4.23654 7.13993L4.39965 8.03236C4.52749 8.29202 4.52613 8.58195 4.59024 8.85651C4.65295 9.09545 4.69915 9.33843 4.72854 9.58372C4.81578 10.166 4.93646 10.7428 5.08998 11.3112C5.10192 11.3644 5.11151 11.418 5.12219 11.4715C5.25195 11.6735 5.22087 11.4024 5.28648 11.4158C5.55838 11.0903 5.67359 10.6769 5.90033 10.3254C5.97695 10.1927 6.04628 10.0559 6.10801 9.91569C6.09867 9.80468 6.17697 9.72982 6.22164 9.64108C6.41894 9.36313 6.58602 9.06491 6.72004 8.7515C6.70879 8.6398 6.78834 8.56529 6.83307 8.47652C7.01137 8.23582 7.15964 7.97427 7.27459 7.69766C7.26524 7.58663 7.34353 7.51174 7.38827 7.42303C7.77773 6.86276 8.01272 6.21664 8.38038 5.64426C8.37335 5.55364 8.43645 5.5181 8.50465 5.48656L8.61846 5.37318C8.65067 5.29768 8.71111 5.23775 8.7869 5.2062C8.88193 5.20289 8.975 5.17826 9.05923 5.13413C9.12227 5.09119 9.19534 5.06526 9.27136 5.05887C9.34737 5.05248 9.42375 5.06583 9.49309 5.09764C9.75598 5.15879 9.98614 5.31682 10.1377 5.54018C10.2428 5.58879 10.2432 5.69567 10.2746 5.78533C10.6229 7.42543 10.9634 9.0676 11.5673 10.6399C11.6094 10.6646 11.6434 10.701 11.6651 10.7448C11.6868 10.7885 11.6953 10.8376 11.6895 10.8861C11.692 10.7707 11.6363 10.6419 11.7298 10.5374C11.774 10.4677 11.7894 10.3835 11.7728 10.3027C11.7537 10.2609 11.7451 10.215 11.7479 10.1691C11.7507 10.1232 11.7647 10.0786 11.7887 10.0394C11.8087 10.0143 11.8225 9.98487 11.8292 9.95348C11.8359 9.92209 11.8352 9.88958 11.8273 9.85849C11.8082 9.7659 11.776 9.67238 11.8466 9.58615C11.8629 9.57229 11.8749 9.55398 11.8809 9.53345C11.887 9.51293 11.887 9.49108 11.8808 9.47057C11.8639 9.38275 11.8347 9.29406 11.8989 9.21189C11.9754 9.04727 11.9445 8.8634 11.9921 8.69361C11.9761 8.66028 11.9691 8.62336 11.9718 8.58648C11.9744 8.54961 11.9867 8.51407 12.0073 8.4834C12.1363 7.86506 12.26 7.24559 12.3961 6.62881C12.473 6.27991 12.5701 5.93542 12.6581 5.58895C12.6447 5.45498 12.6775 5.32047 12.7509 5.20761L12.827 5.03489C12.8171 4.98608 12.8199 4.93556 12.8351 4.88815C12.8504 4.84074 12.8775 4.79804 12.914 4.76412C13.0526 4.42968 13.1913 4.09523 13.33 3.76079C13.3278 3.68214 13.3526 3.60511 13.4004 3.54258L13.3956 3.54917C13.4498 3.47293 13.4628 3.36763 13.5579 3.32028L13.7829 3.04321C13.8068 2.99111 13.8452 2.94701 13.8935 2.91621C13.9419 2.88541 13.9981 2.86921 14.0554 2.86956C14.2502 2.79624 14.4595 2.76905 14.6666 2.79013C14.8737 2.81121 15.0732 2.87998 15.2493 2.99105C15.3236 3.01722 15.391 3.06003 15.4462 3.11622C15.5014 3.1724 15.5431 3.24047 15.568 3.31523C15.6813 3.5104 15.7407 3.7322 15.7401 3.95789C15.7395 4.18358 15.6788 4.40504 15.5644 4.59958C15.3519 5.00432 15.1841 5.43096 15.0638 5.87198C15.0725 5.93142 15.0672 5.99206 15.0484 6.0491C15.0296 6.10615 14.9977 6.15803 14.9554 6.20064L14.8974 6.42635C14.93 6.54508 14.8579 6.6411 14.8278 6.74623C14.6919 7.1873 14.5873 7.63742 14.5149 8.09324C14.5257 8.16367 14.555 8.23605 14.4933 8.29889C14.3503 8.90654 14.2444 9.52231 14.176 10.1428C14.1927 10.1762 14.2003 10.2134 14.1981 10.2506C14.196 10.2879 14.184 10.3239 14.1636 10.3551C14.1432 10.379 14.1287 10.4075 14.1215 10.4382C14.1142 10.4688 14.1144 10.5007 14.1219 10.5313C14.139 10.5738 14.1465 10.6197 14.1437 10.6654C14.1409 10.7112 14.128 10.7558 14.1059 10.7959C14.0859 10.8207 14.0719 10.8498 14.065 10.8809C14.0581 10.9119 14.0585 10.9442 14.0661 10.9751C14.0827 11.0182 14.0901 11.0643 14.0879 11.1105C14.0856 11.1566 14.0738 11.2018 14.0532 11.2432C14.0308 11.2767 14.0154 11.3144 14.008 11.3541C14.0006 11.3937 14.0012 11.4344 14.0099 11.4738C14.0283 11.5254 14.0363 11.5801 14.0334 11.6348C14.0304 11.6894 14.0166 11.743 13.9927 11.7922C13.9708 11.827 13.9561 11.8659 13.9496 11.9065C13.943 11.9471 13.9448 11.9886 13.9547 12.0285C13.9904 12.152 13.9855 12.2838 13.9407 12.4043C13.8915 12.5123 13.877 12.6328 13.8991 12.7494C13.9197 12.9482 13.9257 13.1482 13.9173 13.3479C13.8782 13.7602 13.8782 14.1752 13.9173 14.5875C13.8948 14.8044 13.964 15.0266 13.8778 15.2395C13.7648 15.6688 13.563 16.0264 13.1129 16.1835C12.9686 16.2276 12.8144 16.227 12.6705 16.1819L12.2209 15.9711C12.1293 15.981 12.0952 15.9136 12.058 15.8503L11.6147 15.4033C11.5632 15.3797 11.5172 15.3457 11.4795 15.3033C11.4419 15.261 11.4135 15.2113 11.3962 15.1573C11.3963 15.1387 11.3905 15.1205 11.3797 15.1054C11.3688 15.0903 11.3534 15.079 11.3357 15.0732C11.2952 15.0556 11.2594 15.0288 11.2312 14.9949C11.203 14.961 11.1832 14.9209 11.1733 14.8779C10.6913 14.1987 10.2676 13.48 9.90671 12.7295C9.58268 12.0307 9.30133 11.3129 9.06424 10.5801C9.03494 10.5043 9.00169 10.43 8.96462 10.3577C8.91545 10.2673 8.88146 10.1694 8.86402 10.068C8.83298 9.9817 8.78441 9.98783 8.72089 10.0223C8.60071 10.1937 8.50785 10.3827 8.44563 10.5825C8.30134 10.9233 8.13206 11.2529 7.93916 11.5688C7.47504 12.382 7.1127 13.247 6.66658 14.0691C6.48011 14.4127 6.26546 14.741 6.06362 15.0763C6.08576 15.167 6.00147 15.1963 5.96232 15.2515C5.89884 15.3186 5.88616 15.431 5.77772 15.4581C5.55219 15.7181 5.28882 15.9427 4.99645 16.1243C4.94058 16.1669 4.86701 16.1701 4.80902 16.2082C4.72774 16.1988 4.64013 16.2403 4.56555 16.1778C3.99112 15.9204 3.81046 15.374 3.63002 14.8502C3.30207 13.8911 3.03363 12.9126 2.82622 11.9205C2.81606 11.895 2.80187 11.8714 2.7842 11.8505C2.75472 11.7259 2.66881 11.6113 2.71672 11.4729C2.51317 10.4389 2.30926 9.40493 2.10498 8.37105C2.09543 8.34554 2.08198 8.32166 2.06512 8.30025C2.00531 8.23282 2.04663 8.12839 1.97837 8.06398C1.96953 7.84491 1.93156 7.62801 1.86546 7.41897C1.85777 7.32913 1.86267 7.23865 1.88001 7.15017C1.84778 6.88464 1.79723 6.62165 1.72872 6.3631C1.70956 6.33171 1.69807 6.29625 1.69519 6.25959C1.69231 6.22293 1.69812 6.18611 1.71215 6.15212C1.70356 5.99622 1.67245 5.84239 1.61977 5.69541C1.56299 5.62955 1.58586 5.55751 1.60345 5.48588C1.60948 5.46364 1.6091 5.44015 1.60236 5.41811C1.59561 5.39608 1.58278 5.3764 1.56534 5.36134C1.50135 5.30005 1.55455 5.19506 1.48139 5.13717C1.45887 5.0289 1.50246 4.91477 1.45206 4.809L1.45523 4.81501C1.39794 4.63545 1.39773 4.44255 1.45462 4.26286C1.51957 4.23332 1.50363 4.17355 1.50771 4.12126C1.54448 4.01175 1.55339 3.88708 1.67114 3.82157C1.81184 3.66105 1.98159 3.52855 2.17148 3.43106C2.22746 3.39426 2.2905 3.36952 2.35657 3.35842C2.42264 3.34732 2.4903 3.3501 2.55524 3.36659L2.83947 3.36379C2.9384 3.34184 3.0414 3.34687 3.13772 3.37834C3.23404 3.40982 3.32014 3.46659 3.38701 3.54273C3.61527 3.76312 3.7579 4.05737 3.78951 4.37309C3.87165 4.60016 3.91588 4.83919 3.92044 5.08061C3.96945 5.20719 3.98171 5.34504 3.95578 5.47828C3.95126 5.5003 3.95267 5.52314 3.95985 5.54444C3.96704 5.56575 3.97975 5.58476 3.99669 5.59954C4.0172 5.63022 4.02944 5.66568 4.03222 5.70248C4.03499 5.73928 4.02821 5.77618 4.01254 5.80959C4.0068 5.83189 4.0073 5.85534 4.01398 5.87738C4.02067 5.89942 4.03327 5.9192 4.05043 5.93457C4.11414 5.9903 4.06588 6.07538 4.10397 6.13784C4.14312 6.24711 4.14845 6.36565 4.11923 6.47799Z" fill="#FEFEFE"/>
<path d="M24.2141 11.03C24.2308 10.9487 24.2167 10.8641 24.1745 10.7926C24.1183 10.4322 24.1176 10.0654 24.1724 9.70483C24.216 9.61527 24.2313 9.51456 24.2162 9.4161C24.1822 9.24983 24.2009 9.07708 24.2697 8.92194L24.4317 8.2489C24.4159 8.11596 24.446 7.98162 24.5171 7.86816C24.7274 7.34184 24.9762 6.83179 25.2617 6.34215C25.39 6.14428 25.5252 5.95085 25.6572 5.7554C25.66 5.63711 25.7517 5.59196 25.835 5.53995L26.2811 5.09468C26.3143 5.02773 26.3516 4.96608 26.4402 4.96933L26.8325 4.70446C26.8794 4.64792 26.9383 4.60252 27.0049 4.57154C27.0715 4.54056 27.1442 4.52477 27.2177 4.52531C27.5484 4.40517 27.8907 4.3198 28.2391 4.27057C28.4673 4.21155 28.7073 4.21545 28.9336 4.28185C29.0069 4.3066 29.0928 4.26127 29.1599 4.32184C29.5135 4.41636 29.8587 4.53988 30.192 4.69115C30.6088 4.90681 30.9674 5.21973 31.2376 5.60342C31.9849 6.63834 32.1896 7.81634 32.1194 9.06186C32.1158 9.1261 32.1197 9.19076 32.1201 9.25523C32.1563 9.37725 32.1503 9.50795 32.1029 9.62612C32.0841 9.65238 32.0708 9.68227 32.064 9.71389C32.0572 9.74551 32.057 9.7782 32.0634 9.80991C32.0803 9.84292 32.0878 9.87991 32.0852 9.91689C32.0827 9.95388 32.07 9.98947 32.0488 10.0198C31.8766 10.8568 31.5829 11.664 31.1772 12.416C31.1778 12.4597 31.1667 12.5028 31.1451 12.5409C31.1235 12.5789 31.0921 12.6105 31.0542 12.6324C30.9106 12.8378 30.7671 13.0431 30.6235 13.2485C30.6266 13.3372 30.5661 13.3747 30.497 13.4054C30.3485 13.5544 30.2001 13.7035 30.0517 13.8525C30.0353 13.8935 30.0092 13.9298 29.9754 13.9583C29.9417 13.9867 29.9016 14.0065 29.8584 14.0157L29.5513 14.2124C29.521 14.2569 29.4805 14.2934 29.4332 14.3189C29.3859 14.3444 29.3332 14.3582 29.2794 14.3592C28.925 14.527 28.5454 14.6353 28.1558 14.6796C27.9254 14.7338 27.6855 14.733 27.4555 14.6773C27.0182 14.6007 26.591 14.4745 26.1823 14.3008C25.9928 14.2114 25.851 14.0597 25.6635 13.9754C25.4438 13.8662 25.2653 13.6889 25.1545 13.4701C24.7024 12.8694 24.4021 12.1685 24.279 11.4268C24.2792 11.3623 24.2602 11.2991 24.2243 11.2455C24.2054 11.213 24.1946 11.1765 24.1928 11.139C24.191 11.1015 24.1983 11.0641 24.2141 11.03Z" fill="#FEFEFE"/>
<path d="M4.7283 9.58358C4.56189 9.18975 4.54878 8.76068 4.4454 8.35224C4.42422 8.24649 4.40887 8.13966 4.39941 8.03223C4.58148 8.105 4.51269 8.28676 4.54731 8.41313C4.63665 8.73917 4.68227 9.07698 4.75135 9.40884C4.76494 9.47415 4.79285 9.53238 4.7283 9.58358Z" fill="#995A8D"/>
<path d="M13.89 14.5756C13.8273 14.1714 13.827 13.76 13.8892 13.3557C13.9071 13.3307 13.9254 13.3303 13.9442 13.3546V14.5766C13.9257 14.6002 13.9076 14.601 13.89 14.5756Z" fill="#8F4981"/>
<path d="M7.93945 11.5688C8.08075 11.2266 8.25015 10.8967 8.44592 10.5825C8.37961 10.9592 8.14538 11.2593 7.9829 11.5921C7.9817 11.5946 7.96525 11.5923 7.95803 11.5884C7.95084 11.5829 7.94457 11.5763 7.93945 11.5688Z" fill="#934F86"/>
<path d="M24.1729 9.70516C24.1736 10.0678 24.1743 10.4304 24.175 10.7929C24.1495 10.8478 24.1149 10.9171 24.1136 10.7879C24.1096 10.3899 24.1121 9.9919 24.1121 9.58203C24.1368 9.60404 24.1542 9.6122 24.1584 9.62475C24.1653 9.65113 24.1702 9.67802 24.1729 9.70516Z" fill="#883E7A"/>
<path d="M20.2788 4.31032C20.0433 4.2968 19.8077 4.28329 19.5722 4.26978C19.5358 4.26394 19.4993 4.2581 19.4629 4.25224C19.7358 4.23579 20.0096 4.14093 20.2807 4.26119C20.2996 4.27285 20.3057 4.28401 20.2988 4.29469C20.2921 4.30509 20.2855 4.31032 20.2788 4.31032Z" fill="#924E85"/>
<path d="M25.1553 13.4702L25.6643 13.9755C25.5431 13.9424 25.4325 13.8785 25.3433 13.7899C25.254 13.7014 25.1893 13.5912 25.1553 13.4702Z" fill="#904B83"/>
<path d="M3.89698 5.09344L3.78906 4.37329C3.98367 4.58207 3.92992 4.84528 3.94735 5.09289C3.94462 5.09705 3.94091 5.10048 3.93654 5.10286C3.93218 5.10525 3.92729 5.10653 3.92231 5.10659C3.91734 5.10664 3.91243 5.10547 3.90801 5.10318C3.90359 5.10088 3.8998 5.09754 3.89698 5.09344Z" fill="#955388"/>
<path d="M28.9461 4.30688C28.7106 4.29481 28.4751 4.28274 28.2397 4.27068C28.1982 4.26371 28.1567 4.25674 28.1152 4.24975C28.3955 4.24073 28.6746 4.13535 28.9451 4.26245C28.9641 4.27191 28.9706 4.28164 28.9645 4.29166C28.9585 4.30179 28.9523 4.30688 28.9461 4.30688Z" fill="#934F86"/>
<path d="M15.4913 10.0828C15.4966 10.4343 15.502 10.7858 15.5073 11.1373C15.3709 10.9061 15.4734 10.6544 15.4468 10.4136C15.4403 10.3034 15.4401 10.193 15.4461 10.0828C15.4612 10.059 15.4763 10.059 15.4913 10.0828Z" fill="#904B83"/>
<path d="M18.7908 14.6791C19.0229 14.6785 19.2549 14.678 19.4869 14.6775C19.5111 14.6925 19.5665 14.7301 19.5408 14.7313C19.2746 14.7436 19.0076 14.7393 18.7408 14.7386C18.7372 14.7386 18.7296 14.7203 18.7305 14.7196C18.7501 14.7053 18.7705 14.6923 18.7908 14.6791Z" fill="#8B437D"/>
<path d="M27.4567 14.6775C27.6901 14.6783 27.9235 14.6791 28.157 14.6799C28.1793 14.695 28.2368 14.7312 28.2054 14.7323C27.9535 14.7409 27.701 14.7299 27.4487 14.7239C27.4445 14.7171 27.4427 14.7091 27.4436 14.7012C27.4467 14.6926 27.4511 14.6846 27.4567 14.6775Z" fill="#8A417C"/>
<path d="M3.3874 3.54279C3.22201 3.4398 3.03413 3.37841 2.83984 3.36386C3.06991 3.27852 3.2646 3.30109 3.3874 3.54279Z" fill="#914C83"/>
<path d="M1.88481 7.42114C1.98436 7.62641 2.0253 7.85519 2.00312 8.08225C2.01804 8.09663 2.02256 8.11048 2.01666 8.12379C2.01089 8.13684 2.00532 8.14336 1.99998 8.14337L1.83594 7.42059C1.8525 7.39706 1.86879 7.39724 1.88481 7.42114Z" fill="#98588C"/>
<path d="M8.7207 10.0224C8.75529 9.89425 8.82414 9.86783 8.88084 9.99627C8.92055 10.1137 8.94854 10.2348 8.96442 10.3577C8.82632 10.2871 8.89511 10.0667 8.7207 10.0224Z" fill="#914D84"/>
<path d="M11.7289 10.5373V10.9357C11.651 10.8521 11.5951 10.7504 11.5664 10.6398C11.6489 10.6321 11.6667 10.5762 11.6701 10.506C11.6712 10.4826 11.6819 10.4513 11.7126 10.4858C11.7236 10.498 11.7238 10.5198 11.7289 10.5373Z" fill="#8A417C"/>
<path d="M15.6607 11.7498C15.7069 11.9327 15.7531 12.1156 15.7993 12.2985C15.6826 12.1333 15.5705 11.967 15.6607 11.7498Z" fill="#904C83"/>
<path d="M16.391 6.646C16.3216 6.77793 16.2522 6.90987 16.1828 7.04181C16.1629 6.96178 16.1731 6.87723 16.2115 6.80424C16.2499 6.73126 16.3138 6.67494 16.391 6.646Z" fill="#8E4981"/>
<path d="M22.5635 12.301L22.7845 11.8596C22.8002 11.9472 22.7871 12.0375 22.7473 12.117C22.7075 12.1966 22.643 12.2611 22.5635 12.301Z" fill="#924E85"/>
<path d="M15.4925 10.0828L15.4699 10.083L15.4473 10.0828C15.4527 9.88102 15.458 9.67925 15.4644 9.47752C15.4645 9.47518 15.4793 9.47076 15.4865 9.47185C15.495 9.47448 15.5031 9.47843 15.5103 9.48353C15.5044 9.68328 15.4984 9.88303 15.4925 10.0828Z" fill="#833775"/>
<path d="M13.8896 14.5752C13.9077 14.5752 13.9258 14.5756 13.9439 14.5762C13.9106 14.7962 14.0214 15.0306 13.877 15.2394C13.8812 15.018 13.8854 14.7966 13.8896 14.5752Z" fill="#853976"/>
<path d="M27.2182 4.52551L26.833 4.70465C26.8448 4.66636 26.8644 4.63097 26.8907 4.60077C26.9171 4.57057 26.9494 4.54624 26.9857 4.52935C27.0221 4.51245 27.0615 4.50339 27.1016 4.50272C27.1416 4.50206 27.1814 4.50982 27.2182 4.52551Z" fill="#8E4881"/>
<path d="M15.5677 3.31512C15.4615 3.20708 15.3553 3.09903 15.249 2.99097C15.4298 3.02592 15.5705 3.10025 15.5677 3.31512Z" fill="#8F4981"/>
<path d="M24.2697 8.92212L24.2162 9.41627C24.1711 9.33901 24.152 9.24933 24.1616 9.16039C24.1712 9.07146 24.2091 8.98795 24.2697 8.92212Z" fill="#904B83"/>
<path d="M13.9447 13.3545C13.9263 13.3551 13.908 13.3555 13.8896 13.3556C13.8928 13.1536 13.896 12.9515 13.8991 12.7495C14.0019 12.9446 13.9204 13.1535 13.9447 13.3545Z" fill="#853976"/>
<path d="M9.49343 5.09775L9.05957 5.13424C9.20097 4.95227 9.38428 5.0545 9.55358 5.06165C9.55035 5.06806 9.54872 5.07792 9.54361 5.08026C9.52721 5.08698 9.51046 5.09282 9.49343 5.09775Z" fill="#914C84"/>
<path d="M1.45495 4.26294C1.45513 4.44697 1.45531 4.631 1.45552 4.81505C1.4061 4.73147 1.37998 4.63617 1.37988 4.53907C1.37978 4.44197 1.4057 4.34662 1.45495 4.26294Z" fill="#965489"/>
<path d="M12.6715 16.1819L13.1139 16.1835C12.9777 16.2985 12.8215 16.2188 12.6744 16.2278C12.6705 16.228 12.6624 16.2146 12.6621 16.2074C12.6636 16.1983 12.6668 16.1897 12.6715 16.1819Z" fill="#843775"/>
<path d="M21.665 13.5725L21.9 13.3032C21.923 13.4811 21.8195 13.549 21.665 13.5725Z" fill="#8F4A82"/>
<path d="M2.71647 11.4729C2.73896 11.5988 2.76144 11.7246 2.78393 11.8505L2.74852 11.9122C2.74239 11.7654 2.60689 11.6281 2.71647 11.4729Z" fill="#8E4780"/>
<path d="M3.89718 5.09332C3.91397 5.09325 3.93075 5.09306 3.94754 5.09277C3.9879 5.14862 4.01029 5.21543 4.01172 5.28432C4.01315 5.3532 3.99356 5.42089 3.95555 5.47836C3.96059 5.34632 3.86839 5.22896 3.89718 5.09332Z" fill="#945288"/>
<path d="M23.4355 9.51859L23.4532 9.03418C23.5143 9.1911 23.5245 9.36325 23.4823 9.52629C23.4821 9.52891 23.4667 9.53271 23.4592 9.53136C23.4507 9.52839 23.4427 9.52408 23.4355 9.51859Z" fill="#843775"/>
<path d="M14.0547 2.86959L13.7822 3.04324C13.803 2.87584 13.8935 2.81734 14.0547 2.86959Z" fill="#914C83"/>
<path d="M2.55466 3.36671L2.1709 3.43119C2.19149 3.4013 2.21788 3.37585 2.2485 3.35636C2.27911 3.33687 2.31334 3.32372 2.34913 3.31771C2.38492 3.3117 2.42156 3.31293 2.45686 3.32135C2.49217 3.32977 2.52543 3.3452 2.55466 3.36671Z" fill="#8E4881"/>
<path d="M32.1035 9.62627C32.1092 9.50264 32.1149 9.379 32.1206 9.25537C32.2125 9.3905 32.1538 9.53995 32.1606 9.68312C32.1607 9.68541 32.1425 9.6917 32.1417 9.69041C32.1281 9.66958 32.116 9.64782 32.1035 9.62627Z" fill="#904A82"/>
<path d="M4.11949 6.47813L4.06641 6.14434C4.07067 6.13248 4.07733 6.12162 4.08598 6.11245C4.09463 6.10329 4.10507 6.09601 4.11666 6.09106C4.15656 6.14759 4.17822 6.21497 4.17873 6.28416C4.17923 6.35334 4.15856 6.42103 4.11949 6.47813Z" fill="#98588B"/>
<path d="M23.4541 8.36123C23.4492 8.2173 23.4444 8.07337 23.4395 7.92944C23.4836 7.99219 23.5085 8.06645 23.5111 8.14314C23.5138 8.21983 23.4939 8.29562 23.4541 8.36123Z" fill="#863A77"/>
<path d="M13.9404 12.4044L13.9544 12.0286C14.0493 12.1602 13.9824 12.3087 13.9975 12.4487C13.9979 12.4525 13.9871 12.4576 13.9816 12.4621L13.9404 12.4044Z" fill="#853976"/>
<path d="M12.751 5.20776L12.6581 5.5891C12.6202 5.52614 12.6087 5.45075 12.6261 5.37933C12.6435 5.30792 12.6883 5.24625 12.751 5.20776Z" fill="#914D84"/>
<path d="M11.3955 15.1575L11.614 15.4034C11.4453 15.4063 11.404 15.2964 11.3955 15.1575Z" fill="#8F4A82"/>
<path d="M1.67113 3.82178C1.61666 3.92163 1.56218 4.02151 1.50771 4.12142C1.50666 3.99142 1.48959 3.85264 1.67113 3.82178Z" fill="#8E4781"/>
<path d="M20.2793 4.31012C20.28 4.29375 20.2806 4.27738 20.2812 4.261C20.3923 4.29322 20.5485 4.18037 20.6127 4.36366L20.2793 4.31012Z" fill="#98588C"/>
<path d="M14.9561 6.20073L15.0645 5.87207C15.0833 5.89972 15.0955 5.93133 15.1002 5.96447C15.1049 5.99761 15.1019 6.03137 15.0914 6.06315C15.0809 6.09493 15.0632 6.12387 15.0398 6.14773C15.0163 6.17159 14.9877 6.18972 14.9561 6.20073Z" fill="#8C457E"/>
<path d="M21.249 13.9602L21.4956 13.741C21.5014 13.9127 21.3881 13.9509 21.249 13.9602Z" fill="#8F4982"/>
<path d="M24.5169 7.86841L24.4316 8.24915C24.34 8.09542 24.4217 7.9804 24.5169 7.86841Z" fill="#8C447E"/>
<path d="M14.8281 6.74614L14.8977 6.42627C15.0027 6.54636 14.8689 6.64893 14.872 6.76165C14.8643 6.76355 14.8562 6.76384 14.8484 6.76248C14.8408 6.75821 14.8339 6.75268 14.8281 6.74614Z" fill="#904A82"/>
<path d="M15.504 11.1321C15.6007 11.2258 15.5574 11.3586 15.5979 11.468C15.4183 11.3973 15.5328 11.2447 15.504 11.1321Z" fill="#8C457F"/>
<path d="M25.8356 5.54004L25.6578 5.75549C25.6153 5.60004 25.6966 5.5463 25.8356 5.54004Z" fill="#904B83"/>
<path d="M13.5568 3.32031C13.5153 3.40546 13.497 3.50704 13.3945 3.54916C13.4162 3.45001 13.3978 3.32246 13.5568 3.32031Z" fill="#8E4881"/>
<path d="M7.38925 7.4231C7.40595 7.53715 7.32211 7.60975 7.27558 7.69773C7.19315 7.55657 7.30059 7.4937 7.38925 7.4231Z" fill="#8E4981"/>
<path d="M1.45233 4.80908C1.55686 4.9069 1.51414 5.02752 1.50427 5.14306C1.5193 5.15776 1.52374 5.17179 1.51756 5.18513C1.51155 5.19814 1.5058 5.20464 1.50033 5.20465C1.39938 5.08306 1.46342 4.94153 1.45233 4.80908Z" fill="#97578B"/>
<path d="M18.2757 4.64084L18.0566 4.76095C18.0744 4.62055 18.1494 4.58412 18.2757 4.64084Z" fill="#8F4A82"/>
<path d="M5.28538 11.4158L5.2096 11.6511C5.1431 11.6049 5.14015 11.534 5.12109 11.4714L5.28538 11.4158Z" fill="#8B437D"/>
<path d="M13.9922 11.7923L14.0094 11.4739C14.0925 11.5767 14.0566 11.6907 14.039 11.8025C14.0386 11.8052 14.0227 11.8081 14.015 11.8064C14.0067 11.8029 13.999 11.7982 13.9922 11.7923Z" fill="#843976"/>
<path d="M6.83374 8.47656C6.85211 8.59118 6.7668 8.66333 6.72071 8.75155C6.63673 8.61006 6.74482 8.54724 6.83374 8.47656Z" fill="#8E4780"/>
<path d="M31.0547 12.6327L31.1776 12.4163C31.2306 12.5416 31.1989 12.619 31.0547 12.6327Z" fill="#8F4A82"/>
<path d="M15.5646 8.9209C15.5596 9.04911 15.5547 9.17732 15.5497 9.30554C15.5086 9.24907 15.4878 9.18042 15.4905 9.11064C15.4932 9.04087 15.5193 8.97403 15.5646 8.9209Z" fill="#955388"/>
<path d="M17.2246 14.1799C17.2823 14.1829 17.3384 14.2002 17.3878 14.2301C17.4372 14.2601 17.4785 14.3019 17.5078 14.3517C17.4493 14.3521 17.3919 14.3362 17.3419 14.3059C17.2919 14.2756 17.2513 14.232 17.2246 14.1799Z" fill="#8E4781"/>
<path d="M29.2793 14.3593C29.3699 14.3105 29.4606 14.2616 29.5512 14.2126C29.5049 14.3433 29.4267 14.4152 29.2793 14.3593Z" fill="#904A83"/>
<path d="M6.22221 9.64111C6.23925 9.75529 6.15449 9.8275 6.10858 9.91572C6.02616 9.77459 6.13361 9.71174 6.22221 9.64111Z" fill="#8E4881"/>
<path d="M5.77734 15.458L5.94437 15.2346C5.9625 15.2478 5.96909 15.2617 5.96414 15.2762C5.9591 15.2911 5.95373 15.2985 5.94806 15.2985C5.92399 15.3867 5.91537 15.4914 5.77734 15.458Z" fill="#8F4982"/>
<path d="M11.8989 9.21209L11.8807 9.47077C11.8479 9.42928 11.8273 9.37945 11.8212 9.3269C11.8151 9.27434 11.8238 9.22113 11.8463 9.17323C11.876 9.09395 11.8779 9.19844 11.8989 9.21209Z" fill="#924E85"/>
<path d="M26.44 4.96941L26.2808 5.09477C26.2622 4.96228 26.3189 4.92522 26.44 4.96941Z" fill="#8E4981"/>
<path d="M12.9141 4.76416L12.8271 5.03494C12.7342 4.90566 12.81 4.83038 12.9141 4.76416Z" fill="#8C457E"/>
<path d="M17.8315 4.91594L17.6701 5.03877C17.6563 4.90938 17.7087 4.86656 17.8315 4.91594Z" fill="#8E4981"/>
<path d="M22.1075 5.09605L21.9502 4.96935C22.0707 4.92743 22.1302 4.96089 22.1075 5.09605Z" fill="#8E4881"/>
<path d="M11.7888 10.0396L11.7729 10.3028C11.7231 10.2118 11.658 10.1198 11.7888 10.0396Z" fill="#863B78"/>
<path d="M14.0527 11.2432L14.0657 10.9751C14.1208 11.0673 14.1623 11.1589 14.0527 11.2432Z" fill="#843775"/>
<path d="M8.78734 5.2063C8.75992 5.29083 8.68617 5.32881 8.61889 5.37328C8.58773 5.22986 8.69226 5.22283 8.78734 5.2063Z" fill="#8F4981"/>
<path d="M22.5148 5.53255L22.3877 5.37567C22.5232 5.35276 22.5563 5.41253 22.5148 5.53255Z" fill="#8E4881"/>
<path d="M8.50448 5.4864L8.38022 5.6441C8.33283 5.52181 8.36867 5.46486 8.50448 5.4864Z" fill="#8E4881"/>
<path d="M15.9141 7.70312L15.8282 7.97423C15.7334 7.84488 15.8103 7.76975 15.9141 7.70312Z" fill="#8C457E"/>
<path d="M30.498 13.4056L30.6246 13.2488C30.6675 13.3695 30.634 13.4287 30.498 13.4056Z" fill="#8E4881"/>
<path d="M16.3955 13.3809L16.5589 13.5741C16.3938 13.6029 16.4055 13.4827 16.3955 13.3809Z" fill="#8F4981"/>
<path d="M29.8584 14.0157L30.0517 13.8525C30.0814 14.0181 29.9602 14.0054 29.8584 14.0157Z" fill="#8F4981"/>
<path d="M16.8953 13.9072C16.9629 13.9514 17.0354 13.9906 17.0639 14.0742C16.9689 14.0575 16.8639 14.051 16.8953 13.9072Z" fill="#8E4881"/>
<path d="M14.1055 10.7959L14.1215 10.5312C14.1706 10.6227 14.2288 10.7148 14.1055 10.7959Z" fill="#873D79"/>
<path d="M11.1729 14.8779L11.3352 15.0732C11.1748 15.0962 11.1808 14.9813 11.1729 14.8779Z" fill="#8F4981"/>
<path d="M5.94802 15.2987L5.94434 15.2348L6.06319 15.0764C6.14904 15.2147 6.01052 15.237 5.94802 15.2987Z" fill="#8F4982"/>
<path d="M12.0581 15.8503L12.221 15.9711C12.0969 16.0248 12.0471 15.9784 12.0581 15.8503Z" fill="#904B83"/>
<path d="M4.56543 16.1777L4.8345 16.1793C4.85166 16.1919 4.85747 16.2047 4.85192 16.2176C4.84637 16.2306 4.84075 16.2371 4.83508 16.2371C4.74683 16.2099 4.63187 16.3036 4.56543 16.1777Z" fill="#893F7B"/>
<path d="M13.3993 3.54272C13.4037 3.62168 13.3786 3.69946 13.3289 3.76094C13.2452 3.65375 13.3293 3.60049 13.3993 3.54272Z" fill="#8F4982"/>
<path d="M28.9453 4.30691C28.9451 4.29209 28.9448 4.27728 28.9443 4.26247C29.0121 4.2968 29.1211 4.18266 29.1598 4.322L28.9453 4.30691Z" fill="#873B78"/>
<path d="M11.847 9.58618L11.8276 9.85853C11.809 9.84042 11.7945 9.81844 11.7852 9.79413C11.7759 9.76983 11.772 9.74379 11.7739 9.71784C11.7757 9.69189 11.7832 9.66665 11.7959 9.64391C11.8085 9.62117 11.826 9.60146 11.847 9.58618Z" fill="#843875"/>
<path d="M1.49958 5.20465L1.50352 5.14307C1.59665 5.19551 1.54775 5.28771 1.56487 5.36143C1.44533 5.34974 1.52881 5.25381 1.49958 5.20465Z" fill="#853976"/>
<path d="M12.0079 8.4834L11.9927 8.6936C11.9334 8.6189 11.9051 8.54642 12.0079 8.4834Z" fill="#883F7A"/>
<path d="M1.60379 5.48608L1.62011 5.69561C1.51953 5.63315 1.54396 5.56099 1.60379 5.48608Z" fill="#843876"/>
<path d="M14.1631 10.3551L14.1755 10.1428C14.2375 10.2175 14.2653 10.2901 14.1631 10.3551Z" fill="#833775"/>
<path d="M23.398 7.75067L23.3828 7.54053C23.482 7.60378 23.4595 7.67582 23.398 7.75067Z" fill="#843976"/>
<path d="M2.00052 8.14314L2.00366 8.08203C2.09471 8.13496 2.04832 8.22634 2.06489 8.30011C1.94595 8.28762 2.0278 8.19308 2.00052 8.14314Z" fill="#863C78"/>
<path d="M4.23719 7.13989L4.21875 6.93164C4.32362 6.99234 4.29222 7.06507 4.23719 7.13989Z" fill="#873D7A"/>
<path d="M10.2736 5.78541C10.228 5.70371 10.1824 5.622 10.1367 5.54028C10.2799 5.56765 10.2825 5.67333 10.2736 5.78541Z" fill="#8D4780"/>
<path d="M4.17941 6.80784C4.17332 6.73875 4.16723 6.66967 4.16113 6.60059C4.26842 6.66078 4.23695 6.73317 4.17941 6.80784Z" fill="#863A77"/>
<path d="M1.7124 6.15234L1.72896 6.36332C1.63239 6.30012 1.65545 6.22756 1.7124 6.15234Z" fill="#873C79"/>
<path d="M14.4932 8.29892L14.5148 8.09326C14.5654 8.16786 14.6034 8.24115 14.4932 8.29892Z" fill="#873D79"/>
<path d="M1.88515 7.42105L1.86071 7.42111L1.83628 7.42052C1.84811 7.32996 1.80133 7.23007 1.87959 7.15015L1.88515 7.42105Z" fill="#873D79"/>
<path d="M32.0488 10.02L32.0635 9.81006C32.1246 9.88462 32.1521 9.95683 32.0488 10.02Z" fill="#863B78"/>
<path d="M4.01194 5.80965L3.99609 5.59961C4.09476 5.66261 4.07247 5.73469 4.01194 5.80965Z" fill="#843876"/>
<path d="M4.83554 16.2373L4.83496 16.1795C4.85592 16.1585 4.8814 16.1427 4.90946 16.1331C4.93752 16.1236 4.9674 16.1206 4.99679 16.1244C4.99211 16.2319 4.87578 16.1804 4.83554 16.2373Z" fill="#8B447E"/>
<path d="M24.2141 11.0303L24.2244 11.2457C24.1073 11.1793 24.1667 11.1045 24.2141 11.0303Z" fill="#843976"/>
<path d="M4.11673 6.09092L4.06647 6.1442C4.06124 6.07432 4.05601 6.00445 4.05078 5.93457C4.17341 5.94439 4.08501 6.04289 4.11673 6.09092Z" fill="#873C79"/>
<path d="M50.955 7.40125C50.7582 6.49454 50.229 5.6944 49.4716 5.15851C48.7419 4.67172 47.874 4.43459 46.9982 4.48266C45.0201 4.43642 43.6681 5.56353 43.1864 7.32025C42.8211 8.67844 42.8288 10.11 43.2085 11.4642C43.3944 12.2757 43.8372 13.0054 44.4711 13.5449C45.3653 14.2732 46.4119 14.4442 47.5292 14.3616C49.1376 14.2427 50.2203 13.4145 50.7794 11.9257C51.3359 10.444 51.3368 8.92521 50.955 7.40125ZM48.275 11.2255C48.0486 12.0053 47.3939 12.3974 46.65 12.19C46.4466 12.1302 46.2634 12.0162 46.1199 11.8602C45.9764 11.7042 45.8781 11.5121 45.8354 11.3045C45.6271 10.5696 45.6459 9.81276 45.6517 9.05844C45.6395 8.52551 45.7222 7.99467 45.8958 7.49067C46.177 6.74322 46.8315 6.42406 47.4958 6.70626C47.6671 6.78561 47.82 6.89983 47.9447 7.04161C48.0693 7.18339 48.163 7.34962 48.2198 7.52968C48.4479 8.12225 48.4694 8.74703 48.503 9.37253C48.458 9.99281 48.4509 10.6196 48.275 11.2255Z" fill="black"/>
<path d="M88.0161 13.9735C87.4109 12.707 86.811 11.4379 86.195 10.1767C86.0961 9.97427 86.0856 9.89622 86.313 9.77188C86.6241 9.59829 86.8951 9.36096 87.1082 9.07541C87.3212 8.78986 87.4716 8.46254 87.5494 8.11486C87.6272 7.76718 87.6307 7.40699 87.5596 7.05786C87.4886 6.70874 87.3446 6.37855 87.1372 6.08891C86.4597 5.16298 85.4547 4.85219 84.376 4.76872C83.2506 4.68164 82.1195 4.74502 80.9911 4.72733C80.8033 4.72438 80.7658 4.77839 80.7661 4.95615C80.7717 7.94856 80.7712 10.941 80.7647 13.9334C80.7641 14.1328 80.8381 14.1486 80.9996 14.147C81.6842 14.1399 82.3691 14.1354 83.0535 14.1491C83.2646 14.1533 83.3301 14.1072 83.3279 13.8831C83.3156 12.6271 83.322 11.371 83.322 10.1149V9.80996C83.6837 10.5594 84.0077 11.23 84.3311 11.901C84.6591 12.5815 84.987 13.2621 85.3148 13.9427C85.3596 14.0355 85.3719 14.1484 85.5285 14.1472C86.3766 14.1406 87.2248 14.1441 88.0961 14.1441C88.0617 14.0706 88.0392 14.0219 88.0161 13.9735ZM84.3853 8.60674C84.1318 8.7104 83.86 8.76179 83.5861 8.75784C83.2989 8.88087 83.2827 8.70785 83.2881 8.46489C83.3005 7.90349 83.304 7.34125 83.2863 6.78013C83.279 6.55102 83.3583 6.5227 83.5554 6.55668C83.8558 6.5826 84.1511 6.64989 84.433 6.75664C84.8718 6.96422 84.9813 7.35331 84.9872 7.78021C84.9919 7.96503 84.9354 8.1462 84.8265 8.29564C84.7177 8.44508 84.5626 8.55443 84.3853 8.60674Z" fill="black"/>
<path d="M23.4541 9.03417C23.454 8.8099 23.454 8.58562 23.4539 8.36135C23.491 8.21905 23.4859 8.06902 23.4392 7.92958C23.4195 7.90475 23.4057 7.87574 23.3988 7.84477C23.392 7.8138 23.3923 7.78167 23.3997 7.75083C23.4158 7.71755 23.4229 7.6806 23.4202 7.64371C23.4176 7.60682 23.4052 7.57129 23.3845 7.54068C23.2354 6.81875 22.9394 6.1352 22.5149 5.53253C22.5168 5.44452 22.4568 5.40641 22.3878 5.37565C22.2944 5.2824 22.201 5.18916 22.1076 5.09592C22.0767 5.02708 22.0387 4.96702 21.9503 4.96922C21.5474 4.68336 21.0931 4.47782 20.6123 4.36385C20.5109 4.2703 20.3793 4.30113 20.2606 4.27927C20.0355 4.21954 19.799 4.21628 19.5723 4.26978C19.1241 4.32651 18.6871 4.4516 18.2767 4.64071C18.2328 4.63939 18.1894 4.64982 18.1509 4.67094C18.1124 4.69206 18.0802 4.72309 18.0577 4.76082C17.9823 4.8125 17.9069 4.86419 17.8315 4.91588C17.7414 4.90926 17.7058 4.97396 17.6702 5.03872C17.1585 5.50073 16.7263 6.04379 16.3909 6.64615C16.2802 6.75187 16.2071 6.89087 16.1827 7.04198C16.0932 7.26236 16.0037 7.48275 15.9142 7.70315C15.8546 7.78373 15.7922 7.86345 15.8283 7.97425C15.7181 8.28356 15.7103 8.6212 15.5653 8.92087C15.5175 9.04382 15.5123 9.17923 15.5505 9.3055C15.5575 9.33629 15.5575 9.36825 15.5506 9.39907C15.5437 9.42988 15.5301 9.45877 15.5106 9.48363C15.4344 9.68441 15.4939 9.89301 15.4751 10.097C15.4965 10.4435 15.4316 10.7927 15.5087 11.1374L15.505 11.1321C15.5563 11.2385 15.5067 11.373 15.5989 11.468C15.6197 11.562 15.6406 11.6559 15.6614 11.7498C15.6613 11.9414 15.7089 12.13 15.8 12.2986C16.0024 12.6572 16.1574 13.0419 16.3957 13.3808C16.4051 13.4239 16.4249 13.464 16.4534 13.4977C16.4819 13.5314 16.5182 13.5576 16.5591 13.574C16.6715 13.6851 16.7838 13.7962 16.8961 13.9073C16.9284 13.9828 16.9888 14.0428 17.0646 14.0743L17.2256 14.18C17.316 14.2434 17.4106 14.3008 17.5087 14.3517C17.9303 14.4832 18.3585 14.5926 18.7915 14.6793C19.0204 14.734 19.259 14.7335 19.4876 14.6777C19.658 14.6573 19.8263 14.6227 19.9908 14.574C20.4443 14.4476 20.8709 14.2397 21.2498 13.9604C21.3042 13.9436 21.3544 13.9154 21.3969 13.8775C21.4394 13.8397 21.4733 13.7932 21.4963 13.7411L21.666 13.5728C21.769 13.5046 21.8807 13.4438 21.9009 13.3035C22.1418 12.9832 22.363 12.6484 22.5632 12.3012C22.6779 12.1785 22.7547 12.0252 22.7842 11.8598C22.9852 11.4085 23.1447 10.9398 23.2605 10.4596C23.3299 10.1483 23.3785 9.83239 23.4364 9.51857C23.4865 9.36176 23.4926 9.19421 23.4541 9.03417ZM21.1046 9.41504C21.093 9.62667 21.0472 9.83502 20.9687 10.0319C20.8976 10.1454 20.8657 10.2791 20.8779 10.4125C20.7686 10.7096 20.684 11.0194 20.4442 11.249C20.3853 11.3211 20.3317 11.3972 20.2837 11.4769C20.2848 11.4753 20.2863 11.474 20.2875 11.4724L20.2835 11.4773L20.2837 11.4769C20.1849 11.6152 20.0289 11.7043 19.9518 11.8612C19.6127 12.1645 19.2491 12.4004 18.7641 12.2468C18.4478 12.1466 18.304 11.8721 18.1608 11.6071C18.0374 11.3711 17.9492 11.1183 17.8991 10.8568C17.9625 10.7219 17.8507 10.603 17.8638 10.4724C17.8523 10.1595 17.8877 9.84587 17.8451 9.5338C17.8888 9.04164 18.0337 8.56381 18.2707 8.13025C18.2993 8.11845 18.3224 8.09633 18.3354 8.06828C18.3484 8.04023 18.3504 8.00831 18.341 7.97885C18.5709 7.49845 18.9127 7.08017 19.3376 6.75909C19.5371 6.62534 19.7814 6.57572 20.0172 6.62101C20.2531 6.6663 20.4616 6.80285 20.5974 7.00098C20.8679 7.39207 21.0419 7.84173 21.105 8.31308C21.0724 8.67966 21.0722 9.04842 21.1046 9.41504Z" fill="#FEFEFE"/>
<path d="M21.1035 9.41493C21.0265 9.05163 21.0267 8.67622 21.104 8.31299C21.139 8.67948 21.1388 9.04847 21.1035 9.41493Z" fill="#873D79"/>
<path d="M17.8445 9.53369C17.9484 9.86085 17.8616 10.1967 17.8899 10.5273C17.8739 10.5542 17.8581 10.5528 17.8427 10.5268C17.8162 10.1963 17.8168 9.86412 17.8445 9.53369Z" fill="#863A77"/>
<path d="M19.9512 11.8609C19.9783 11.6584 20.152 11.5821 20.2868 11.4722C20.2355 11.6538 20.0819 11.7476 19.9512 11.8609Z" fill="#904B83"/>
<path d="M20.8782 10.4123C20.7884 10.257 20.8618 10.1404 20.9689 10.0317C20.9387 10.1586 20.9084 10.2855 20.8782 10.4123Z" fill="#914D84"/>
<path d="M17.8418 10.5269C17.8575 10.5273 17.8733 10.5275 17.889 10.5274C17.9372 10.636 17.9926 10.7444 17.8976 10.8568L17.8418 10.5269Z" fill="#8D4780"/>
<path d="M20.2825 11.4772C20.2774 11.3601 20.3537 11.2999 20.4432 11.249C20.4507 11.368 20.3718 11.4262 20.2825 11.4772Z" fill="#8F4982"/>
<path d="M18.3399 7.97876C18.4004 8.06809 18.398 8.12833 18.2695 8.13016L18.3399 7.97876Z" fill="#8D4680"/>
<path d="M28.8845 6.65958C29.3228 6.83533 29.4558 7.24504 29.6131 7.62819C29.6774 7.8163 29.729 8.00849 29.7677 8.20347C29.7563 8.27501 29.7148 8.34847 29.7812 8.41505C29.8597 8.67154 29.8598 8.94558 29.7818 9.20218C29.7593 9.24303 29.7466 9.28856 29.7448 9.33516C29.743 9.38176 29.7521 9.42812 29.7714 9.47058C29.7798 9.50159 29.7805 9.53418 29.7733 9.56551C29.7662 9.59683 29.7516 9.62595 29.7307 9.65032C29.6549 9.71235 29.7037 9.78675 29.7101 9.85695C29.6013 10.4428 29.359 10.9956 29.0019 11.4726C28.828 11.5908 28.6789 11.7418 28.563 11.9173C28.2437 12.1432 27.9405 12.421 27.4969 12.2481C27.3866 12.1629 27.2675 12.0898 27.1415 12.0302C27.0579 11.9733 26.993 11.8928 26.9552 11.799C26.9538 11.7489 26.9414 11.6996 26.9187 11.6548C26.896 11.6101 26.8637 11.5709 26.8241 11.54C26.7083 11.35 26.636 11.1366 26.6126 10.9153C26.6031 10.7313 26.5754 10.5487 26.5298 10.3702C26.529 10.1739 26.5293 9.97779 26.5296 9.7817C26.5357 9.60558 26.6205 9.43453 26.5639 9.25429C26.6952 8.51667 27.0175 7.82634 27.4987 7.25211C27.5805 7.20977 27.6521 7.15034 27.7089 7.07785C27.7668 7.00622 27.8558 6.96048 27.8854 6.86549C27.9583 6.7832 28.0546 6.72531 28.1615 6.69968C28.2254 6.65619 28.2985 6.68312 28.3667 6.67294C28.4033 6.66747 28.4217 6.65276 28.3859 6.66195C28.3822 6.65436 28.3791 6.64653 28.3765 6.6385C28.4386 6.60278 28.5091 6.58439 28.5806 6.58523C28.6522 6.58608 28.7223 6.60614 28.7835 6.64331C28.7767 6.67005 28.7296 6.65059 28.732 6.68797C28.7786 6.65587 28.8373 6.68865 28.8845 6.65958Z" fill="#6F7073"/>
<path d="M28.5625 11.9173C28.5997 11.8162 28.6581 11.7241 28.7338 11.6474C28.8094 11.5708 28.9007 11.5112 29.0013 11.4727C28.8825 11.6457 28.734 11.7962 28.5625 11.9173Z" fill="#8E4881"/>
<path d="M26.5555 10.4164C26.6383 10.569 26.6586 10.7479 26.6121 10.9153C26.5374 10.7592 26.5019 10.5873 26.5086 10.4144C26.5253 10.3902 26.5409 10.3895 26.5555 10.4164Z" fill="#9A5B8D"/>
<path d="M26.5641 9.25439C26.6016 9.33209 26.6204 9.41746 26.6191 9.5037C26.6178 9.58995 26.5964 9.6747 26.5566 9.75121C26.5414 9.77544 26.5256 9.77592 26.509 9.75265C26.4662 9.57982 26.5512 9.42107 26.5641 9.25439Z" fill="#945288"/>
<path d="M26.5078 9.75247C26.5236 9.75129 26.5395 9.75081 26.5554 9.75103C26.5553 9.97278 26.5552 10.1945 26.5551 10.4163C26.5395 10.4163 26.5238 10.4156 26.5083 10.4144L26.5078 9.75247Z" fill="#813372"/>
<path d="M27.1406 12.0303C27.3072 12.0307 27.4099 12.1757 27.5594 12.2146C27.5553 12.2215 27.5528 12.2322 27.5469 12.2345C27.5303 12.2401 27.5132 12.2447 27.496 12.2482C27.4251 12.2377 27.3571 12.213 27.2961 12.1755C27.235 12.1381 27.1821 12.0887 27.1406 12.0303Z" fill="#8E4881"/>
<path d="M26.8232 11.54C26.8511 11.5447 26.8775 11.5558 26.9003 11.5726C26.923 11.5893 26.9415 11.6112 26.9543 11.6364C26.9671 11.6616 26.9737 11.6894 26.9737 11.7177C26.9737 11.7459 26.9671 11.7738 26.9543 11.799C26.8901 11.7247 26.8451 11.6358 26.8232 11.54Z" fill="#8D4780"/>
<path d="M27.8845 6.86572C27.9257 7.00936 27.7861 7.02221 27.722 7.08968C27.718 7.09552 27.7126 7.10022 27.7062 7.1033C27.6999 7.10639 27.6928 7.10775 27.6858 7.10726C27.6787 7.10677 27.6719 7.10443 27.6661 7.1005C27.6602 7.09656 27.6555 7.09116 27.6523 7.08483C27.7115 6.99459 27.791 6.91953 27.8845 6.86572Z" fill="#8D4780"/>
<path d="M27.6536 7.08447L27.7232 7.08933C27.656 7.15382 27.6425 7.29211 27.499 7.25199L27.6536 7.08447Z" fill="#8E4881"/>
<path d="M29.7715 9.47066C29.6872 9.36962 29.7231 9.25686 29.7397 9.146C29.7472 9.14798 29.7589 9.14771 29.7614 9.15238C29.7692 9.16856 29.7761 9.18522 29.7818 9.20225L29.7715 9.47066Z" fill="#823573"/>
<path d="M28.3771 6.63867C28.3909 6.65766 28.4972 6.65336 28.4052 6.69477C28.3253 6.71208 28.2427 6.7138 28.1621 6.69985C28.2145 6.61201 28.3047 6.65661 28.3771 6.63867Z" fill="#8D4680"/>
<path d="M29.7815 8.41519C29.7646 8.4313 29.7523 8.50565 29.7353 8.4566C29.7155 8.41583 29.708 8.37018 29.7138 8.32523C29.7196 8.28028 29.7384 8.23802 29.7679 8.20361L29.7815 8.41519Z" fill="#863A77"/>
<path d="M29.7089 9.85702C29.6564 9.78224 29.6197 9.70904 29.7295 9.65039C29.7227 9.71927 29.7158 9.78814 29.7089 9.85702Z" fill="#8A417C"/>
<path d="M28.8848 6.65959C28.8147 6.72063 28.739 6.71108 28.6211 6.66588L28.7838 6.64331L28.8848 6.65959Z" fill="#8D4680"/>
</svg>
