<svg data-v-423bf9ae="" xmlns="http://www.w3.org/2000/svg" viewBox="0 0 736.983661348409 60" class="font"><!----><!----><!----><g data-v-423bf9ae="" id="f3ebf70c-d318-4773-bf24-0d0eccb842df" fill="black" transform="matrix(4.457652290486928,0,0,4.457652290486928,-3.1203552661120852,-9.717682052423314)"><path d="M5.54 13.24L5.54 13.24Q3.18 13.24 1.94 11.93Q0.70 10.61 0.70 8.19L0.70 8.19Q0.70 6.99 1.08 6.04Q1.46 5.10 2.11 4.45Q2.77 3.79 3.68 3.46Q4.59 3.12 5.66 3.12L5.66 3.12Q6.27 3.12 6.78 3.21Q7.28 3.30 7.66 3.42Q8.04 3.54 8.29 3.67Q8.54 3.79 8.65 3.86L8.65 3.86L8.02 5.63Q7.57 5.39 6.98 5.22Q6.38 5.05 5.63 5.05L5.63 5.05Q5.12 5.05 4.64 5.22Q4.16 5.39 3.79 5.76Q3.42 6.13 3.19 6.72Q2.97 7.31 2.97 8.15L2.97 8.15Q2.97 8.82 3.12 9.40Q3.26 9.98 3.59 10.40Q3.92 10.82 4.45 11.07Q4.98 11.31 5.74 11.31L5.74 11.31Q6.22 11.31 6.59 11.26Q6.97 11.20 7.27 11.12Q7.56 11.05 7.78 10.95Q8.01 10.85 8.19 10.77L8.19 10.77L8.79 12.52Q8.33 12.80 7.49 13.02Q6.65 13.24 5.54 13.24ZM13.01 11.59L13.01 11.59Q13.31 11.59 13.59 11.58Q13.87 11.56 14.04 11.54L14.04 11.54L14.04 9.95Q13.92 9.93 13.66 9.90Q13.41 9.87 13.20 9.87L13.20 9.87Q12.91 9.87 12.65 9.90Q12.39 9.94 12.19 10.04Q12.00 10.14 11.89 10.30Q11.77 10.47 11.77 10.72L11.77 10.72Q11.77 11.21 12.10 11.40Q12.43 11.59 13.01 11.59ZM12.84 5.49L12.84 5.49Q13.76 5.49 14.38 5.70Q14.99 5.91 15.37 6.30Q15.74 6.69 15.89 7.25Q16.04 7.81 16.04 8.50L16.04 8.50L16.04 12.84Q15.60 12.94 14.80 13.07Q14.00 13.20 12.87 13.20L12.87 13.20Q12.15 13.20 11.57 13.08Q10.99 12.95 10.57 12.66Q10.15 12.38 9.93 11.91Q9.70 11.45 9.70 10.78L9.70 10.78Q9.70 10.14 9.96 9.69Q10.22 9.24 10.65 8.97Q11.09 8.71 11.65 8.59Q12.21 8.47 12.81 8.47L12.81 8.47Q13.22 8.47 13.53 8.50Q13.85 8.54 14.04 8.60L14.04 8.60L14.04 8.40Q14.04 7.87 13.72 7.55Q13.40 7.22 12.60 7.22L12.60 7.22Q12.07 7.22 11.55 7.30Q11.03 7.38 10.65 7.52L10.65 7.52L10.39 5.84Q10.57 5.78 10.84 5.72Q11.12 5.66 11.44 5.61Q11.76 5.56 12.12 5.52Q12.47 5.49 12.84 5.49ZM22.65 9.42L22.65 9.42Q22.65 8.46 22.22 7.88Q21.78 7.29 20.93 7.29L20.93 7.29Q20.65 7.29 20.41 7.31Q20.17 7.34 20.02 7.36L20.02 7.36L20.02 11.13Q20.22 11.26 20.53 11.34Q20.85 11.42 21.17 11.42L21.17 11.42Q22.65 11.42 22.65 9.42ZM24.78 9.37L24.78 9.37Q24.78 10.22 24.57 10.92Q24.36 11.62 23.95 12.12Q23.55 12.63 22.95 12.91Q22.34 13.19 21.56 13.19L21.56 13.19Q21.13 13.19 20.75 13.10Q20.37 13.02 20.02 12.87L20.02 12.87L20.02 15.64L17.93 15.64L17.93 5.94Q18.21 5.85 18.58 5.77Q18.94 5.70 19.34 5.64Q19.74 5.59 20.15 5.55Q20.57 5.52 20.94 5.52L20.94 5.52Q21.85 5.52 22.57 5.79Q23.28 6.06 23.77 6.56Q24.26 7.06 24.52 7.77Q24.78 8.48 24.78 9.37ZM28.48 5.68L28.48 13.05L26.39 13.05L26.39 5.68L28.48 5.68ZM28.67 3.56L28.67 3.56Q28.67 4.13 28.30 4.46Q27.93 4.79 27.43 4.79L27.43 4.79Q26.92 4.79 26.55 4.46Q26.18 4.13 26.18 3.56L26.18 3.56Q26.18 2.98 26.55 2.65Q26.92 2.32 27.43 2.32L27.43 2.32Q27.93 2.32 28.30 2.65Q28.67 2.98 28.67 3.56ZM30.37 10.04L30.37 3.85L32.45 3.51L32.45 5.68L34.96 5.68L34.96 7.42L32.45 7.42L32.45 10.01Q32.45 10.67 32.68 11.06Q32.91 11.45 33.61 11.45L33.61 11.45Q33.95 11.45 34.31 11.39Q34.66 11.33 34.96 11.21L34.96 11.21L35.25 12.84Q34.87 12.99 34.41 13.10Q33.95 13.22 33.28 13.22L33.28 13.22Q32.42 13.22 31.86 12.98Q31.30 12.75 30.97 12.34Q30.63 11.93 30.50 11.34Q30.37 10.75 30.37 10.04L30.37 10.04ZM39.19 11.59L39.19 11.59Q39.49 11.59 39.77 11.58Q40.05 11.56 40.22 11.54L40.22 11.54L40.22 9.95Q40.10 9.93 39.84 9.90Q39.59 9.87 39.38 9.87L39.38 9.87Q39.09 9.87 38.83 9.90Q38.57 9.94 38.37 10.04Q38.18 10.14 38.07 10.30Q37.95 10.47 37.95 10.72L37.95 10.72Q37.95 11.21 38.28 11.40Q38.61 11.59 39.19 11.59ZM39.02 5.49L39.02 5.49Q39.94 5.49 40.56 5.70Q41.17 5.91 41.54 6.30Q41.92 6.69 42.07 7.25Q42.22 7.81 42.22 8.50L42.22 8.50L42.22 12.84Q41.78 12.94 40.98 13.07Q40.18 13.20 39.05 13.20L39.05 13.20Q38.33 13.20 37.75 13.08Q37.17 12.95 36.75 12.66Q36.33 12.38 36.11 11.91Q35.88 11.45 35.88 10.78L35.88 10.78Q35.88 10.14 36.14 9.69Q36.40 9.24 36.83 8.97Q37.27 8.71 37.83 8.59Q38.39 8.47 38.99 8.47L38.99 8.47Q39.40 8.47 39.71 8.50Q40.03 8.54 40.22 8.60L40.22 8.60L40.22 8.40Q40.22 7.87 39.90 7.55Q39.58 7.22 38.78 7.22L38.78 7.22Q38.25 7.22 37.73 7.30Q37.21 7.38 36.83 7.52L36.83 7.52L36.57 5.84Q36.75 5.78 37.02 5.72Q37.30 5.66 37.62 5.61Q37.94 5.56 38.30 5.52Q38.65 5.49 39.02 5.49ZM47.35 11.47L47.05 13.19Q46.14 13.17 45.58 12.99Q45.01 12.81 44.68 12.48Q44.35 12.15 44.23 11.68Q44.11 11.21 44.11 10.63L44.11 10.63L44.11 2.52L46.20 2.18L46.20 10.21Q46.20 10.49 46.24 10.71Q46.28 10.93 46.40 11.09Q46.52 11.24 46.75 11.34Q46.97 11.44 47.35 11.47L47.35 11.47ZM56.46 13.24L56.46 13.24Q54.10 13.24 52.86 11.93Q51.62 10.61 51.62 8.19L51.62 8.19Q51.62 6.99 52.00 6.04Q52.37 5.10 53.03 4.45Q53.69 3.79 54.60 3.46Q55.51 3.12 56.57 3.12L56.57 3.12Q57.19 3.12 57.69 3.21Q58.20 3.30 58.58 3.42Q58.95 3.54 59.21 3.67Q59.46 3.79 59.57 3.86L59.57 3.86L58.94 5.63Q58.49 5.39 57.90 5.22Q57.30 5.05 56.55 5.05L56.55 5.05Q56.04 5.05 55.56 5.22Q55.08 5.39 54.70 5.76Q54.33 6.13 54.11 6.72Q53.89 7.31 53.89 8.15L53.89 8.15Q53.89 8.82 54.03 9.40Q54.18 9.98 54.51 10.40Q54.84 10.82 55.37 11.07Q55.90 11.31 56.66 11.31L56.66 11.31Q57.13 11.31 57.51 11.26Q57.89 11.20 58.18 11.12Q58.48 11.05 58.70 10.95Q58.93 10.85 59.11 10.77L59.11 10.77L59.71 12.52Q59.25 12.80 58.41 13.02Q57.57 13.24 56.46 13.24ZM67.69 9.35L67.69 9.35Q67.69 10.22 67.44 10.94Q67.19 11.66 66.71 12.17Q66.23 12.68 65.57 12.96Q64.90 13.24 64.08 13.24L64.08 13.24Q63.27 13.24 62.60 12.96Q61.94 12.68 61.46 12.17Q60.98 11.66 60.72 10.94Q60.45 10.22 60.45 9.35L60.45 9.35Q60.45 8.48 60.72 7.77Q61.00 7.06 61.48 6.55Q61.96 6.05 62.63 5.77Q63.29 5.49 64.08 5.49L64.08 5.49Q64.88 5.49 65.54 5.77Q66.21 6.05 66.68 6.55Q67.16 7.06 67.42 7.77Q67.69 8.48 67.69 9.35ZM65.56 9.35L65.56 9.35Q65.56 8.39 65.18 7.83Q64.79 7.28 64.08 7.28L64.08 7.28Q63.36 7.28 62.97 7.83Q62.58 8.39 62.58 9.35L62.58 9.35Q62.58 10.32 62.97 10.88Q63.36 11.45 64.08 11.45L64.08 11.45Q64.79 11.45 65.18 10.88Q65.56 10.32 65.56 9.35ZM71.39 5.68L71.39 13.05L69.30 13.05L69.30 5.68L71.39 5.68ZM71.58 3.56L71.58 3.56Q71.58 4.13 71.21 4.46Q70.84 4.79 70.34 4.79L70.34 4.79Q69.83 4.79 69.46 4.46Q69.09 4.13 69.09 3.56L69.09 3.56Q69.09 2.98 69.46 2.65Q69.83 2.32 70.34 2.32L70.34 2.32Q70.84 2.32 71.21 2.65Q71.58 2.98 71.58 3.56ZM73.35 13.05L73.35 5.94Q73.88 5.78 74.72 5.65Q75.56 5.52 76.48 5.52L76.48 5.52Q77.42 5.52 78.04 5.76Q78.67 6.01 79.03 6.45Q79.39 6.90 79.55 7.52Q79.70 8.13 79.70 8.89L79.70 8.89L79.70 13.05L77.62 13.05L77.62 9.14Q77.62 8.13 77.35 7.71Q77.08 7.29 76.36 7.29L76.36 7.29Q76.13 7.29 75.88 7.31Q75.63 7.34 75.43 7.36L75.43 7.36L75.43 13.05L73.35 13.05ZM85.09 13.05L85.09 3.35L87.28 3.35L87.28 13.05L85.09 13.05ZM89.38 13.05L89.38 5.94Q89.91 5.78 90.75 5.65Q91.59 5.52 92.51 5.52L92.51 5.52Q93.45 5.52 94.07 5.76Q94.70 6.01 95.06 6.45Q95.42 6.90 95.58 7.52Q95.73 8.13 95.73 8.89L95.73 8.89L95.73 13.05L93.65 13.05L93.65 9.14Q93.65 8.13 93.38 7.71Q93.11 7.29 92.39 7.29L92.39 7.29Q92.16 7.29 91.91 7.31Q91.66 7.34 91.46 7.36L91.46 7.36L91.46 13.05L89.38 13.05ZM101.14 13.05L99.40 13.05Q98.69 11.65 97.95 9.77Q97.22 7.90 96.56 5.68L96.56 5.68L98.77 5.68Q98.91 6.23 99.10 6.87Q99.29 7.50 99.49 8.16Q99.69 8.81 99.90 9.42Q100.10 10.04 100.30 10.54L100.30 10.54Q100.48 10.04 100.69 9.42Q100.90 8.81 101.10 8.16Q101.30 7.50 101.49 6.87Q101.68 6.23 101.82 5.68L101.82 5.68L103.98 5.68Q103.32 7.90 102.58 9.77Q101.85 11.65 101.14 13.05L101.14 13.05ZM104.55 9.42L104.55 9.42Q104.55 8.44 104.85 7.71Q105.15 6.97 105.64 6.48Q106.13 5.99 106.77 5.74Q107.41 5.49 108.08 5.49L108.08 5.49Q109.65 5.49 110.56 6.45Q111.47 7.41 111.47 9.27L111.47 9.27Q111.47 9.45 111.45 9.67Q111.44 9.88 111.43 10.05L111.43 10.05L106.69 10.05Q106.76 10.70 107.30 11.07Q107.83 11.45 108.72 11.45L108.72 11.45Q109.30 11.45 109.85 11.35Q110.40 11.24 110.75 11.09L110.75 11.09L111.03 12.78Q110.87 12.87 110.59 12.95Q110.31 13.03 109.96 13.10Q109.62 13.16 109.23 13.20Q108.84 13.24 108.44 13.24L108.44 13.24Q107.45 13.24 106.72 12.95Q105.98 12.66 105.50 12.14Q105.01 11.63 104.78 10.93Q104.55 10.23 104.55 9.42ZM106.69 8.62L109.45 8.62Q109.44 8.36 109.36 8.11Q109.28 7.85 109.12 7.66Q108.96 7.46 108.72 7.34Q108.47 7.21 108.11 7.21L108.11 7.21Q107.76 7.21 107.51 7.33Q107.25 7.45 107.09 7.64Q106.92 7.84 106.83 8.10Q106.74 8.36 106.69 8.62L106.69 8.62ZM115.19 11.55L115.19 11.55Q115.77 11.55 116.00 11.44Q116.24 11.33 116.24 11.00L116.24 11.00Q116.24 10.75 115.93 10.56Q115.63 10.37 115.00 10.14L115.00 10.14Q114.51 9.95 114.11 9.76Q113.71 9.56 113.43 9.29Q113.15 9.02 112.99 8.64Q112.84 8.26 112.84 7.73L112.84 7.73Q112.84 6.69 113.61 6.09Q114.38 5.49 115.72 5.49L115.72 5.49Q116.40 5.49 117.01 5.61Q117.63 5.73 117.99 5.87L117.99 5.87L117.63 7.49Q117.26 7.36 116.84 7.27Q116.41 7.17 115.88 7.17L115.88 7.17Q114.90 7.17 114.90 7.71L114.90 7.71Q114.90 7.84 114.94 7.94Q114.98 8.04 115.11 8.13Q115.23 8.22 115.45 8.32Q115.67 8.43 116.00 8.55L116.00 8.55Q116.69 8.81 117.14 9.05Q117.59 9.30 117.84 9.58Q118.10 9.87 118.21 10.22Q118.31 10.57 118.31 11.03L118.31 11.03Q118.31 12.12 117.50 12.68Q116.68 13.24 115.18 13.24L115.18 13.24Q114.20 13.24 113.55 13.08Q112.90 12.91 112.64 12.80L112.64 12.80L112.99 11.10Q113.53 11.31 114.09 11.43Q114.65 11.55 115.19 11.55ZM119.80 10.04L119.80 3.85L121.88 3.51L121.88 5.68L124.39 5.68L124.39 7.42L121.88 7.42L121.88 10.01Q121.88 10.67 122.12 11.06Q122.35 11.45 123.05 11.45L123.05 11.45Q123.38 11.45 123.74 11.39Q124.10 11.33 124.39 11.21L124.39 11.21L124.68 12.84Q124.31 12.99 123.84 13.10Q123.38 13.22 122.71 13.22L122.71 13.22Q121.86 13.22 121.30 12.98Q120.74 12.75 120.40 12.34Q120.06 11.93 119.93 11.34Q119.80 10.75 119.80 10.04L119.80 10.04ZM130.13 13.05L130.13 9.14Q130.13 8.13 129.87 7.71Q129.61 7.29 128.98 7.29L128.98 7.29Q128.79 7.29 128.58 7.31Q128.37 7.34 128.17 7.36L128.17 7.36L128.17 13.05L126.08 13.05L126.08 5.94Q126.35 5.87 126.71 5.79Q127.06 5.71 127.46 5.65Q127.86 5.59 128.28 5.55Q128.70 5.52 129.11 5.52L129.11 5.52Q129.91 5.52 130.40 5.72Q130.90 5.92 131.22 6.20L131.22 6.20Q131.67 5.88 132.25 5.70Q132.83 5.52 133.32 5.52L133.32 5.52Q134.20 5.52 134.77 5.76Q135.34 6.01 135.67 6.45Q136.01 6.90 136.14 7.52Q136.26 8.13 136.26 8.89L136.26 8.89L136.26 13.05L134.18 13.05L134.18 9.14Q134.18 8.13 133.92 7.71Q133.66 7.29 133.03 7.29L133.03 7.29Q132.86 7.29 132.56 7.38Q132.26 7.46 132.06 7.59L132.06 7.59Q132.16 7.91 132.19 8.27Q132.22 8.62 132.22 9.03L132.22 9.03L132.22 13.05L130.13 13.05ZM137.80 9.42L137.80 9.42Q137.80 8.44 138.10 7.71Q138.40 6.97 138.89 6.48Q139.38 5.99 140.02 5.74Q140.66 5.49 141.33 5.49L141.33 5.49Q142.90 5.49 143.81 6.45Q144.72 7.41 144.72 9.27L144.72 9.27Q144.72 9.45 144.70 9.67Q144.69 9.88 144.68 10.05L144.68 10.05L139.94 10.05Q140.01 10.70 140.55 11.07Q141.08 11.45 141.97 11.45L141.97 11.45Q142.55 11.45 143.10 11.35Q143.65 11.24 144.00 11.09L144.00 11.09L144.28 12.78Q144.12 12.87 143.84 12.95Q143.56 13.03 143.21 13.10Q142.87 13.16 142.48 13.20Q142.09 13.24 141.69 13.24L141.69 13.24Q140.70 13.24 139.97 12.95Q139.23 12.66 138.75 12.14Q138.26 11.63 138.03 10.93Q137.80 10.23 137.80 9.42ZM139.94 8.62L142.70 8.62Q142.69 8.36 142.61 8.11Q142.53 7.85 142.37 7.66Q142.21 7.46 141.97 7.34Q141.72 7.21 141.36 7.21L141.36 7.21Q141.01 7.21 140.76 7.33Q140.50 7.45 140.34 7.64Q140.17 7.84 140.08 8.10Q139.99 8.36 139.94 8.62L139.94 8.62ZM146.33 13.05L146.33 5.94Q146.86 5.78 147.70 5.65Q148.54 5.52 149.46 5.52L149.46 5.52Q150.40 5.52 151.02 5.76Q151.65 6.01 152.01 6.45Q152.38 6.90 152.53 7.52Q152.68 8.13 152.68 8.89L152.68 8.89L152.68 13.05L150.60 13.05L150.60 9.14Q150.60 8.13 150.33 7.71Q150.07 7.29 149.34 7.29L149.34 7.29Q149.11 7.29 148.86 7.31Q148.61 7.34 148.41 7.36L148.41 7.36L148.41 13.05L146.33 13.05ZM154.50 10.04L154.50 3.85L156.59 3.51L156.59 5.68L159.10 5.68L159.10 7.42L156.59 7.42L156.59 10.01Q156.59 10.67 156.82 11.06Q157.05 11.45 157.75 11.45L157.75 11.45Q158.09 11.45 158.44 11.39Q158.80 11.33 159.10 11.21L159.10 11.21L159.39 12.84Q159.01 12.99 158.55 13.10Q158.09 13.22 157.42 13.22L157.42 13.22Q156.56 13.22 156.00 12.98Q155.44 12.75 155.11 12.34Q154.77 11.93 154.64 11.34Q154.50 10.75 154.50 10.04L154.50 10.04ZM162.90 11.55L162.90 11.55Q163.48 11.55 163.72 11.44Q163.95 11.33 163.95 11.00L163.95 11.00Q163.95 10.75 163.65 10.56Q163.34 10.37 162.71 10.14L162.71 10.14Q162.22 9.95 161.82 9.76Q161.42 9.56 161.14 9.29Q160.86 9.02 160.71 8.64Q160.55 8.26 160.55 7.73L160.55 7.73Q160.55 6.69 161.32 6.09Q162.09 5.49 163.44 5.49L163.44 5.49Q164.11 5.49 164.72 5.61Q165.34 5.73 165.70 5.87L165.70 5.87L165.34 7.49Q164.98 7.36 164.55 7.27Q164.12 7.17 163.59 7.17L163.59 7.17Q162.61 7.17 162.61 7.71L162.61 7.71Q162.61 7.84 162.65 7.94Q162.69 8.04 162.82 8.13Q162.95 8.22 163.16 8.32Q163.38 8.43 163.72 8.55L163.72 8.55Q164.40 8.81 164.85 9.05Q165.30 9.30 165.56 9.58Q165.82 9.87 165.92 10.22Q166.03 10.57 166.03 11.03L166.03 11.03Q166.03 12.12 165.21 12.68Q164.39 13.24 162.89 13.24L162.89 13.24Q161.91 13.24 161.26 13.08Q160.61 12.91 160.36 12.80L160.36 12.80L160.71 11.10Q161.24 11.31 161.80 11.43Q162.36 11.55 162.90 11.55Z"></path></g><!----><!----></svg>